<svg id="Layer_1" data-name="Layer 1" xmlns="http://www.w3.org/2000/svg" viewBox="0 0 464.05 205.03">
  <defs>
    <style>
      .cls-1 {
        fill: #f2f2f2;
      }

      .cls-2 {
        fill: #ccc;
      }

      .cls-3 {
        fill: #fff;
      }
    </style>
  </defs>
  <path d="M21.07,119.34a1.57,1.57,0,0,1,.27-.63.66.66,0,0,0,.14-.28.78.78,0,0,1,.22-.36,23.76,23.76,0,0,1,1.37-2.45c.54-1,1.21-2.29,2-3.77s1.69-3.14,2.72-5q3-5.53,6.77-12.54T42.43,79.9q4.08-7.45,8-14.77t7.18-13.27l5.45-10c1.48-2.73,2.41-4.42,2.77-5.09a3,3,0,0,1,.73-.91,2.22,2.22,0,0,1,1.27-.27H79.78a2.52,2.52,0,0,1,1.32.36,1.8,1.8,0,0,1,.77.82c.36.73,1.29,2.44,2.77,5.13s3.32,6,5.5,10l7.23,13.27q3.94,7.26,7.95,14.72t7.9,14.45q3.82,7,6.82,12.45,1.45,2.73,2.64,5c.78,1.52,1.48,2.79,2.09,3.82a23.36,23.36,0,0,0,1.36,2.45l.18.36a.78.78,0,0,1,.09.28.48.48,0,0,1,.18.32.62.62,0,0,0,.1.31.38.38,0,0,0,.09.28,1.83,1.83,0,0,1-.73,1.54,2.7,2.7,0,0,1-1.64.55H106.59a2.13,2.13,0,0,1-1.32-.37,1.9,1.9,0,0,1-.68-.81L74,64.18,43.42,120.53a2.2,2.2,0,0,1-2.09,1.18H23.43a2.61,2.61,0,0,1-1.68-.55,1.84,1.84,0,0,1-.68-1.54Z" transform="translate(-21.07 -25.74)"/>
  <path d="M131.67,62.9a27.92,27.92,0,0,1,2.05-10.72,26.46,26.46,0,0,1,5.68-8.68A27.34,27.34,0,0,1,148,37.68a26.47,26.47,0,0,1,10.64-2.13H281.73a2.22,2.22,0,0,1,1.81.77,2.27,2.27,0,0,1,.64,1.41V53.18a2.3,2.3,0,0,1-.59,1.45,2.26,2.26,0,0,1-1.86.73H250.92v64.17a2,2,0,0,1-.74,1.59,2.67,2.67,0,0,1-1.73.59H232.57a2.12,2.12,0,0,1-1.83-.73,2.37,2.37,0,0,1-.55-1.45V55.36H158a4.84,4.84,0,0,0-4.1,1.94,8.13,8.13,0,0,0,0,9.3,4.74,4.74,0,0,0,4,1.94h26.31c2.6,0,5.38.06,8.32.18a55.91,55.91,0,0,1,8.74,1,38.21,38.21,0,0,1,8.23,2.64,21.8,21.8,0,0,1,6.92,5,23.32,23.32,0,0,1,4.87,8.19,28.16,28.16,0,0,1,1.5,9,27.28,27.28,0,0,1-2.09,10.69,25.1,25.1,0,0,1-6,8.61,27.94,27.94,0,0,1-9.32,5.73,33.62,33.62,0,0,1-12.18,2.1h-55a2.27,2.27,0,0,1-1.87-.73,2.32,2.32,0,0,1-.59-1.45V103.8a2.4,2.4,0,0,1,.64-1.36,2.15,2.15,0,0,1,1.82-.82h58a5.08,5.08,0,0,0,2.41-.59,6.4,6.4,0,0,0,1.95-1.54,7.61,7.61,0,0,0,1.32-2.23,7,7,0,0,0,.5-2.54,4.54,4.54,0,0,0-.73-2.51,6.47,6.47,0,0,0-1.86-1.9,9.86,9.86,0,0,0-2.5-1.23,8.16,8.16,0,0,0-2.54-.45H160.66Q146.4,88.63,139,82T131.67,62.9Z" transform="translate(-21.07 -25.74)"/>
  <path d="M293.17,69.27a2.12,2.12,0,0,1,1.82-.73h50.35a4.94,4.94,0,0,0,4.18-1.9A7.31,7.31,0,0,0,351,62a7.4,7.4,0,0,0-1.5-4.65,5,5,0,0,0-4.14-1.94h-17.9a1.1,1.1,0,0,1,.14.18,1,1,0,0,0,.22.28,9.47,9.47,0,0,0,.55.81l.54.73a.79.79,0,0,1,.23.37,1.64,1.64,0,0,1,.36.77,1.05,1.05,0,0,1,.14.59,2.78,2.78,0,0,1-.5,1.27,1.89,1.89,0,0,1-1.77.82H309.81a2.18,2.18,0,0,1-1.46-.41,4,4,0,0,1-.63-.68l-1.18-1.73c-.55-.79-1.19-1.71-1.91-2.77l-2.37-3.45c-.84-1.25-1.69-2.5-2.54-3.78l-2.45-3.68-2.1-3.13c-.3-.49-.59-.91-.86-1.28a11.92,11.92,0,0,1-.68-1,.89.89,0,0,1-.23-.37,1.74,1.74,0,0,0-.13-.36A2.53,2.53,0,0,1,293,38a2.12,2.12,0,0,1-.05-.32,2.74,2.74,0,0,1,.5-1.27,1.91,1.91,0,0,1,1.77-.82H344.8A26.35,26.35,0,0,1,364,43.68a28.2,28.2,0,0,1,5.64,8.77,27.92,27.92,0,0,1,2,10.64,29,29,0,0,1-.95,7.22,25.57,25.57,0,0,1-3,7,24.63,24.63,0,0,1-5.14,5.91,20.37,20.37,0,0,1-7.45,3.86,18.66,18.66,0,0,1-2.82.73,16.94,16.94,0,0,1-2.91.27q.92,1.55,2.37,3.63l3.45,5.09c1.27,1.88,2.58,3.82,3.91,5.82s2.73,3.86,4,5.77,2.42,3.62,3.45,5.14c.49.78.94,1.48,1.36,2.09s.79,1.15,1.1,1.63c.12.25.24.47.36.69a2.3,2.3,0,0,0,.36.49,2.88,2.88,0,0,1,.46,1.19,2,2,0,0,1-.68,1.45,2.37,2.37,0,0,1-1.69.64H350.34a2.25,2.25,0,0,1-1.45-.37,2.18,2.18,0,0,1-.64-.72,19.14,19.14,0,0,0-1.18-1.91c-.42-.61-.85-1.24-1.27-1.91q-2.91-4.36-5.77-8.64t-5.77-8.63l-5.46-8.09c-.3-.48-.6-1-.91-1.41s-.6-.92-.9-1.4H313.08v30.9a2.37,2.37,0,0,1-.55,1.45,2.22,2.22,0,0,1-1.9.73H295.08a2.25,2.25,0,0,1-1.91-.73,2.45,2.45,0,0,1-.54-1.46V70.63A2.32,2.32,0,0,1,293.17,69.27Z" transform="translate(-21.07 -25.74)"/>
  <path d="M68.42,172a28.15,28.15,0,0,1,2-10.73,26.72,26.72,0,0,1,5.68-8.68,27,27,0,0,1,8.55-5.81,26.22,26.22,0,0,1,10.63-2.14h54.26a4.32,4.32,0,0,1,1.59.41,1.64,1.64,0,0,1,1,1.68v15.81a1.67,1.67,0,0,1-.77,1.5,2.84,2.84,0,0,1-1.59.5H94.68a4.88,4.88,0,0,0-4.09,1.9,7.33,7.33,0,0,0-1.45,4.6,7.89,7.89,0,0,0,1.36,4.6,4.71,4.71,0,0,0,4.18,2H121c2.6,0,5.38.06,8.32.18a55.66,55.66,0,0,1,8.72,1.05,38.21,38.21,0,0,1,8.23,2.64,21.83,21.83,0,0,1,6.9,5,23.79,23.79,0,0,1,4.87,8.06,27.41,27.41,0,0,1,1.5,9,28.13,28.13,0,0,1-2.05,10.79,25.17,25.17,0,0,1-5.86,8.64,27.17,27.17,0,0,1-9.32,5.79A34.48,34.48,0,0,1,130,230.77H75A2.23,2.23,0,0,1,73.1,230a2.26,2.26,0,0,1-.59-1.45V212.86a2.47,2.47,0,0,1,.63-1.36,2.19,2.19,0,0,1,1.82-.82h58a5,5,0,0,0,2.4-.59,6.56,6.56,0,0,0,2-1.54,8.07,8.07,0,0,0,1.32-2.23,7,7,0,0,0,.5-2.54,4.57,4.57,0,0,0-.73-2.5,6.64,6.64,0,0,0-1.86-1.91,10,10,0,0,0-2.5-1.23,8.17,8.17,0,0,0-2.55-.45H97.41q-14.26,0-21.63-6.64T68.42,172Z" transform="translate(-21.07 -25.74)"/>
  <path d="M164.39,146.52a1.59,1.59,0,0,1,.73-1.46,3,3,0,0,1,1.63-.45h17.73a2.24,2.24,0,0,1,1.32.36,3.9,3.9,0,0,1,.77.73q1.73,2.91,3.27,6t3.18,6q3.18,5.91,6.32,11.68c2.09,3.84,4.19,7.71,6.31,11.58q6.56,12,12.91,23.86t12.9,23.77l1.28,2.27H211.29a2.18,2.18,0,0,1-2.09-1.18q-.55-1.09-2.77-5.18t-5.5-10q-3.27-5.94-7.23-13.22t-7.95-14.72Q181.66,179,177.84,172t-6.72-12.54q-1.55-2.73-2.73-5c-.79-1.48-1.49-2.77-2.09-3.86-.3-.55-.56-1-.77-1.41a8,8,0,0,1-.5-1l-.37-.72a6.19,6.19,0,0,1-.22-.64A1.31,1.31,0,0,1,164.39,146.52Zm42.17,1c-.12-.3-.19-.52-.23-.64a1.16,1.16,0,0,1,0-.27,1.7,1.7,0,0,1,.73-1.45,2.61,2.61,0,0,1,1.63-.55h17.72a2.21,2.21,0,0,1,2.1,1.18L259.09,202l30.63-56.17a2,2,0,0,1,.68-.91,2.29,2.29,0,0,1,1.23-.27h18.09a2.48,2.48,0,0,1,1.54.55,1.7,1.7,0,0,1,.73,1.45,1.31,1.31,0,0,1-.05.27,5.46,5.46,0,0,1-.22.64l-.37.73a10.48,10.48,0,0,1-.5,1l-.77,1.41c-.6,1-1.3,2.3-2.09,3.82s-1.7,3.18-2.73,5q-9.45,17.73-18.95,35.13t-19.13,35a2.18,2.18,0,0,1-2.09,1.18h-11.9a2.18,2.18,0,0,1-2.09-1.18q-9.65-17.55-19.14-35t-19-35.13c-1-1.81-1.93-3.48-2.72-5s-1.46-2.79-2-3.82a17.4,17.4,0,0,1-.86-1.55C207.15,148.61,206.87,148.06,206.56,147.52Z" transform="translate(-21.07 -25.74)"/>
  <path d="M284.81,228.41a1.46,1.46,0,0,1,.28-.64.57.57,0,0,0,.13-.27.89.89,0,0,1,.23-.37,25.24,25.24,0,0,1,1.36-2.45l2-3.77q1.19-2.24,2.73-5,3-5.53,6.77-12.54T306.17,189q4.09-7.46,8-14.77t7.19-13.27q3.23-5.94,5.45-10c1.48-2.73,2.41-4.42,2.77-5.09a2.86,2.86,0,0,1,.73-.91,2.19,2.19,0,0,1,1.27-.27h16.63a2.72,2.72,0,0,1,1.55.5,1.7,1.7,0,0,1,.72,1.5v82.07A2.38,2.38,0,0,1,350,230a2,2,0,0,1-1.77.73H332.07a2.5,2.5,0,0,1-1.27-.27,2.11,2.11,0,0,1-.68-.64,1.81,1.81,0,0,1-.27-.73c0-.24-.05-.39-.05-.45V187.83l-22.63,41.76a2.18,2.18,0,0,1-2.09,1.18h-17.9a2.55,2.55,0,0,1-1.68-.55,1.84,1.84,0,0,1-.69-1.54Zm76.8-48.72a2.46,2.46,0,0,1,.5-1.36,2,2,0,0,1,1.77-.73h50.45a5,5,0,0,0,4.18-1.85A7.28,7.28,0,0,0,420,171.1a7.4,7.4,0,0,0-1.5-4.65,5,5,0,0,0-4.13-1.94H363.88a2.62,2.62,0,0,1-1.54-.5,1.68,1.68,0,0,1-.73-1.5V146.7a1.67,1.67,0,0,1,.91-1.64,3.64,3.64,0,0,1,1.55-.45h49.71a25.32,25.32,0,0,1,10.63,2.23,27.93,27.93,0,0,1,8.55,5.95,27.12,27.12,0,0,1,5.68,8.77,28,28,0,0,1,2,10.59,29.25,29.25,0,0,1-.95,7.18,25.55,25.55,0,0,1-3,7,25,25,0,0,1-5.14,5.95,18.77,18.77,0,0,1-7.45,3.82,30.38,30.38,0,0,1-6.41,1.23c-2.33.21-4.47.32-6.4.32H382.06v30.9a2.32,2.32,0,0,1-.59,1.45,2.23,2.23,0,0,1-1.86.73H364.07a2.67,2.67,0,0,1-1.73-.59,2,2,0,0,1-.73-1.6Z" transform="translate(-21.07 -25.74)"/>
  <g>
    <path class="cls-1" d="M379.34,78.63a52.89,52.89,0,1,1,52.89,52.89A52.89,52.89,0,0,1,379.34,78.63Z" transform="translate(-21.07 -25.74)"/>
    <path class="cls-2" d="M419.56,128A52.89,52.89,0,0,0,439.18,26a52.89,52.89,0,1,1-26.57,101.54A53.14,53.14,0,0,0,419.56,128Z" transform="translate(-21.07 -25.74)"/>
    <path d="M464,108.7c3.43,1.62,8.65-2.19,11.63-8.52s2.63-12.77-.81-14.4S466.15,88,463.16,94.3,460.54,107.07,464,108.7Z" transform="translate(-21.07 -25.74)"/>
    <path d="M383.57,67.07a39,39,0,1,1,39,39A39,39,0,0,1,383.57,67.07Z" transform="translate(-21.07 -25.74)"/>
    <path class="cls-3" d="M407.64,42c2.9-5.32,9.27-7.45,14.24-4.74s6.65,9.21,3.75,14.53-9.28,7.45-14.24,4.74S404.74,47.35,407.64,42Z" transform="translate(-21.07 -25.74)"/>
    <path class="cls-3" d="M394.3,50.45a4.36,4.36,0,1,1,1.59,6.17A4.52,4.52,0,0,1,394.3,50.45Z" transform="translate(-21.07 -25.74)"/>
  </g>
</svg>
