<?xml version="1.0" encoding="UTF-8"?>
<!-- Generator: Adobe Illustrator 21.0.0, SVG Export Plug-In . SVG Version: 6.00 Build 0)  -->
<svg version="1.1" id="Calque_1" xmlns="http://www.w3.org/2000/svg" xmlns:xlink="http://www.w3.org/1999/xlink" x="0px" y="0px" viewBox="0 0 584 587" style="enable-background:new 0 0 584 387;" xml:space="preserve">
<style type="text/css">
	.st0{fill:none;}
	.st1{fill:#EBC179;}
	.st2{fill:#E2AC59;}
	.st3{fill:#FFFFFF;}
</style>
<path class="st0" d="M0,0"/>
<path class="st0" d="M0,0"/>
<path class="st0" d="M0,0"/>
<path class="st0" d="M0,0"/>
<path class="st0" d="M0,0"/>
<g transform="translate(-200.000000,800.000000) scale(0.100000,-0.100000)" fill="#F5E132" stroke="none">
<path d="M4565 7600 c-268 -41 -459 -101 -700 -220 -269 -133 -466 -272 -684 -484 -221 -217 -387 -446 -521 -721 -167 -341 -225 -557 -264 -985 -37 -393 30 -795 200 -1208 151 -366 402 -708 719 -980 172 -148 555 -392 555 -353 0 4 -41 59 -91 122 -322 405 -494 804 -576 1339 -25 164 -25 606 0 773 74 488 246 905 516 1246 99 127 286 300 414 385 270 180 547 267 857 269 228 1 389 -26 626 -104 l122 -41 109 35 c89 29 434 107 472 107 26 0 7 -17 -52 -48 -168 -87 -330 -273 -401 -463 -44 -118 -59 -218 -53 -358 6 -152 28 -237 97 -376 118 -236 311 -391 577 -462 84 -23 118 -26 243 -26 129 0 155 3 235 27 275 82 498 257 615 483 34 67 15 70 -51 9 -113 -105 -215 -161 -358 -197 -122 -31 -312 -24 -426 15 -265 90 -448 295 -520 581 -33 128 -31 263 4 298 11 11 12 6 30 -112 43 -283 354 -483 653 -420 122 26 278 121 343 209 59 81 78 141 78 245 -1 190 -99 370 -325 593 -274 270 -584 456 -1081 646 -428 164 -975 235 -1362 176z"/>
<path d="M5149 6508 c-59 -33 -86 -96 -81 -180 3 -41 77 -114 125 -123 120 -23 227 86 196 200 -29 105 -148 157 -240 103z"/>
<path d="M7528 4429 c-120 -185 -238 -331 -392 -484 -475 -473 -1087 -787 -1684 -865 -124 -17 -420 -14 -546 5 -477 71 -873 312 -1178 716 -36 47 -73 100 -84 117 -10 18 -22 32 -28 32 -23 0 36 -277 100 -463 254 -738 894 -1154 1692 -1098 916 65 1763 743 2087 1672 43 125 127 453 123 482 -2 15 -28 -18 -90 -114z"/>
</g>
</svg>