<svg viewBox="0 0 44 46" class="sc-bdfBQB fTjubl mobile-icon" color="text" width="20" xmlns="http://www.w3.org/2000/svg"><defs><path d="M9.54 1.458C3.743-.957.592.423.086 5.598c-.76 7.761 3.618 11.95 9.94 11.95 6.323 0 9.922-8.283 7.763-14.045C16.35-.34 13.6-1.021 9.54 1.458Z" id="a"/><path d="M9.992 1.525C3.921-1.001.62.443.09 5.856-.706 13.977 3.88 18.361 10.5 18.361c6.623 0 10.392-8.667 8.131-14.696-1.507-4.02-4.387-4.733-8.64-2.14Z" id="c"/></defs><g fill="none" fill-rule="evenodd"><path d="M9.478 28.583a74.95 74.95 0 0 1-.425-2.174C6.755 12.119 11.765 3.523 25.054 1" stroke="#25030A" stroke-width="1.868" stroke-linecap="round"/><path d="M25.054 1c-7.4 8.464-7.209 17.34.573 26.632" stroke="#25030A" stroke-width="1.868" stroke-linecap="round"/><g transform="translate(2.396 24.616)"><mask id="b" fill="#fff"><use href="#a"/></mask><use fill="#E55268" href="#a"/><path d="M.785 10.789c6.68 2.73 12.678 1.142 17.996-4.761 1.46 6.38-1.75 11.426-9.24 12.092-4.994.445-7.913-2-8.756-7.331Z" fill="#DA374F" mask="url(#b)"/></g><path d="M13.899 27.971c-4.171-3.523-7.554-4.08-10.148-1.671-3.891 3.614-1.362 15.979 8.6 15.837 7.84-.855 8.712-9.222 8.712-11.504 0-2.281-2.13-9.032-9.39-4.468" stroke="#25030A" stroke-width="1.479" stroke-linecap="round"/><path d="M7.934 26.532c-2.27-.283-3.535.876-3.794 3.476 1.654-1.903 2.53-2.715 5.447-2.906-.194-.126-.745-.317-1.653-.57Z" fill="#FFEAED"/><g transform="rotate(-15 108.005 -53.252)"><mask id="d" fill="#fff"><use href="#c"/></mask><use fill="#E55268" href="#c"/><path d="M.837 11.325c6.98 2.831 13.265 1.146 18.855-5.056 1.501 6.673-1.88 11.97-9.722 12.697-5.228.485-8.273-2.062-9.133-7.641Z" fill="#DA374F" mask="url(#d)" transform="rotate(10 10.438 12.647)"/></g><path d="M30.091 26.397c-4.923-2.2-8.367-1.931-10.33.808-2.946 4.11 2.564 17.052 12.598 13.951 7.739-3.002 6.356-11.707 5.737-14.016-.619-2.31-4.615-8.561-10.758-1.965" stroke="#25030A" stroke-width="1.63" stroke-linecap="round"/><path d="M23.874 26.975c-1.96.056-2.87 1.212-2.73 3.468 1.136-1.843 1.765-2.652 4.209-3.197-.182-.083-.675-.173-1.479-.271Z" fill="#FFEAED"/><path d="M22.767 4.37s-2.261 12.388 11.098 10.273C34.687 2.256 22.767 4.371 22.767 4.371Z" stroke="#25030A" stroke-width="1.556" fill="#39B465"/><path d="M23.011 4.805c2.904 1.548 4.784 3.387 5.642 5.516" stroke="#25030A" stroke-width="1.245" stroke-linecap="round"/></g></svg>