<?xml version="1.0" encoding="utf-8"?>
<!-- Generator: Adobe Illustrator 24.0.1, SVG Export Plug-In . SVG Version: 6.00 Build 0)  -->
<svg version="1.1" id="Слой_1" xmlns="http://www.w3.org/2000/svg" xmlns:xlink="http://www.w3.org/1999/xlink" x="0px" y="0px"
	 viewBox="0 0 800 800" style="enable-background:new 0 0 800 800;" xml:space="preserve">
<style type="text/css">
	.st0{fill:#161612;}
	.st1{fill:none;}
	.st2{fill:#ffaf1d;}
</style>
<g>
	<circle class="st0" cx="399.84" cy="399.84" r="398.16"/>
	<polygon class="st1" points="436.65,408.78 495.39,408.78 495.39,408.3 435.22,408.3 435.22,458.22 364.46,458.22 364.46,408.3
		304.29,408.3 304.29,476.05 364.46,476.05 435.22,476.05 495.39,476.05 495.39,457.21 436.65,457.21 	"/>
	<polygon class="st2" points="566.15,305.5 566.15,215.37 495.39,215.37 495.39,215.37 435.22,215.37 435.22,215.37 435.22,215.37
		435.22,119.07 448.06,119.07 448.06,99.92 351.63,99.92 351.63,119.07 364.46,119.07 364.46,215.37 364.46,215.37 304.3,215.37
		304.3,215.37 233.54,215.37 233.54,215.37 233.54,286.12 233.54,305.5 304.3,305.5 304.3,286.12 364.46,286.12 364.46,337.55
		304.3,337.55 233.54,337.55 233.54,408.3 233.54,476.05 233.54,546.81 233.54,546.99 364.47,546.99 364.47,702.86 399.84,734.2
		435.22,702.86 435.22,546.99 566.15,546.99 566.15,454.44 495.39,454.44 495.39,476.05 435.22,476.05 364.46,476.05 304.3,476.05
		304.3,408.3 364.46,408.3 364.46,458.22 435.22,458.22 435.22,408.3 495.39,408.3 495.39,408.78 566.15,408.78 566.15,337.55
		566.14,337.55 495.39,337.55 435.22,337.55 435.22,286.12 495.39,286.12 495.39,305.5 	"/>
</g>
</svg>
