<svg width="290" height="290" viewBox="0 0 290 290" fill="none" xmlns="http://www.w3.org/2000/svg">
<path d="M87 29V0H203V29H232V58H261V87H290V203H261V232H232V261H203V290H87V261H58V232H29V203H0V87H29V58H58V29H87Z" fill="#FCC601"/>
<path d="M58 58H87V87H58V58Z" fill="#FFF15D"/>
<path d="M203 58H232V87H203V58Z" fill="#FFF15D"/>
<rect x="87" y="87" width="116" height="116" fill="#F8A700"/>
<path d="M58 203H87V232H58V203Z" fill="#C87B00"/>
<path d="M203 203H232V232H203V203Z" fill="#C87B00"/>
<path d="M87 29H232V58H87V29Z" fill="#F8A700"/>
<path d="M232 58H261V203H232V58Z" fill="#F8A700"/>
<path d="M29 87H58V232H29V87Z" fill="#F8A700"/>
<path d="M58 232H203V261H58V232Z" fill="#F8A700"/>
<path d="M261 87H290V203H261V87Z" fill="#E88F00"/>
<path d="M232 203H261V232H232V203Z" fill="#E88F00"/>
<path d="M203 232H232V261H203V232Z" fill="#E88F00"/>
<path d="M87 261H203V290H87V261Z" fill="#E88F00"/>
<path d="M51.4502 197.45H137.717V93.0801H102.187V177.321H86.9803V155.255H51.4502V197.45Z" fill="black"/>
<path d="M137.628 93.0801H101.772V197.45H137.628V155.255H150.815V177.321H177.337V155.255H190.524V197.45H226.38V93.0801H190.524V113.209H177.337V135.126H150.815V113.209H137.628V93.0801Z" fill="black"/>
</svg>
