<svg viewBox="0 0 38 41" fill="none" xmlns="http://www.w3.org/2000/svg" class="sc-bdnxRM OCaiv mobile-icon" color="text" width="20"><svg width="36" height="40" viewBox="0 0 36 40" xmlns="http://www.w3.org/2000/svg"><path d="M15.6 38.778c-.802 0-1.167.11-2.041.219-1.75.219-1.385-.73-1.677-1.898-.292-1.168-.656-1.387-1.968-2.264-1.312-.876-2.697-2.117-3.135-2.628-.437-.511-1.385-1.022-2.113-1.168-.73-.146-2.041-1.898-2.77-3.286-.73-1.387-1.677-3.796-1.823-6.205-.134-2.217.219-5.914 1.823-9.127C3.499 9.21 6.998 6.8 8.529 6.361c1.53-.437 1.822-.656 3.572-1.752 1.749-1.095 4.009-.803 5.466-.219 1.458.584 1.24.438 2.843.22 1.604-.22 2.041.802 2.479.802.437 0 2.353-3.096 3.665-4.702 1.312-1.606 1.578-.011 1.505.573-.073.584-1.672 6.977-1.89 7.634-.219.657 1.895.73 2.77 1.022.875.292.875 1.46.947 1.825.073.365 1.677.365 2.77.657 1.094.293 3.135 1.023 3.208 3.213.072 2.19-.875 3.942-1.677 6.279-.802 2.336 0 5.695-.437 6.717-.438 1.022-2.041 4.161-4.155 5.256-2.114 1.095-4.665 1.022-5.321 1.168-.656.146-2.418 2.089-4.155 2.92-1.677.804-3.897.804-4.52.804Z" fill="url(#a)"/><g opacity=".3" fill="#000"><path d="M29.635 26.208c-.115-.688-1.266-1.719-1.433-1.934-.645-.644.286-.659 1.433-.43.716.144 1.59.43 1.862 1.791.115.573 0 1.79-1.146 1.934-1.146.143-.573-.501-.716-1.36ZM33.562 16.216c.184-.219.74-.251.995-.24.568.102.063 2.433-.336 2.52-.399.085-.888-.278-.974-.677-.086-.399.085-1.328.315-1.602ZM31.253 15.963c.733.017 1.283.327 1.465.48.178.29.182.899.125 1.412-.056.513-2.067.183-3.094.63-1.027.446-2.03 1.754-2.414 1.432-.384-.322-.326-1.394-.174-1.966.153-.572.1-1.177-.29-.99l-.013.006c-.391.187-1.015.487-1.45.123-.438-.367-1.285-.75-1.273-.04.012.71-1.132 2.133-1.914 3.065-.78.933-.527.352.05-1.731.578-2.084-.027-3.757-.469-3.007-.442.75-.58 1.474-.818 1.088-.238-.385.152-2.3.635-3.155s-.117-.751-.661-1.16c-.545-.41.51-.554 1.702-.862 1.192-.309 5.145.154 5.433.535.287.381.396 1.032.107 1.21-.29.178-.185.778.213.692.4-.086 1.802-.311 3.477.252 1.676.563 1.813.957 1.093.868-.719-.089-3.112.428-3.497.665-.386.238-.474.957-.122.925.353-.03.973-.492 1.89-.471Z"/><path d="M25.096 25.043c.182-2.536.66-3.648.876-3.888.109-.162.917-.538.498 2.191-.419 2.73.371 5.912.603 6.805.231.894 2.335.556 3.536.348 1.201-.208.709.547.02 1.37-.69.823-2.979 1.94-3.533 1.989-.555.049.938-1.455 1.095-1.977.157-.521-.706.063-1.95.935-1.244.872-1.596.903-.84-1.45.758-2.353-.532-3.153-.305-6.323ZM15.695 13.856c.81-.766 2.23-.915 2.84-.893.41-.008.14 1.44-.16 1.584-.3.143-.91-.458-1.048.503-.137.96.779.662.834.777.055.114-.234 1.43-.422 1.71-.188.278-.877.09-1.73-.536s-1.327-2.188-.314-3.145ZM26.372 3.784l-3.973 5.448c-.198.275-.322.627.52.962.673.268 1.484.185 1.59 0C25.727 6.22 26.372 4.787 26.587 4c.076-.282-.072-.358-.215-.215ZM25.396 14.271c-.491-.397-1.65-.63-2.168-.698.245-.798 2.81-.35 3.298-.254.487.097.326.468.1 1.074-.226.607-.617.374-1.23-.122Z"/><path d="M27.59 28.995c0-.859.35-1.57.755-2.142.371-.573.358-.21.358 1.002 0 1.27.32 1.427.964 1.427.502 0 1.218-.143 1.72-.645.214-.215.612-1.211.827-1.14.215.072-.183 1.57-.613 2-.43.43-1.576.501-2.579.573-1.003.072-1.432 0-1.432-1.075ZM32.726 21.432c-.194.146-.142-.189-.092-.375.794-2.058-.511-1.517-1.473-1.363-.962.155-1.585 2.02-1.948 2.548s-.084-.952.146-2.077c.23-1.125 1.83-1.19 2.64-1.294.81-.103 1.733.026 1.705.745-.029.72-.735 1.633-.978 1.816ZM19.772 19.41c.636-.432.647.154.573.502-.717 4.359 3.227 7.372 3.658 7.893.431.52-2.495-.823-4.238-3.047-1.743-2.223-.788-4.808.007-5.348ZM20.21 10.588c-.343 0-1.002-.62-1.289-.93-2.794-3.152-4.8-2.937-5.516-2.866-.717.072-.932.072-.717-.143.215-.215 1.863-1.003 3.224-.788 1.361.215 2.436.788 3.224 2.077.788 1.29 1.075 1.433 1.218 1.29.143-.144-.072-1.003-.143-1.791-.072-.788.716-.788.86-.788.142 0 1.289.215.716 1.862-.573 1.648-1.147 2.077-1.576 2.077ZM10.682 8.296c3.325-.4 6.066 1.122 7.021 1.934.86.716-.573 1.003-2.794 0-2.22-1.003-4.083-.215-4.871.143-.788.359.358.215 1.934.287 1.576.072 2.65 1.29 2.866 1.79.214.502-.43-.071-2.723-.5-2.292-.43-3.653.214-4.585.644-.931.43.788.143 1.934.071 1.147-.071 3.01.072-1.504 1.576-4.513 1.504-5.588 5.658-6.018 6.876-.43 1.217-.43.072.287-3.653.716-3.724 4.298-8.666 8.453-9.168Z"/><path d="M11.757 14.814c.459 0 .191.43 0 .645-6.018 8.738 0 18.264.287 19.052.286.787-4.37-2.22-5.66-5.516-1.29-3.294-.215-6.088-.215-6.374 0-.287-.573.287-1.218 1.719-.638 1.417-.434 3.045-.291 4.19l.005.036c.143 1.146-.287.573-.502.071-.215-.501-2.077-3.939.215-8.81 2.293-4.87 6.806-5.013 7.379-5.013Z"/><path d="M12.975 17.178c.344-.516.286.119.215.501-.358 2.435-.502 5.085 2.507 10.529 3.01 5.443.144 8.308-.645 8.881-.788.573-1.862 1.647-1.146 0 .717-1.647.788-4.011-2.149-9.454-2.937-5.444.788-9.813 1.218-10.457Z"/><path d="M15.482 23.266c-.4-2.464 1.266-3.749 2.15-4.083.214 0 .573-.645 0 1.504-.574 2.149.143 4.083 1.146 5.372 1.003 1.29 5.086 3.94 4.441 6.732-.644 2.794-3.08 4.012-4.298 4.656-1.218.645-1.934.931-.287-.645 1.648-1.575 2.866-4.583.788-7.448-2.077-2.865-3.438-3.009-3.94-6.088Z"/></g><path d="M29.635 25.492c-.115-.688-1.266-1.72-1.433-1.934-.645-.645.286-.659 1.433-.43.716.143 1.59.43 1.862 1.79.115.574 0 1.791-1.146 1.935-1.146.143-.573-.502-.716-1.361Z" fill="#EA1E62"/><path d="M33.562 15.5c.184-.22.74-.252.995-.24.568.102.063 2.433-.336 2.519-.399.086-.888-.277-.974-.676-.087-.399.085-1.329.315-1.603ZM31.253 15.247c.733.017 1.282.327 1.465.48.178.29.181.899.125 1.412-.056.513-2.067.183-3.094.629-1.028.447-2.03 1.754-2.414 1.433-.384-.322-.326-1.394-.174-1.966.153-.572.1-1.177-.29-.99l-.014.006c-.39.187-1.014.486-1.449.123-.439-.368-1.285-.75-1.273-.04.012.71-1.133 2.132-1.914 3.065-.781.933-.528.351.05-1.732.578-2.083-.027-3.757-.47-3.006-.44.75-.58 1.473-.817 1.088-.238-.385.152-2.3.635-3.155.483-.856-.117-.752-.662-1.16-.544-.41.51-.554 1.702-.862 1.192-.31 5.146.154 5.433.535.288.381.396 1.032.107 1.21-.289.178-.185.778.214.692.399-.086 1.802-.312 3.477.251 1.676.563 1.813.958 1.093.869-.719-.089-3.112.428-3.497.665-.386.237-.475.956-.122.925.353-.031.973-.492 1.89-.472ZM25.096 24.327c.182-2.536.66-3.649.875-3.888.11-.162.918-.538.5 2.191-.42 2.73.37 5.911.601 6.805.232.894 2.336.556 3.537.348 1.2-.208.709.547.02 1.37-.69.823-2.979 1.94-3.534 1.989-.554.049.939-1.455 1.096-1.977.157-.522-.706.063-1.95.935-1.244.872-1.597.903-.84-1.45.758-2.353-.533-3.154-.305-6.323ZM15.695 13.14c.81-.767 2.23-.915 2.84-.893.41-.008.139 1.44-.16 1.583-.3.144-.91-.457-1.048.503-.137.96.779.663.834.777.055.115-.234 1.431-.422 1.71-.188.279-.877.091-1.73-.535-.854-.626-1.328-2.188-.314-3.146ZM26.87 1.641 22.4 8.516c-.199.275-.324.627.518.962.674.268 1.485.185 1.59 0 1.219-3.975 2.332-6.762 2.547-7.55.077-.282-.041-.43-.185-.287Z" fill="#fff"/><path d="M25.396 13.555c-.491-.397-1.65-.631-2.168-.698.245-.798 2.81-.35 3.298-.254.487.097.326.468.1 1.074-.226.607-.617.374-1.23-.122Z" fill="#0D0308"/><path d="M27.59 28.28c0-.86.35-1.57.755-2.143.371-.573.358-.21.358 1.002 0 1.27.32 1.427.964 1.427.501 0 1.218-.143 1.72-.645.214-.215.612-1.212.827-1.14.215.072-.183 1.57-.613 2-.43.43-1.576.501-2.579.573-1.003.071-1.433 0-1.433-1.075ZM32.726 20.716c-.194.146-.142-.19-.092-.375.794-2.058-.511-1.518-1.473-1.363-.962.155-1.585 2.02-1.948 2.548s-.084-.952.146-2.077c.23-1.125 1.83-1.19 2.64-1.294.81-.104 1.733.025 1.705.745-.029.719-.735 1.633-.978 1.816Z" fill="#fff"/><path d="M19.772 18.694c.636-.432.647.154.573.501-.717 4.36 3.227 7.373 3.658 7.894.431.52-2.495-.823-4.238-3.047-1.743-2.224-.788-4.808.007-5.348Z" fill="#FFC108"/><path d="M20.21 9.872c-.344 0-1.003-.62-1.29-.931-2.793-3.151-4.799-2.937-5.515-2.865-.717.072-.932.072-.717-.143.215-.215 1.863-1.003 3.224-.788 1.361.215 2.436.788 3.224 2.077.788 1.29 1.074 1.432 1.218 1.29.143-.144-.072-1.004-.144-1.791-.071-.788.717-.788.86-.788.143 0 1.29.215.716 1.862-.573 1.647-1.146 2.077-1.576 2.077Z" fill="#EA1E62"/><path d="M10.682 7.58c3.325-.401 6.066 1.122 7.021 1.934.86.716-.573 1.003-2.794 0-2.22-1.003-4.083-.215-4.871.143-.788.358.358.215 1.934.287 1.576.071 2.65 1.289 2.866 1.79.214.502-.43-.072-2.723-.501-2.292-.43-3.653.215-4.585.644-.931.43.788.144 1.934.072 1.147-.072 3.01.072-1.504 1.576-4.513 1.504-5.588 5.658-6.018 6.876-.43 1.217-.43.071.287-3.653.716-3.725 4.298-8.667 8.453-9.168Z" fill="#9B28B0"/><path d="M11.757 14.098c.458 0 .191.43 0 .644-6.018 8.739 0 18.265.287 19.052.286.788-4.37-2.22-5.66-5.515-1.29-3.294-.215-6.088-.215-6.374 0-.287-.573.286-1.218 1.719-.638 1.417-.434 3.045-.291 4.19l.005.036c.143 1.146-.287.573-.502.071-.215-.501-2.078-3.939.215-8.81 2.292-4.87 6.806-5.013 7.379-5.013Z" fill="#3F51B5"/><path d="M12.975 16.461c.344-.515.286.12.215.502-.359 2.435-.502 5.085 2.507 10.528 3.009 5.444.143 8.309-.645 8.882-.788.573-1.862 1.647-1.146 0 .716-1.648.788-4.011-2.15-9.455-2.936-5.443.789-9.812 1.219-10.457Z" fill="#03A9F4"/><path d="M15.482 22.55c-.401-2.464 1.266-3.749 2.15-4.083.214 0 .572-.645 0 1.504-.574 2.149.143 4.082 1.146 5.372 1.003 1.289 5.086 3.939 4.441 6.732-.644 2.794-3.08 4.011-4.298 4.656-1.218.645-1.934.931-.287-.645 1.648-1.575 2.866-4.584.788-7.449-2.077-2.864-3.438-3.008-3.94-6.088Z" fill="#8BC44A"/><defs><linearGradient id="a" x1="17.957" y1="1.265" x2="17.957" y2="39.029" gradientUnits="userSpaceOnUse"><stop stop-color="#101216"/><stop offset="1" stop-color="#0E1014"/></linearGradient></defs></svg></svg>