<svg width="58" height="66" viewBox="0 0 58 66" fill="none" xmlns="http://www.w3.org/2000/svg">
<path d="M29.0501 63.4898C20.3227 63.4898 13.1929 61.3542 8.4594 57.3261C4.21405 53.7171 1.93606 48.7159 1.83252 42.8226C1.98044 42.8361 2.15795 42.8631 2.32066 42.8902C2.48337 42.9172 2.64609 42.9442 2.77922 42.9577C2.79401 42.9577 2.82359 42.9577 2.83839 42.9577C3.07506 42.9577 3.29694 42.8631 3.43007 42.6874C3.57799 42.4982 3.62237 42.2549 3.51882 42.0386C2.20232 39.0108 1.72897 32.8607 3.0011 29.7923C3.13423 29.8329 3.3709 29.9005 3.72591 30.0491C3.82946 30.0897 3.933 30.1167 4.03655 30.1167C4.18447 30.1167 4.33239 30.0762 4.46552 29.9951C4.6874 29.8599 4.80574 29.6166 4.77616 29.3868C4.77616 29.3463 4.40635 24.9127 7.98605 20.8307C8.0896 20.8982 8.22273 20.9658 8.32627 21.0199C8.57774 21.1686 8.8292 21.3173 9.09546 21.4389C9.19901 21.4795 9.30255 21.5065 9.4061 21.5065C9.53923 21.5065 9.65756 21.4795 9.7759 21.4119C9.98299 21.3037 10.1161 21.101 10.1457 20.8847C10.5007 17.3568 12.5124 14.5724 14.6869 12.0988C14.8052 12.1528 14.9384 12.2339 15.0715 12.315C15.2638 12.4367 15.5005 12.5583 15.7519 12.6935C15.8703 12.7476 15.9886 12.7746 16.1217 12.7746C16.2105 12.7746 16.2992 12.7611 16.388 12.7341C16.5951 12.653 16.7578 12.5043 16.817 12.315C17.2755 11.0174 19.6571 7.39492 24.1391 4.47528C24.2426 4.52934 24.4053 4.62396 24.5385 4.70506C24.7308 4.8132 24.9378 4.94837 25.1893 5.07002C25.3077 5.1376 25.4408 5.16464 25.5887 5.16464C25.7958 5.16464 26.0029 5.08353 26.1508 4.94837C27.0383 4.13736 27.8667 3.47503 29.0205 2.59644C29.9672 3.28579 31.4612 4.56989 31.9345 4.96188C32.0825 5.08353 32.2748 5.16464 32.4818 5.16464C32.615 5.16464 32.7629 5.1376 32.8812 5.07002C33.1327 4.93485 33.3546 4.8132 33.5321 4.70506C33.6652 4.62396 33.8279 4.52934 33.9315 4.47528C38.4135 7.39492 40.795 11.0039 41.2536 12.315C41.3275 12.5043 41.4755 12.6665 41.6826 12.7341C41.7713 12.7611 41.8601 12.7746 41.9488 12.7746C42.0672 12.7746 42.2003 12.7476 42.3186 12.6935C42.5849 12.5583 42.8068 12.4232 42.9991 12.315C43.1174 12.2475 43.2653 12.1664 43.3689 12.0988C45.5433 14.5724 47.555 17.3568 47.91 20.8847C47.9248 21.101 48.0728 21.3037 48.2799 21.4119C48.3982 21.466 48.5165 21.5065 48.6497 21.5065C48.7532 21.5065 48.8715 21.4795 48.9603 21.4389C49.2118 21.3308 49.478 21.1686 49.7295 21.0199C49.833 20.9658 49.9514 20.8847 50.0697 20.8307C53.6346 24.9127 53.2796 29.3328 53.2796 29.3868C53.2648 29.6301 53.3831 29.8599 53.5902 29.9951C53.7234 30.0762 53.8713 30.1167 54.0192 30.1167C54.1227 30.1167 54.2263 30.0897 54.3298 30.0491C54.6848 29.9005 54.9215 29.8194 55.0547 29.7923C56.3268 32.8471 55.8534 39.0108 54.5369 42.0386C54.4482 42.2549 54.4778 42.4982 54.6257 42.6874C54.7588 42.8631 54.9807 42.9577 55.2174 42.9577C55.2322 42.9577 55.2617 42.9577 55.2765 42.9577C55.4097 42.9442 55.5724 42.9172 55.7351 42.8902C55.8978 42.8631 56.0605 42.8361 56.2232 42.8226C56.1345 48.7294 53.8565 53.7307 49.6555 57.3261C44.9664 61.3542 37.8218 63.4898 29.0501 63.4898Z" fill="#1BE6AD"/>
<path d="M29.0213 63.3359C20.3142 63.3359 13.1835 61.1856 8.396 57.1227C4.0858 53.4686 1.74266 48.4031 1.62695 42.4669C1.62695 42.401 1.65588 42.3482 1.69927 42.3086L2.87084 41.1478C2.92869 41.095 2.95762 41.0027 2.92869 40.9367C1.90176 37.652 1.62695 32.5073 2.81298 29.5656C2.82745 29.5129 2.87084 29.4733 2.92869 29.4469L4.31722 28.7478C4.38953 28.7082 4.44739 28.6422 4.44739 28.5631C4.54864 26.9273 5.11272 23.735 7.74513 20.6746C7.78852 20.635 7.84638 20.5954 7.90423 20.5954L9.63989 20.3184C9.65435 20.3316 9.68328 20.3448 9.69774 20.358C10.3197 17.1129 12.2578 14.5141 14.1381 12.3639C14.1815 12.3243 14.2249 12.298 14.2828 12.2848L15.9027 12.0077C15.9606 11.9946 16.0184 12.0077 16.0763 12.0341C16.2064 12.1001 16.3655 12.0605 16.4234 11.9418C17.4359 10.1082 19.7935 7.20604 23.4383 4.83157C23.4817 4.80519 23.5251 4.792 23.5685 4.792L24.8847 4.69966C24.9281 4.69966 24.986 4.69966 25.0149 4.72604C25.1451 4.792 25.2897 4.88434 25.4633 4.97668C25.5066 5.00306 25.55 5.02944 25.6079 5.05583C26.36 4.39625 27.0832 3.81583 28.0089 3.11668C28.0523 3.0771 28.1101 3.06391 28.168 3.06391L29.7735 3.05072C29.8313 3.05072 29.8892 3.06391 29.9326 3.10349C30.6847 3.65753 31.7116 4.51498 32.3625 5.06902C32.4203 5.04264 32.4637 5.00306 32.5216 4.97668C32.6951 4.87115 32.8398 4.792 32.97 4.72604C33.0133 4.69966 33.0567 4.69966 33.1001 4.69966L34.4163 4.792C34.4597 4.792 34.5031 4.80519 34.5465 4.83157C38.1914 7.20604 40.549 10.1082 41.5614 11.9418C41.6338 12.0605 41.7929 12.1001 41.9086 12.0341C41.9664 12.0077 42.0243 11.9946 42.0821 12.0077L43.7021 12.2848C43.7599 12.298 43.8178 12.3243 43.8467 12.3639C45.727 14.5141 47.6652 17.1129 48.2871 20.358C48.3016 20.3448 48.3305 20.3316 48.345 20.3184L50.0806 20.5954C50.1385 20.6086 50.1963 20.635 50.2397 20.6746C52.8866 23.735 53.4362 26.9141 53.5374 28.5631C53.5374 28.6422 53.5953 28.7082 53.6676 28.7478L55.0561 29.4469C55.114 29.4733 55.1574 29.5129 55.1719 29.5656C56.3579 32.5073 56.0831 37.652 55.0561 40.9367C55.0272 41.0158 55.0561 41.095 55.114 41.1478L56.2856 42.3086C56.329 42.3482 56.3579 42.4141 56.3579 42.4669C56.2422 48.4031 53.9135 53.4686 49.6467 57.1227C44.917 61.1856 37.7719 63.3359 29.0213 63.3359ZM3.85437 44.0235C3.75313 44.0631 3.68081 44.1554 3.68081 44.261C4.11472 48.9967 6.16858 53.0333 9.66881 55.9882C14.0803 59.7346 20.7625 61.7133 29.0213 61.7133C37.3236 61.7133 44.0347 59.7346 48.4173 56.0014C51.8886 53.0465 53.9135 49.0099 54.3474 44.261C54.3619 44.1554 54.2896 44.0631 54.1739 44.0235C53.2192 43.7201 52.4961 42.8231 52.7419 41.649C52.7419 41.6358 52.7564 41.6095 52.7564 41.5963C53.8123 39.4065 54.3474 34.6839 53.7399 31.6499C53.7255 31.5444 53.6242 31.4784 53.5085 31.4652C53.118 31.4388 52.7564 31.3201 52.4237 31.109C51.7873 30.7001 51.4257 30.0141 51.4981 29.3018C51.4981 29.2754 51.715 26.1358 49.5165 22.9303C49.4442 22.838 49.314 22.7984 49.1983 22.838C49.0971 22.8775 48.9958 22.9039 48.8801 22.9435C48.8656 22.9435 48.8512 22.9567 48.8367 22.9567C47.4048 23.1546 46.32 22.2575 46.2188 21.1626C45.944 18.4848 44.5699 16.2686 42.95 14.2767C42.8776 14.1975 42.7619 14.158 42.6462 14.1975C42.1111 14.4086 41.5036 14.4218 40.9684 14.2239C40.3465 13.9997 39.8836 13.5512 39.6811 12.9707C39.4497 12.3243 37.7575 9.31668 33.9101 6.54647C33.8233 6.4937 33.7221 6.48051 33.6208 6.53328C33.5919 6.54647 33.5485 6.57285 33.5196 6.58604C33.1869 6.75753 32.7964 6.84987 32.4059 6.84987C31.8273 6.84987 31.2922 6.652 30.8727 6.29583C30.5979 6.05838 29.8747 5.45157 29.166 4.87115C29.0647 4.792 28.9346 4.792 28.8333 4.87115C28.2548 5.33285 27.7485 5.75498 27.1989 6.25625C26.7795 6.63881 26.2009 6.86306 25.6079 6.86306C25.2174 6.86306 24.8268 6.77072 24.4942 6.59923C24.4508 6.58604 24.4219 6.55966 24.3929 6.54647C24.3062 6.4937 24.1904 6.50689 24.1037 6.55966C20.2563 9.32987 18.5496 12.3375 18.3326 12.9839C18.1301 13.5643 17.6673 14.0129 17.0453 14.2371C16.5102 14.435 15.8882 14.4218 15.3675 14.2107C15.2663 14.1712 15.1361 14.1975 15.0638 14.2899C13.4439 16.2686 12.0698 18.4848 11.795 21.1758C11.6793 22.2575 10.609 23.1546 9.19151 22.9699C9.17704 22.9699 9.16258 22.9699 9.14812 22.9567C9.03241 22.9303 8.9167 22.8907 8.80099 22.838C8.68528 22.7984 8.5551 22.8248 8.48278 22.9303C6.31322 26.0963 6.48678 29.1963 6.50125 29.315C6.5591 30.0141 6.21197 30.7001 5.57556 31.109C5.25736 31.3201 4.8813 31.4388 4.49078 31.4652C4.37507 31.4784 4.28829 31.5444 4.25936 31.6499C3.66635 34.6971 4.20151 39.4197 5.2429 41.5963C5.25736 41.6095 5.25736 41.6358 5.25736 41.649C5.51771 42.8231 4.80898 43.7201 3.85437 44.0235Z" fill="#34C099"/>
<path d="M36.2866 33.5438C38.7157 33.5438 40.6849 31.1445 40.6849 28.1849C40.6849 25.2252 38.7157 22.826 36.2866 22.826C33.8574 22.826 31.8882 25.2252 31.8882 28.1849C31.8882 31.1445 33.8574 33.5438 36.2866 33.5438Z" fill="#11674E"/>
<path d="M21.6254 33.5438C24.0546 33.5438 26.0238 31.1445 26.0238 28.1849C26.0238 25.2252 24.0546 22.826 21.6254 22.826C19.1963 22.826 17.2271 25.2252 17.2271 28.1849C17.2271 31.1445 19.1963 33.5438 21.6254 33.5438Z" fill="#11674E"/>
<path d="M28.9926 65.1119C19.8067 65.1119 12.2627 62.8276 7.18898 58.5157C2.48508 54.5147 0 48.9593 0 42.4441C0 42.4171 0 42.4036 0 42.3766C0.0295843 42.0251 0.20709 41.7142 0.502933 41.498C0.650854 41.4033 0.798776 41.3223 0.961489 41.2817C1.15379 41.2276 1.25733 41.0384 1.21296 40.8627C0.20709 37.2266 0.0443763 31.9551 1.39046 29.0084C1.56797 28.6299 1.83423 28.3731 2.20403 28.2379C2.33716 28.1839 2.48508 28.1568 2.633 28.1433C2.8253 28.1298 2.97322 27.9946 2.98801 27.8189C3.18031 25.886 3.96429 22.5879 6.81918 19.4925C7.21857 19.0735 7.69192 19.033 8.15047 19.1546C8.35756 19.2087 8.57944 19.1006 8.62382 18.8978C9.45218 15.6808 11.4639 13.0585 13.4165 10.8553C13.9638 10.2335 14.659 10.3281 15.2359 10.5579C15.4282 10.639 15.6353 10.5714 15.7388 10.4092C16.9222 8.40873 19.4073 5.47557 23.1349 3.06957C23.9041 2.56945 24.6141 2.8533 25.1614 3.13716C25.3094 3.21826 25.5017 3.19123 25.62 3.09661C26.4336 2.40725 27.2175 1.79899 28.0311 1.19073C28.5636 0.798743 29.3328 0.785226 29.8801 1.1637C30.5606 1.63679 31.5812 2.47483 32.3504 3.12364C32.4688 3.23178 32.6611 3.24529 32.809 3.16419C33.3563 2.86682 34.0811 2.58297 34.8503 3.08309C38.5631 5.48909 41.0482 8.42224 42.2464 10.4092C42.3499 10.5714 42.557 10.639 42.7493 10.5579C43.3262 10.3281 44.0066 10.2335 44.5687 10.8553C47.6455 14.3291 48.8585 16.8703 49.3762 18.8843C49.4206 19.087 49.6424 19.1952 49.8643 19.1411C50.3081 19.0195 50.7962 19.06 51.1808 19.479C54.0505 22.5744 54.8197 25.8725 55.012 27.8054C55.0268 27.9811 55.1747 28.1163 55.367 28.1298C55.5149 28.1433 55.6628 28.1704 55.796 28.2244C56.1658 28.3596 56.4468 28.6164 56.6095 28.9949C57.9556 31.9416 57.7929 37.2131 56.787 40.8492C56.7427 41.0249 56.8462 41.2141 57.0385 41.2682C57.2012 41.3087 57.3491 41.3898 57.4971 41.4845C57.7929 41.7007 57.9704 42.0116 58 42.363C58 42.3901 58 42.4036 58 42.4306C58 48.9593 55.5297 54.5147 50.8702 58.5022C45.7817 62.8276 38.2229 65.1119 28.9926 65.1119ZM2.08569 43.147C2.2632 48.8241 4.49681 53.6496 8.59424 57.137C13.2833 61.1109 20.3244 63.2195 28.9926 63.2195C37.7052 63.2195 44.7758 61.1109 49.4353 57.1234C53.5032 53.6496 55.7368 48.8241 55.8995 43.1335C55.8551 43.147 55.8108 43.147 55.7664 43.1605C55.5889 43.1876 55.4262 43.2146 55.2782 43.2281C54.6866 43.2687 54.1245 42.8361 54.154 42.1738C54.154 42.1333 54.1688 42.0927 54.1836 42.0522C55.441 39.3082 55.9587 33.7123 54.9824 30.5088C54.9232 30.306 54.6718 30.1979 54.4499 30.2925C54.4055 30.306 54.3463 30.3331 54.302 30.3601C54.2576 30.3736 54.2132 30.3871 54.1688 30.4006C53.3996 30.4682 52.9115 29.9275 52.9559 29.3734C52.9559 29.3328 53.2961 25.1426 49.9827 21.2092C49.9531 21.2362 49.9087 21.2497 49.8791 21.2768C49.5685 21.4525 49.2578 21.6417 48.9324 21.7634C48.9028 21.7769 48.8732 21.7769 48.8289 21.7904C48.1632 21.8715 47.6603 21.4525 47.6011 20.9388C47.2609 17.5731 45.3675 14.8698 43.2818 12.4773C43.2374 12.5043 43.1783 12.5314 43.1339 12.5584C42.912 12.6936 42.6458 12.8423 42.3351 12.9909C42.3055 13.0045 42.2759 13.018 42.2464 13.018C41.6399 13.1667 41.1074 12.8558 40.9447 12.3962C40.5157 11.1526 38.2821 7.77344 34.0959 4.94841C33.9628 4.86731 33.7853 4.8538 33.6521 4.9349C33.4746 5.04303 33.2527 5.1782 32.9865 5.31337C32.5723 5.52964 32.0398 5.47557 31.6848 5.1782C31.2854 4.84028 30.1316 3.85355 29.2293 3.15067C29.0814 3.04254 28.8743 3.04254 28.7411 3.15067C27.8092 3.86707 27.0992 4.44829 26.33 5.15117C25.9898 5.47557 25.4425 5.54316 25.0135 5.31337C24.7473 5.1782 24.5254 5.04303 24.3479 4.9349C24.2147 4.8538 24.0372 4.8538 23.9041 4.94841C19.6292 7.84102 17.3956 11.3013 17.0406 12.4773C17.0258 12.5043 17.0258 12.5314 16.9962 12.5584C16.6707 13.0585 16.0347 13.1802 15.5613 12.9369C15.2951 12.8017 15.0732 12.6665 14.8661 12.5449C14.8217 12.5178 14.7626 12.4908 14.7182 12.4638C12.6177 14.8833 10.6947 17.6137 10.3841 21.0335C10.3841 21.0605 10.3693 21.101 10.3545 21.1281C10.103 21.7228 9.43739 21.9121 8.91966 21.6958C8.63861 21.5741 8.37235 21.4119 8.12089 21.2632C8.0913 21.2497 8.04693 21.2227 8.01734 21.1957C4.7039 25.1291 5.04412 29.3193 5.04412 29.3734C5.0885 29.9411 4.58556 30.4817 3.81637 30.4006C3.772 30.4006 3.72762 30.3871 3.69804 30.3736C3.65366 30.3466 3.60928 30.3331 3.56491 30.3195C3.35782 30.2249 3.09156 30.3331 3.03239 30.5358C2.05611 33.7393 2.57383 39.3218 3.81637 42.0657C3.83117 42.0927 3.84596 42.1333 3.84596 42.1738C3.90513 42.8632 3.32823 43.2957 2.72175 43.2552C2.57383 43.2416 2.41112 43.2146 2.23361 43.1876C2.17445 43.1605 2.13007 43.147 2.08569 43.147ZM33.09 3.78597C33.09 3.78597 33.1048 3.78597 33.09 3.78597C33.1048 3.78597 33.09 3.78597 33.09 3.78597Z" fill="#168666"/>
<path d="M38.4297 59.6781C38.2374 59.6781 38.0599 59.5564 38.0007 59.3807C37.9267 59.1644 38.0746 58.9346 38.2965 58.8806C46.1512 56.7854 50.855 52.1221 52.2603 45.0258C52.3047 44.8095 52.5414 44.6608 52.778 44.7014C53.0147 44.7419 53.1774 44.9582 53.133 45.1745C51.6538 52.6087 46.7576 57.4883 38.548 59.6645C38.5184 59.6781 38.474 59.6781 38.4297 59.6781Z" fill="#D7FFF4"/>
<path d="M51.4931 40.9745C51.4488 40.9736 51.4047 40.9592 51.3459 40.9445C51.1109 40.8722 50.9981 40.6401 51.0772 40.4254C51.9583 38.2257 52.2598 35.5142 51.9401 32.7903C51.9157 32.5735 52.0832 32.374 52.3356 32.3385C52.5729 32.3162 52.7912 32.4692 52.83 32.6998C53.1619 35.5322 52.8424 38.3785 51.914 40.699C51.8654 40.8738 51.6854 40.9783 51.4931 40.9745Z" fill="#D7FFF4"/>
<path d="M44.57 21.8805C44.3333 21.876 44.1448 21.7101 44.135 21.4936C44.0441 19.6667 43.2313 17.7041 41.9359 16.1379C41.792 15.9594 41.8275 15.7032 42.0229 15.5717C42.2183 15.4403 42.4987 15.4727 42.6425 15.6513C44.0531 17.3549 44.9216 19.4673 45.0236 21.4567C45.0331 21.6867 44.8513 21.8725 44.5995 21.8811C44.5848 21.8808 44.57 21.8805 44.57 21.8805Z" fill="#D7FFF4"/>
<path d="M38.0458 13.6532C37.8831 13.6532 37.7204 13.5721 37.6464 13.4234C36.182 10.72 33.2088 8.43569 33.1792 8.40866C32.9869 8.25997 32.9721 8.00315 33.12 7.84095C33.2827 7.66523 33.5638 7.65171 33.7413 7.78688C33.8744 7.8815 36.892 10.2064 38.4304 13.0584C38.5339 13.2612 38.4452 13.5045 38.2381 13.5991C38.1789 13.6397 38.105 13.6532 38.0458 13.6532Z" fill="#D7FFF4"/>
<path d="M30.1762 7.88154C30.0726 7.88154 29.9691 7.8545 29.8803 7.78692L28.9632 7.07052L28.8005 7.20569C28.623 7.35438 28.342 7.34086 28.1792 7.16514C28.0165 7.00294 28.0313 6.74612 28.2236 6.59743L28.6822 6.23248C28.8449 6.09731 29.0964 6.09731 29.2591 6.23248L30.472 7.17866C30.6643 7.32734 30.6791 7.58416 30.5164 7.74637C30.4277 7.82747 30.3093 7.88154 30.1762 7.88154Z" fill="#D7FFF4"/>
<path d="M49.7621 30.1859C49.526 30.1714 49.3323 29.9833 49.3492 29.7541C49.5637 26.4481 48.2332 24.3881 48.2195 24.3737C48.0858 24.1758 48.1628 23.9367 48.3646 23.8137C48.5812 23.6916 48.8429 23.7619 48.9775 23.9463C49.0443 24.0453 50.4681 26.2465 50.2357 29.7952C50.2188 30.0244 49.9983 30.2005 49.7621 30.1859Z" fill="#D7FFF4"/>
</svg>