<svg fill="none" height="48" viewBox="0 0 61 48" width="61" xmlns="http://www.w3.org/2000/svg"><g fill="#fff"><path d="m16.2643 47.6605c4.7443-2.4505 10.0827-3.8303 15.7301-3.8303 5.2536 0 10.2416 1.1927 14.7291 3.3319 5.5277-4.6289 9.0598-11.6757 9.0598-19.5691 0-13.9412-11.0141-25.24479-24.5985-25.24479-13.5843 0-24.59844 11.30139-24.59844 25.24479.00218 8.1828 3.79544 15.4538 9.67794 20.0675z"/><path d="m16.297 47.321c.2481-.2655.4178-.4962.5701-.679.0544-.0522.1284-.1088.1937-.1632l.2002-.1654c.1328-.111.2699-.2155.407-.3221.2764-.2089.5571-.4092.8422-.6072.1437-.0979.2895-.1893.4353-.2829s.2916-.1872.4396-.2786c1.1861-.7203 2.4483-1.3231 3.7584-1.8128 2.6224-.9793 5.4342-1.4951 8.2525-1.556 2.8161-.0675 5.6518.3329 8.3112 1.223 1.3297.4462 2.6137 1.0098 3.8215 1.6997.3047.1676.5985.3569.8923.5419.1458.0914.2916.1915.4331.2894.1436.098.2851.1981.4244.3004.2807.2024.5527.4243.8226.6398.2633.2285.5245.4592.7726.7073l-.3722.0479c1.8629-1.7389 3.4472-3.7345 4.7095-5.8978 1.2601-2.1632 2.1915-4.4983 2.753-6.9053.5745-2.4048.7769-4.8836.6376-7.334-.074-1.2253-.2263-2.4418-.4744-3.6388-.1197-.5985-.2699-1.1926-.4374-1.778-.0805-.2938-.1741-.5832-.2634-.8749-.0979-.2894-.1915-.5789-.2981-.864-.4157-1.1447-.9228-2.2568-1.5038-3.3231-.2916-.5332-.6007-1.0577-.9293-1.5691-.3308-.5093-.679-1.0076-1.0468-1.4908-1.4733-1.9303-3.2209-3.65177-5.2013-5.05112-1.976-1.40152-4.1654-2.50272-6.4766-3.21654-2.3068-.7247-4.7312-1.06855-7.1556-1.0272-4.8487.0544-9.6322 1.74319-13.4864 4.68552-1.9304 1.46464-3.6322 3.23394-5.0424 5.21224-.703.9902-1.3319 2.0348-1.8803 3.1207-.2764.5419-.53322 1.0947-.7639 1.6562-.23286.5636-.4505 1.1316-.63766 1.7127-.18933.5789-.36125 1.1643-.51142 1.7563-.14798.5919-.27638 1.1882-.38084 1.791-.10229.6029-.18717 1.2079-.2481 1.8172-.05659.6094-.10229 1.2209-.11752 1.8346-.037 1.2275.02612 2.4571.16104 3.6823.14582 1.2231.3765 2.4374.69859 3.6322l.12405.4483c.04135.1502.08922.296.13493.444.08705.2981.19151.5898.28944.8836.20892.5832.4309 1.1643.68117 1.7345.48962 1.1425 1.08382 2.2459 1.74102 3.3123.6703 1.0576 1.4059 2.0805 2.2285 3.038.4048.4832.8379.9467 1.2818 1.3994l.3374.3351c.1131.111.2307.2177.346.3286l.1719.1633.0653.0631c.0196.0196.0392.0391.0588.0609.0783.0762.1501.1698.2307.2764zm-.0653.679c-.172-.0958-.3504-.2046-.5267-.3243l-.1306-.0914-.0653-.0479-.0565-.0435-.1959-.1501c-.1306-.1002-.2612-.2003-.3874-.3025l-.3808-.3134c-.5028-.4244-.9946-.8618-1.4625-1.3254-.9423-.9227-1.8041-1.9282-2.5919-2.9902-1.56696-2.1327-2.80526-4.5158-3.65183-7.0402-.10882-.3156-.20458-.6333-.30033-.9533-.08923-.3199-.18498-.6398-.26115-.964-.16758-.6464-.29598-1.2993-.41567-1.9565-.22416-1.3167-.34821-2.6507-.3765-3.987-.01306-.6681-.00217-1.3384.03265-2.0087.03917-.6703.10228-1.3362.18716-2.0043.17845-1.3319.44613-2.6551.82916-3.9478.18498-.6485.40478-1.2883.642-1.9195.23503-.6333.49837-1.2557.78564-1.8694.568-1.2296 1.247-2.4091 2-3.5386 1.51247-2.25899 3.39277-4.28293 5.54297-5.98043.5397-.4222 1.0925-.82699 1.6649-1.20784.5723-.37867 1.1621-.73557 1.7627-1.06855.6007-.33514 1.2166-.64418 1.8455-.92709.629-.28292 1.2666-.54843 1.9173-.77911 2.5985-.9358 5.3602-1.425465 8.1241-1.47552 2.7639-.043525 5.5386.36344 8.1697 1.20131 2.629.84875 5.1121 2.12404 7.321 3.74972 4.4244 3.25136 7.7345 7.89121 9.3885 13.03161.2089.642.3982 1.2883.5528 1.9455.1567.6551.2938 1.3145.3982 1.9783.2155 1.3253.333 2.6659.3439 4.0043.0065.6682-.0109 1.3384-.0566 2.0044-.0392.6659-.111 1.3319-.2024 1.9935-.1937 1.321-.4701 2.6289-.8575 3.902-1.5255 5.1012-4.6768 9.6801-8.8726 12.8335l-.0893.0675-.2829-.0196c-.3482-.0261-.6833-.074-1.0185-.1153l-.5005-.0631c-.1654-.0218-.3286-.0501-.494-.0675l-1.9435-.2525c-1.2796-.161-2.5331-.3068-3.7758-.42-2.4831-.2307-4.9227-.3482-7.3711-.3286-2.4483.0218-4.8901.1959-7.371.5071-1.2405.1545-2.4918.3417-3.7628.5571-.3156.0588-.6376.111-.9576.1654-.3177.0609-.6441.1153-.9706.1697-.3242.0653-.6463.1176-.988.1785-.4331.1023-.8509.1654-1.1904.1937z"/><path d="m55.1197 25.8041s.4613-.9619 1.4689-1.3536c0 0 2.7922 4.3482 2.8923 4.4722.098.1241-.2981 2.9946-.4962 3.7432-.198.7487-.5941 3.1186-.5941 3.2449 0 .1262-.8923 4.7421-.9902 5.2404-.1001.4984-1.6844 2.4962-1.6844 2.4962l-1.2884.4984s-.7922-.6246-.7922-1.4973l1.5865-2.1219 1.1905-4.1175s.2981-2.6202.2981-2.7443v-3.4929z"/><path d="m52.5974 27.4385s.2176-.8531 1.2709-1.3689l1.5496 1.3559s.4961 2.3699.4961 2.6202.1981 3.2448.1001 3.6192c-.1001.3743-1.0903 5.865-1.0903 5.865l-.9902 2.2459-1.7845.999s-.5941-.8727-.1981-1.4973c.3961-.6246 1.0904-1.6213 1.0904-1.6213l1.3884-5.4908-.2981-2.8705-.8923-2.9946z"/><path d="m51.1522 29.6561s-.2067-1.5234.888-2.0631l.7986.8314s.8923 3.1186.8923 3.3688c0 .2503-.2981 4.4919-.2981 4.4919s-.5942 2.1218-.6943 2.2459c-.1001.124-.8922 1.9956-.8922 1.9956l-1.4864.999s-.2982-1.2471.198-2.37c.4962-1.123.7922-1.7476.7922-1.7476l.5941-2.7442-.2982-2.8706z"/><path d="m7.97494 30.3874s.74863.407.84874 1.5299c.10011 1.123 0 0 0 0l1.88252 8.9837s.7921 1.3732.4962 2.7443c-.2982 1.3732 0 0 0 0l-1.2884-.2503-1.98259-3.8672-.99238-4.8662.39608-3.6191z"/><path d="m5.79868 29.2122s.79217.0631 1.46247 1.0729l-1.01633 2.1327.29815 3.8673s.89228 4.1175.89228 4.3678 3.05545 3.432 3.05545 3.432-.0457.7203-.85523 1.2644c-.80958.5441 0 0 0 0l-2.4962-1.2035-2.0827-4.2416-1.19042-4.3677.49619-5.2405z"/><path d="m3.26114 28.4788s1.1012.1937 1.29924.6942l-.19804 7.3602 1.38846 5.4907 3.26006 3.6714s-.67464.74-1.42328 1.1535l-2.33515-1.7062-1.98259-3.493-2.08269-5.9891-.10011-3.1186.99238-3.4929z"/><path d="m41.1131 12.5397c0 6.9271-5.1142 12.5397-11.4233 12.5397-6.309 0-11.4233-5.6148-11.4233-12.5397s5.1143-12.5397 11.4233-12.5397c6.3112 0 11.4233 5.6148 11.4233 12.5397z"/><path d="m37.8335 12.4831c0 5.2906-3.9717 9.5778-8.8705 9.5778s-8.8705-4.2872-8.8705-9.5778c0-5.29049 3.9717-9.57777 8.8705-9.57777s8.8705 4.28728 8.8705 9.57777z"/><path d="m21.7922 21.3341s-9.7215 7.9521-7.1687 15.4472c0 0 1.519 3.2883 4.3134.9945 0 0 .9728-1.3775-.9728-3.3645l2.1871-.3068 2.9163-3.5169-5.1034 14.988 10.2067-2.4461 3.889-5.6583.4854 5.8128 8.8705.6115-3.4016-13.7649 2.4309 2.6006 2.1872.4592s-2.1872 1.0707-.9728 3.5169c0 0 4.0109 1.9891 4.8596-3.5169 0 0 0-6.4244-7.4124-13.1534l-2.5527.4592-5.8325 1.9891z"/><path d="m22.0968 23.704-5.8325 8.1045 3.2797.6115 5.1034-4.7399-3.16 14.5288h2.309l10.3287-8.1044-.2438 7.1882 4.6181.1524-3.2818-15.2928 2.0652.4592 4.6181 4.7422 1.4581-1.8346-6.4396-7.7998c.0022-.0022-7.1665 7.7976-14.8226 1.9847z"/><path d="m52.1643 34.4984c-.2394 2.6441-.9467 4.7138-1.58 4.6224s-.9532-2.3069-.7138-4.9511c.2394-2.6441.9467-4.7138 1.58-4.6224s.9532 2.3069.7138 4.9511z"/><path d="m10.8084 36.0566c.6072 2.5484.605 4.8009-.0043 5.0315-.6116.2307-1.59744-1.6474-2.2068-4.1958s-.605-4.8009.00436-5.0316c.61153-.2307 1.59954 1.6475 2.20674 4.1959z"/><path d="m10.5168 38.1893s-1.67569-1.815-.93358-3.7279c0 0 19.69968-6.1001 41.72358-1.6388 0 0 1.0838 2.2372-.5767 3.7911 0-.0022-20.013-4.6442-40.2133 1.5756z"/><path d="m10.4319 38.642-.1284-.1393c-.0761-.0827-1.85633-2.0479-1.01411-4.2242l.06747-.1741.15016-.0457c.05006-.0152 5.03588-1.5429 12.64858-2.5027 7.025-.8857 17.7932-1.4559 29.2056.8575l.1502.0304.0783.1633c.4288.8835.8422 2.9292-.6616 4.3373l-.1153.1066-.1415-.0326c-.05-.0109-5.0772-1.16-12.4983-1.5365-6.8444-.3482-17.1861-.0892-27.5778 3.1099zm-.61149-3.8281c-.3765 1.2666.47229 2.5071.79439 2.9184 10.4113-3.173 20.7464-3.4276 27.5973-3.0794 6.7574.3438 11.5474 1.3253 12.4309 1.5168 1.0381-1.0859.6312-2.5005.4505-2.9749-11.2774-2.259-21.9129-1.6932-28.8618-.8183-6.8161.8596-11.5103 2.1741-12.41129 2.4374z"/><path d="m10.1512 35.2731s.2438 1.593.8531 2.1371c0 0 16.4114-7.1251 39.0599-1.7693 0 0 .5571-1.1708.5266-2.2002 0 0-.2829.4722-.6702.7182 0 0-17.9043-5.0033-38.9097 1.8193 0 0-.6921-.0827-.8597-.7051z"/><path d="m15.0131 37.4102-.2677-2.235 4.2568-.864-1.0968 3.1578z"/><path d="m41.3285 34.8988-.457-1.7127 4.1306.6115-.7291 2.1415z"/><path d="m15.0479 35.1142s1.3993-2.692 3.9499-.8574l-2.0653 1.6822z"/><path d="m41.1131 33.1861s2.9162-1.9892 3.889.4592z"/><path d="m52.876 27.4646c-.3657-.0805-.74.0283-1.1056.2938 1.1991.8749 1.7628 4.0065 1.2688 7.5147-.42 2.9815-1.4842 5.3798-2.6333 6.2154.1458.1067.3003.1785.4614.2155 1.5103.3373 3.1838-2.5767 3.7366-6.5092.5528-3.9326-.2176-7.3929-1.7279-7.7302z"/><path d="m55.0826 25.7954c-.4396-.0979-.8923.0326-1.3319.3547 1.4473 1.0555 2.1263 4.8335 1.53 9.0664-.5071 3.5974-1.7911 6.4897-3.1752 7.4995.1741.1284.3612.2154.5571.2589 1.8215.407 3.8411-3.1099 4.5092-7.8542.6682-4.7442-.2676-8.9183-2.0892-9.3253z"/><path d="m57.914 24.1937c-.5201-.1154-1.0533.0391-1.5734.4178 1.7083 1.2448 2.5114 5.7062 1.8063 10.7029-.5985 4.2481-2.1132 7.6605-3.7497 8.851.2067.1501.4265.2546.6594.3068 2.1501.481 4.5332-3.6714 5.3231-9.2709.79-5.5996-.3155-10.5289-2.4657-11.0076z"/><path d="m6.94988 30.3743c.3482-.1567.73123-.1284 1.12731.0566-1.06637 1.1142-1.20566 4.3221-.25245 7.6757.80958 2.8509 2.17846 4.9902 3.42116 5.5735-.1284.1349-.2721.2394-.4266.309-1.44505.6507-3.47987-1.8716-4.54842-5.6322-1.06855-3.7563-.76388-7.3319.679-7.9826z"/><path d="m4.55375 29.1926c.42002-.1893.88357-.1545 1.36017.0696-1.28618 1.345-1.45593 5.2144-.30467 9.2601.97714 3.4407 2.62676 6.0218 4.12839 6.7247-.15669.1632-.32861.2894-.51577.3721-1.7432.7835-4.20022-2.2568-5.48858-6.7943-1.28835-4.5354-.92274-8.8466.82046-9.6322z"/><path d="m1.81172 28.4461c.47878-.2154 1.00544-.1763 1.54951.0784-1.46464 1.5321-1.65615 5.9369-.34821 10.5462 1.11426 3.9195 2.99238 6.8575 4.70076 7.6583-.17845.185-.37214.3287-.5876.4244-1.98476.8923-4.78128-2.5723-6.250264-7.7367-1.466812-5.1664-1.048966-10.0783.935804-10.9706z"/><path d="m31.6789 9.10988-2.716 2.66592-2.7465-2.80956c-.6703-.68552-1.6256-.69422-2.3046-.02393-1.308 1.28839-2.1175 3.07069-2.1175 5.04459 0 3.926 3.21 7.1099 7.1686 7.1099 3.9587 0 7.1687-3.1839 7.1687-7.1099 0-1.8498-.7117-3.5321-1.8782-4.7965-.7334-.79652-1.8106-.83134-2.5745-.08052z"/><path d="m23.0565 17.0446c-1.0794-3.4842-.7704-5.6409 2.0958-7.89554.1415-.11316.3526.13711.2503.29598-1.6714 2.61156-2.0087 4.34606-2.024 7.62346 0 .2198-.2546.1959-.3221-.0239z"/><path d="m27.42 8.89447 1.3319 1.20133c.1393.124.3265.124.4636-.0044l2.1697-2.00432c.0675-.06094.0022-.19152-.0718-.14364l-2.259 1.50598-1.5495-.75952c-.1001-.0457-.1719.12623-.0849.20457z"/><path d="m50.5234 17.2427c0 1.3297-1.0903 2.4069-2.4331 2.4069s-2.4331-1.0772-2.4331-2.4069 1.0903-2.407 2.4331-2.407 2.4331 1.0773 2.4331 2.407z"/><path d="m47.1023 24.6572c0 .5397-.4418.975-.9859.975s-.9858-.4374-.9858-.975c0-.5375.4417-.9749.9858-.9749s.9859.4352.9859.9749z"/><path d="m42.8933 18.9336c0 .5397-.4417.975-.9858.975s-.9859-.4374-.9859-.975c0-.5375.4418-.975.9859-.975s.9858.4353.9858.975z"/><path d="m16.3232 18.1523c0 1.4016-.8532 2.5376-1.9065 2.5376s-1.9064-1.136-1.9064-2.5376c0-1.4015.8531-2.5375 1.9064-2.5375s1.9065 1.136 1.9065 2.5375z"/><path d="m11.3242 28.8204c0 .5398-.4417.975-.9858.975-.54408 0-.98586-.4374-.98586-.975 0-.5397.44178-.9749.98586-.9749.5441-.0022.9858.4352.9858.9749z"/><path d="m17.1436 47.3624c4.5049-2.3548 9.5778-3.6801 14.9423-3.6801 4.9902 0 9.728 1.1469 13.9913 3.2013 5.2514-4.4461 8.605-11.2144 8.605-18.7965 0-13.3907-10.4613-24.24594-23.3645-24.24594-12.9053 0-23.36451 10.85524-23.36451 24.24594 0 7.8607 3.60611 14.8465 9.19041 19.2753z"/></g><path d="m17.174 47.0381c.2351-.2546.3983-.4766.5419-.6507.0523-.0501.1219-.1045.1828-.1567l.1916-.1589c.1262-.1066.2568-.2067.3852-.309.2611-.2002.5288-.3939.7987-.5833.1349-.0935.2742-.1828.4134-.272.1393-.0892.2786-.1784.4179-.2677 1.1273-.6898 2.3264-1.2709 3.5713-1.741 2.4896-.9401 5.1621-1.4363 7.8389-1.4951 2.6747-.0653 5.3689.3199 7.8956 1.1752 1.2622.4287 2.4831.9684 3.63 1.6322.2894.1611.568.3439.8466.5201.1392.0893.2764.1828.4113.2786.1349.0936.2698.1915.4026.2894.2677.1959.5245.407.7813.6159.2502.2198.4983.4396.7334.679l-.3526.0457c1.7693-1.6692 3.2753-3.5865 4.4723-5.6648 1.1969-2.0784 2.0805-4.3199 2.6159-6.6333.5462-2.3112.7377-4.6899.605-7.0446-.0697-1.1752-.2155-2.3461-.4505-3.4951-.1154-.5746-.2546-1.1448-.4135-1.7084-.0762-.2829-.1654-.5615-.2503-.8401-.0914-.2785-.1806-.5549-.2829-.8291-.3939-1.1012-.8749-2.1676-1.4298-3.1926-.2786-.5114-.5702-1.0142-.8836-1.506-.3134-.4897-.6463-.9684-.9945-1.432-1.3994-1.8542-3.0599-3.5082-4.9424-4.85092-1.8759-1.34712-3.9564-2.40478-6.1523-3.09031-2.1915-.69641-4.494-1.02721-6.7965-.98586-4.605.05223-9.1491 1.67356-12.8096 4.50055-1.8346 1.40804-3.4494 3.10554-4.79 5.00764-.6681.951-1.2644 1.9543-1.7845 2.9967-.2612.5201-.5049 1.0512-.7247 1.5909s-.4266 1.0881-.605 1.6431c-.1785.5571-.3439 1.1186-.48536 1.6866-.13928.568-.26333 1.1425-.36126 1.7214s-.17845 1.16-.23503 1.7454c-.05441.5854-.09576 1.173-.11317 1.7628-.03483 1.1795.02611 2.3612.15452 3.5364.13928 1.173.3569 2.3417.66376 3.4886l.11752.4287c.03922.1437.08492.2851.12842.4266.0827.2851.1806.5658.2742.8487.198.5615.4091 1.1186.6485 1.6649.4657 1.099 1.0294 2.1567 1.654 3.1817.6355 1.0163 1.3362 1.9978 2.1175 2.9184.3852.4657.7944.9097 1.2166 1.3428l.3199.322c.1066.1067.2198.209.3286.3134l.1632.1589.0631.0609c.0196.0196.037.0392.0544.0588.0762.0718.1437.1632.2176.2655zm-.0609.6507c-.1632-.0936-.333-.1959-.5005-.3112l-.1241-.0871-.0609-.0457-.0544-.0413-.185-.1436c-.1241-.098-.2481-.1937-.3678-.2917l-.3613-.3003c-.4766-.407-.9445-.8292-1.3884-1.2731-.8945-.8858-1.7128-1.852-2.4636-2.8705-1.4885-2.0479-2.66591-4.3373-3.46896-6.7617-.10228-.3025-.19369-.6094-.28509-.9141-.0827-.309-.1741-.6159-.24592-.9271-.15887-.6202-.28074-1.2491-.39608-1.8781-.21328-1.2644-.3308-2.5462-.35909-3.8302-.01306-.642-.00218-1.2862.03264-1.9282.037-.642.09794-1.284.17846-1.9238.16975-1.2797.42437-2.5506.78563-3.7933.17628-.6224.38521-1.2361.60937-1.8433.22415-.6072.47442-1.2078.74646-1.7954.53971-1.1796 1.18388-2.3134 1.89988-3.3994 1.4364-2.1697 3.2209-4.11316 5.2644-5.74536.5114-.40479 1.0381-.79434 1.5822-1.15996.5441-.36344 1.1034-.70511 1.6735-1.0272.5702-.32209 1.1556-.61807 1.7519-.89228.5963-.27203 1.2013-.52666 1.8216-.74864 2.4679-.8988 5.0925-1.36887 7.7171-1.41675 2.6246-.04353 5.26.3482 7.7606 1.15342 2.4983.81611 4.8553 2.03918 6.9532 3.60174 4.2002 3.12293 7.3471 7.58003 8.9184 12.51583.198.6158.3765 1.2383.5245 1.8672.1501.6289.2785 1.2622.3786 1.8999.2046 1.2731.3178 2.5615.3265 3.8477.0065.642-.0109 1.284-.0523 1.926-.037.6398-.1066 1.2796-.1915 1.9129-.1828 1.2688-.4461 2.5245-.8161 3.7476-1.4472 4.8988-4.4418 9.297-8.4265 12.3264l-.0849.0653-.2677-.0196c-.3308-.0239-.6485-.0718-.9684-.111l-.4745-.0609c-.1566-.0196-.3112-.0479-.4679-.0653l-1.8454-.2416c-1.2166-.1545-2.407-.296-3.5865-.4048-2.3591-.2219-4.6747-.3351-7.0011-.3155-2.3243.0217-4.6442.1871-7.0011.4853-1.1796.148-2.3678.3286-3.5756.5353-.3004.0566-.605.1067-.9097.1589-.3025.0588-.6116.111-.9206.1632-.309.0632-.6137.1132-.938.172-.4156.1022-.8117.1632-1.136.1893z" fill="#202136"/><path d="m54.0511 26.37s.4374-.9228 1.395-1.3015c0 0 2.6528 4.1763 2.7464 4.296s-.2829 2.8771-.4701 3.5952c-.1893.7182-.5658 2.9968-.5658 3.1165s-.8466 4.5527-.9423 5.0337c-.0936.4788-1.6018 2.3961-1.6018 2.3961l-1.223.4788s-.753-.5985-.753-1.4386l1.506-2.037 1.1294-3.9543s.283-2.5157.283-2.6354v-3.3559z" fill="#fff"/><path d="m51.655 27.9412s.2067-.8204 1.2056-1.3144l1.4712 1.3014s.4701 2.2764.4701 2.5158.1893 3.1164.0936 3.4755c-.0936.3591-1.0359 5.6322-1.0359 5.6322l-.9424 2.1567-1.6953.9575s-.5658-.8378-.1872-1.4385c.3765-.5984 1.036-1.5582 1.036-1.5582l1.3188-5.2731-.2829-2.7574-.8466-2.877z" fill="#fff"/><path d="m50.284 30.0697s-.1959-1.4625.8444-1.9826l.7573.7987s.8488 2.9967.8488 3.2361-.283 4.3134-.283 4.3134-.5658 2.037-.6594 2.1567c-.0935.1197-.8465 1.9173-.8465 1.9173l-1.4124.9597s-.283-1.1991.1893-2.2764c.4701-1.0772.753-1.6779.753-1.6779l.5658-2.6355-.2829-2.7551z" fill="#fff"/><path d="m9.26981 30.7726s.71164.3917.80519 1.4689c.0936 1.0795 0 0 0 0l1.7889 8.629s.753 1.3188.4701 2.6355c-.2829 1.3188 0 0 0 0l-1.2231-.2394-1.88244-3.7149-.94233-4.6725.3765-3.4755z" fill="#fff"/><path d="m7.20452 29.6431s.75299.0609 1.38846 1.0316l-.96409 2.0478.28292 3.7149s.84657 3.9543.84657 4.1937 2.90102 3.2971 2.90102 3.2971-.0436.692-.814 1.2144c-.7704.5223 0 0 0 0l-2.36994-1.1557-1.97823-4.0739-1.12949-4.1937.47007-5.0338z" fill="#fff"/><path d="m4.79324 28.9402s1.04679.1871 1.23395.6659l-.18716 7.0707 1.31882 5.2731 3.09685 3.5278s-.63983.7116-1.35147 1.1099l-2.21763-1.6409-1.88248-3.3558-1.97824-5.7519-.09358-2.9968.94233-3.3558z" fill="#fff"/><path d="m40.7497 13.6322c0 6.6529-4.8575 12.0457-10.851 12.0457-5.9934 0-10.8487-5.3928-10.8487-12.0457 0-6.65286 4.8574-12.04568 10.8487-12.04568s10.851 5.39282 10.851 12.04568z" fill="#202136"/><path d="m37.6332 13.5778c0 5.0816-3.7715 9.1991-8.4266 9.1991-4.655 0-8.4265-4.1197-8.4265-9.1991 0-5.08162 3.7715-9.19914 8.4265-9.19914 4.6551 0 8.4266 4.11752 8.4266 9.19914z" fill="#fff"/><path d="m22.3971 22.0784s-9.2339 7.6387-6.8095 14.8357c0 0 1.4428 3.1577 4.0979.9553 0 0 .9227-1.3231-.9228-3.2317l2.0784-.2938 2.7704-3.3776-4.8488 14.3961 9.6954-2.3504 3.6931-5.4342.4614 5.5822 8.4265.5876-3.2317-13.2209 2.309 2.4962 2.0783.4418s-1.939.9597-1.0293 3.1447c.0652.1567.1958.2785.3547.3373.8596.3156 3.6844.9859 4.3678-3.482 0 0 0-6.1698-7.0403-12.6333l-2.4244.4417-5.5408 1.9086z" fill="#202136"/><path d="m22.6844 24.3547-5.5408 7.7846 3.1164.5876 4.8487-4.5528-3.0011 13.9543h2.1937l9.8107-7.7846-.2307 6.9032 4.3852.1458-3.1164-14.6899 1.963.4396 4.3852 4.5528 1.3841-1.7628-6.1175-7.4907c.0022.0021-6.8096 7.4951-14.0805 1.9129z" fill="#fff"/><path d="m51.2459 34.7225c-.2264 2.5397-.8989 4.5267-1.5017 4.4396-.6006-.087-.9053-2.2154-.679-4.7551.2264-2.5398.8988-4.5267 1.5017-4.4396.6028.087.9053 2.2154.679 4.7551z" fill="#202136"/><path d="m11.9619 36.2198c.5767 2.4483.5745 4.6115-.0044 4.8335-.581.222-1.519-1.5821-2.09572-4.0304-.57671-2.4484-.57453-4.6116.00436-4.8336.58106-.2219 1.51906 1.5822 2.09576 4.0305z" fill="#202136"/><path d="m11.6854 38.2677s-1.5909-1.7432-.8857-3.5822c0 0 18.7116-5.8585 39.6322-1.5734 0 0 1.0293 2.148-.5463 3.6409-.0022-.0022-19.0141-4.4592-38.2002 1.5147z" fill="#fff"/><path d="m11.6049 38.2263-.1218-.1197c-.0718-.0696-1.76281-1.7541-.9641-3.617l.0653-.148.1414-.0391c.0479-.0131 4.7835-1.321 12.0131-2.1437 6.6725-.7573 16.901-1.247 27.741.7334l.1415.0262.074.1392c.4069.7574.8008 2.5093-.6268 3.715l-.1088.0914-.1328-.0283c-.0479-.0109-4.8226-.9946-11.8716-1.3167-6.5005-.2981-16.3242-.0762-26.1937 2.6638zm-.581-3.2013c-.3569 1.2165.4483 2.4091.7551 2.803 9.8912-3.0489 19.7062-3.2927 26.2133-2.9575 6.42.3308 10.9685 1.2731 11.8085 1.4581.9859-1.0424.6007-2.4004.4287-2.8575-10.7116-2.1697-20.8139-1.6278-27.4145-.7878-6.4766.8248-10.9358 2.0893-11.7911 2.3417z" fill="#202136"/><path d="m15.9553 37.5169-.2546-2.1458 4.0435-.8292-1.0424 3.0337z" fill="#202136"/><path d="m40.8432 35.5169-.6529-1.8695 4.3917.3744.3744 2.0565z" fill="#202136"/><path d="m15.7007 35.4233s1.5952-2.6986 4.0196-.9336l-1.9413 1.6169z" fill="#202136"/><path d="m40.3774 33.7737s3.469-2.2982 4.3918.4352z" fill="#202136"/><path d="m51.9205 27.9674c-.346-.0784-.7029.0261-1.049.2829 1.1382.84 1.6758 3.8476 1.2057 7.2165-.3983 2.864-1.4102 5.1665-2.5005 5.9695.1371.1023.2851.172.4396.2068 1.4341.3243 3.0228-2.4766 3.5495-6.2525.5245-3.7758-.2111-7.1012-1.6453-7.4232z" fill="#202136"/><path d="m54.0163 26.3634c-.4178-.0935-.8466.0327-1.2666.3417 1.3754 1.0142 2.0196 4.6442 1.4538 8.7073-.481 3.4559-1.7019 6.2329-3.0164 7.2013.1676.1219.3439.2068.531.2503 1.7302.3895 3.6475-2.9859 4.283-7.543.6333-4.5571-.2547-8.568-1.9848-8.9576z" fill="#202136"/><path d="m56.7061 24.8248c-.494-.111-.9989.037-1.4951.4026 1.6235 1.197 2.3852 5.4799 1.7171 10.2786-.568 4.0783-2.0087 7.358-3.5604 8.5027.1959.1458.4048.2438.6268.2938 2.0435.4614 4.3069-3.5256 5.0555-8.9031.7486-5.3798-.3003-10.1154-2.3439-10.5746z" fill="#202136"/><path d="m8.29919 30.7617c.33079-.1502.69641-.1241 1.07073.0544-1.01197 1.0707-1.14472 4.1501-.23939 7.3732.7704 2.7399 2.06747 4.7943 3.24917 5.3536-.1219.1306-.259.2307-.407.2982-1.371.6246-3.30572-1.7976-4.31987-5.4081-1.01632-3.6148-.72687-7.0489.64636-7.6713z" fill="#202136"/><path d="m6.02062 29.6257c.40043-.1828.83786-.148 1.29271.0675-1.2209 1.2905-1.38194 5.0076-.28944 8.8944.92927 3.3058 2.49618 5.7824 3.92161 6.4592-.148.1567-.3112.2764-.4896.3591-1.654.753-3.98915-2.1676-5.21439-6.5267-1.22525-4.3569-.87486-8.5005.77911-9.2535z" fill="#202136"/><path d="m3.4156 28.9075c.45484-.2068.95539-.1698 1.47116.0761-1.39064 1.4712-1.57345 5.7019-.32862 10.1284 1.05767 3.7628 2.84222 6.5855 4.46572 7.3559-.16757.1784-.35473.3155-.55712.4091-1.88466.8575-4.54189-2.4701-5.93689-7.432-1.39499-4.9619-.99891-9.6801.88575-10.5375z" fill="#202136"/><path d="m31.7856 10.3352-2.5811 2.5614-2.6093-2.6985c-.6355-.65729-1.5452-.66599-2.1894-.024-1.2426 1.2361-2.0108 2.951-2.0108 4.8444 0 3.7715 3.0489 6.8292 6.8095 6.8292s6.8096-3.0577 6.8096-6.8292c0-1.7758-.6768-3.3928-1.7845-4.6072-.6943-.76167-1.7193-.79431-2.444-.0761z" fill="#202136"/><path d="m23.5962 17.9587c-1.025-3.3472-.7334-5.4168 1.9913-7.5822.1349-.1066.3351.1306.2372.2851-1.5887 2.5092-1.9064 4.1741-1.9217 7.3232-.0021.2067-.2415.185-.3068-.0261z" fill="#fff"/><path d="m27.7399 10.1284 1.2666 1.1534c.1327.1197.309.1197.4396-.0043l2.0609-1.92388c.0631-.05876.0022-.18498-.0674-.1371l-2.1459 1.44718-1.4733-.72901c-.0936-.0457-.1632.11971-.0805.19371z" fill="#202136"/><path d="m49.6855 18.148c0 1.2775-1.0359 2.3112-2.3112 2.3112-1.2775 0-2.3112-1.0359-2.3112-2.3112 0-1.2775 1.0359-2.3112 2.3112-2.3112 1.2775 0 2.3112 1.0337 2.3112 2.3112z" fill="#202136"/><path d="m46.4363 25.2688c0 .5179-.42.938-.938.938-.5179 0-.9379-.4201-.9379-.938 0-.518.42-.938.9379-.938.5202.0022.938.4222.938.938z" fill="#202136"/><path d="m42.4189 38.6355c0 .5179-.42.9379-.938.9379-.5179 0-.9379-.42-.9379-.9379 0-.518.42-.938.9379-.938.518 0 .938.42.938.938z" fill="#202136"/><path d="m16.9956 41.4385c0 .518-.42.938-.938.938-.5179 0-.938-.42-.938-.938 0-.5179.4201-.938.938-.938.518 0 .938.4201.938.938z" fill="#202136"/><path d="m42.4385 19.7715c0 .518-.4201.938-.938.938-.518 0-.938-.42-.938-.938s.42-.938.938-.938c.5179.0022.938.42.938.938z" fill="#202136"/><path d="m17.2002 19.0228c0 1.345-.8117 2.4375-1.8128 2.4375s-1.8129-1.0903-1.8129-2.4375c0-1.3449.8118-2.4352 1.8129-2.4352 1.0011-.0022 1.8128 1.0881 1.8128 2.4352z" fill="#202136"/><path d="m47.6702 42.7617c0 1.345-.8117 2.4374-1.8128 2.4374s-1.8128-1.0903-1.8128-2.4374c0-1.3449.8117-2.4374 1.8128-2.4374 1.0011.0022 1.8128 1.0925 1.8128 2.4374z" fill="#202136"/><path d="m12.4515 29.2688c0 .5179-.42.938-.938.938-.5179 0-.9379-.4201-.9379-.938 0-.518.42-.938.9379-.938.518 0 .938.42.938.938z" fill="#202136"/><path d="m11.4962 38.1327.4679.3744s1.0337-.7182 4.1153-1.3863z" fill="#202136"/><path d="m11.309 36.4505s17.5386-5.9195 39.099-1.3254l.3918.4375-.1393 1.4494s-15.8368-5.3602-39.1622.9336l-.5832-1.3689z" fill="#202136"/></svg>