<svg xmlns="http://www.w3.org/2000/svg" xmlns:xlink="http://www.w3.org/1999/xlink" width="39" height="39" viewBox="0 0 39 39">
  <defs>
    <clipPath id="clip-path">
      <circle id="Ellipse_2" data-name="Ellipse 2" cx="19.5" cy="19.5" r="19.5" transform="translate(0 0)" fill="none"/>
    </clipPath>
    <linearGradient id="linear-gradient" y1="0.5" x2="1" y2="0.5" gradientUnits="objectBoundingBox">
      <stop offset="0" stop-color="#2160db"/>
      <stop offset="1" stop-color="#e3305a"/>
    </linearGradient>
  </defs>
  <g id="Gruppe_1616" data-name="Gruppe 1616" transform="translate(0 0)">
    <circle id="Ellipse_59" data-name="Ellipse 59" cx="18.5" cy="18.5" r="18.5" transform="translate(1 1)" fill="#fff"/>
    <g id="Gruppe_1615" data-name="Gruppe 1615" transform="translate(0 0)">
      <g id="Gruppe_25" data-name="Gruppe 25" transform="translate(0 0)" clip-path="url(#clip-path)">
        <g id="NewGroup29-0" transform="translate(-12.281 -11.725)">
          <path id="Pfad_6" data-name="Pfad 6" d="M184.475,422.509l0,0a1.8,1.8,0,0,1,.222-.131.026.026,0,0,1,.009-.006,2.211,2.211,0,1,1,1,4.182c-.061,0-.122,0-.183-.008a2.211,2.211,0,0,1-1.054-4.036Zm2.317-6.3a2.211,2.211,0,0,1,2.7-1.957l.009,0,.11.029.016,0a2.211,2.211,0,0,1,1.572,2.249l2.249,2.249.773.773a5.665,5.665,0,0,1,2.068-.641h0a5.776,5.776,0,0,1,1.275,0h0a5.676,5.676,0,0,1,2.085.65l.753-.753h0l2.257-2.257a2.211,2.211,0,0,1,4.406-.363h0a2.211,2.211,0,0,1-2.587,2.387l-2.809,2.809a5.685,5.685,0,0,1,.866,2.017,5.777,5.777,0,0,1,.128,1.209c0,.181-.008.361-.025.538a5.694,5.694,0,0,1-.652,2.168l.4.4h0l2.38,2.379a2.209,2.209,0,0,1,1.827.51h0c.038.033.076.068.112.1a2.209,2.209,0,0,1,.5,2.354,2.209,2.209,0,0,1-1.768,1.4,2.209,2.209,0,0,1-1.542-.365,2.1,2.1,0,0,1-.317-.263,2.209,2.209,0,0,1-.641-1.726l-2.542-2.542-.227-.226a5.731,5.731,0,0,1-6.468.011l-.244.244-2.538,2.538a2.209,2.209,0,0,1-.643,1.7,2.119,2.119,0,0,1-.317.263,2.211,2.211,0,0,1-2.809-3.39c.036-.036.074-.072.112-.1h0a2.206,2.206,0,0,1,1.849-.506l2.386-2.386.379-.379a5.7,5.7,0,0,1-.66-2.185c-.017-.177-.026-.357-.026-.538a5.774,5.774,0,0,1,.128-1.209,5.678,5.678,0,0,1,.877-2.033l-.6-.6h0l-2.2-2.2a2.207,2.207,0,0,1-1.968-.61,2.275,2.275,0,0,1-.229-.269,2.208,2.208,0,0,1-.409-1.491Zm10.136-5.026a2.211,2.211,0,1,1-2.211,2.211,2.211,2.211,0,0,1,2.211-2.211Zm12.152,11.151.007,0a2.047,2.047,0,0,1,.37.218.005.005,0,0,1,0,0,2.21,2.21,0,0,1,.516,3.038h0a2.2,2.2,0,0,1-1.652.949c-.056.005-.111.007-.169.007a2.211,2.211,0,1,1,.923-4.22Zm-11.186,15.5a2.207,2.207,0,0,1-1.949-.021,2.206,2.206,0,0,1-1.216-1.957v-.016a2.21,2.21,0,0,1,4.421-.035c0,.012,0,.023,0,.035a2.208,2.208,0,0,1-1.257,1.994Zm-19.847-5.769a101.443,101.443,0,0,0-3.4,14.456,101.5,101.5,0,0,0,14.456-3.4,101.5,101.5,0,0,0,7.82,12.623,101.452,101.452,0,0,0,7.82-12.623,101.511,101.511,0,0,0,14.456,3.4,101.446,101.446,0,0,0-3.4-14.456,101.491,101.491,0,0,0,12.623-7.82,101.529,101.529,0,0,0-12.623-7.821,101.436,101.436,0,0,0,3.4-14.456,101.448,101.448,0,0,0-14.456,3.4,101.51,101.51,0,0,0-7.82-12.623,101.556,101.556,0,0,0-7.82,12.623,101.438,101.438,0,0,0-14.456-3.4,101.433,101.433,0,0,0,3.4,14.456,101.545,101.545,0,0,0-12.623,7.821,101.507,101.507,0,0,0,12.623,7.82Zm15.831-6.725a3.081,3.081,0,0,0,.412.969,3.133,3.133,0,0,0,1.313,1.149,3.149,3.149,0,0,0,2.667-.008,3.145,3.145,0,0,0,1.3-1.142,3.122,3.122,0,0,0,.417-.99,3.09,3.09,0,0,0,.077-.6c0-.034,0-.069,0-.1a3.135,3.135,0,0,0-1.618-2.743,3.071,3.071,0,0,0-.794-.306c-.034-.008-.067-.016-.1-.023a3.168,3.168,0,0,0-1.241,0l-.081.017a3.134,3.134,0,0,0-1.721,1.067,3.091,3.091,0,0,0-.582,1.092,3.134,3.134,0,0,0-.13.9c0,.035,0,.07,0,.1a3.092,3.092,0,0,0,.082.618Z" transform="translate(-165.424 -392.739)" fill="url(#linear-gradient)"/>
        </g>
      </g>
    </g>
  </g>
</svg>
