<svg xmlns="http://www.w3.org/2000/svg" width="271.556" height="263.698" viewBox="0 0 271.556 263.698">
  <path id="Union_1" data-name="Union 1" d="M2.314,263.7a2.315,2.315,0,0,1,0-4.63H31.19a10.984,10.984,0,0,1-3.485-7.771c-.364-15.655-.844-38.409-1.2-53.995a139.955,139.955,0,0,0-2.544-23.558l-1.019-5.24a140.176,140.176,0,0,1-2.467-31.486c.045.012.089.027.135.038l39.959,9.266a11.151,11.151,0,0,0,6.342-21.337l-30.19-11.019,6.49-13.386a2.28,2.28,0,0,0-.677-2.792,2.173,2.173,0,0,0-.4-.3,2.314,2.314,0,0,0-3.091,1.074l-6.49,13.383a4.63,4.63,0,0,0,2.578,6.369l30.19,11.019A6.522,6.522,0,0,1,61.61,141.81l-39.959-9.266c-.351-.082-.671-.223-1.012-.327A15.937,15.937,0,0,1,9.228,116.91a16.146,16.146,0,0,1,1.535-6.851L26.439,76.843A20.92,20.92,0,0,1,45.277,64.9h23.16l-.031.039a54.34,54.34,0,0,1,10.979,1.431l26.864,6.4a46.29,46.29,0,0,0,21.765-.075l29.871-7.335a9.614,9.614,0,0,1,5.153,18.515l-37.9,11.81a46.262,46.262,0,0,1-11.48,2.039L88.988,98.95c.622-12.577-4.293-20.464-4.546-20.86a2.311,2.311,0,0,0-3.19-.7,2.24,2.24,0,0,0-.4.389,2.286,2.286,0,0,0-.309,2.8c.054.085,4.443,7.254,3.783,18.6-.023.407-.049.814-.087,1.232l-2.457,13.48c-1.98,10.862,1.691,21.88,1.769,32.92.166,23.764.891,76.2,1.185,104.108a10.968,10.968,0,0,1-3.506,8.144H254.6l.008,0a2.315,2.315,0,0,1,0,4.63Zm51.041-79.914c-.694,12.5-2.375,46.713-3.559,67.867a11.007,11.007,0,0,1-3.447,7.414H65.731a11.02,11.02,0,0,1-3.46-7.465l-3.542-67.793a2.692,2.692,0,0,0-2.669-2.552h-.017A2.681,2.681,0,0,0,53.355,183.785ZM163.086,232.13h0a56.183,56.183,0,0,1-44.008-26.538l47.578-27.667v54.3C165.472,232.228,164.285,232.2,163.086,232.13Zm8.2-55.926h46.569a4.616,4.616,0,0,1,4.627,4.964h0a56.043,56.043,0,0,1-51.195,50.877Zm-60.548,3.574A56.045,56.045,0,0,1,161.7,120.384a4.6,4.6,0,0,1,4.959,4.559v47.628L116.8,201.563A55.054,55.054,0,0,1,110.737,179.778Zm76.732-15.617h0a6.948,6.948,0,0,1-6.943-6.938V110.647a6.987,6.987,0,0,1,2.263-5.141,6.884,6.884,0,0,1,5.24-1.783,58.2,58.2,0,0,1,52.935,52.935,6.88,6.88,0,0,1-1.781,5.233,7.008,7.008,0,0,1-5.153,2.27Zm-1.552-55.241a2.349,2.349,0,0,0-.762,1.728v46.574a2.315,2.315,0,0,0,2.315,2.31h46.559a2.369,2.369,0,0,0,1.738-.768,2.21,2.21,0,0,0,.585-1.7,53.584,53.584,0,0,0-48.731-48.731c-.066,0-.13-.009-.2-.009A2.221,2.221,0,0,0,185.917,108.92Zm2.221-20.12V81.842c6.729,4.742,19.03,6.957,31.281,6.957s24.553-2.216,31.282-6.957V88.8c0,5.752-14.011,10.427-31.281,10.427S188.138,94.55,188.138,88.8Zm0-15.639V64.752c6.729,5.539,19.045,8.408,31.281,8.408s24.553-2.868,31.282-8.408V73.16c0,5.749-14.011,10.426-31.281,10.426S188.138,78.909,188.138,73.16Zm0-18.25c0-7.2,14.012-13.032,31.278-13.032h0c17.27,0,31.281,5.832,31.281,13.032S236.69,67.946,219.42,67.946,188.138,62.11,188.138,54.91Zm67.777,1.273c6.305-1.121,11.861-2.948,15.641-5.621v6.957c0,3.861-6.3,7.218-15.641,9.026ZM29.893,65.5a5.179,5.179,0,0,1-2.334-8.86,19.263,19.263,0,0,0,4.089-5.288,19.421,19.421,0,0,1-3.538,2.825,4.942,4.942,0,0,1-5.729-8.021,17.652,17.652,0,0,0,5.486-7.538c-.043-.577-.088-1.155-.088-1.743a23.143,23.143,0,0,1,.962-6.578h0A9.766,9.766,0,0,1,24.78,11.873,9.822,9.822,0,1,1,44.208,9.824c0,.239-.053.463-.071.7a27.092,27.092,0,0,1,9.941-.9s13.483.108,21.788,14.453a37.469,37.469,0,0,0,9.749,9.231,6,6,0,0,1,2.6,6.83l-.049.156c-1.031,3.361-4.84,5.334-7.981,3.754a3.289,3.289,0,0,1-.548-.341s-.25,1.568,1.878,4.9a6.669,6.669,0,0,1-.225,7.6,6.582,6.582,0,0,1-11.369-1.362,13.311,13.311,0,0,1-.809-3.687,23.1,23.1,0,0,1-28.985,6.191,12.753,12.753,0,0,1-2.566,4.165,24.337,24.337,0,0,1-3.342,3.065A5.1,5.1,0,0,1,31.1,65.642,5.271,5.271,0,0,1,29.893,65.5Zm6.458-17.565.792,1.264a18.455,18.455,0,0,0,13.782,6.193h0A18.493,18.493,0,0,0,67.04,27.787a19.051,19.051,0,0,1-9.656-5.863C56.118,29.139,51.667,41.282,36.351,47.937Zm218.793,3.114h.005Zm-9.77-9.32c10.465-.52,20.4-2.721,26.177-6.809v6.957c0,3.958-6.629,7.411-16.4,9.172C253.715,47.188,250.18,44.06,245.373,41.73ZM208.993,26.237c0-5.751,14.011-10.427,31.281-10.427s31.282,4.676,31.282,10.427-14.012,10.426-31.282,10.426S208.993,31.988,208.993,26.237Z" fill="#fff"/>
</svg>
