<svg xmlns="http://www.w3.org/2000/svg" xmlns:xlink="http://www.w3.org/1999/xlink" viewBox="0 0 512 512"><defs><path id="a" d="M256 0c141.38 0 256 114.62 256 256S397.38 512 256 512 0 397.38 0 256 114.62 0 256 0zM55.38 325.76l96.848-69.756h-48.424c0-84.053 68.138-152.19 152.19-152.19 37.204 0 71.291 13.35 97.73 35.521l42.648-26.65C360.19 77.242 310.644 55.39 255.992 55.39c-110.8 0-200.62 89.818-200.62 200.62v69.756zm102.15 46.295-42.584 26.61c36.239 35.832 86.061 57.956 141.05 57.956 110.8 0 200.62-89.818 200.62-200.62l-.004-70.907-96.845 70.907h48.425c0 84.053-68.139 152.19-152.19 152.19-37.551 0-71.925-13.6-98.466-36.142zm175.42-49.466-50.138-65.434 50.14-67.733-51.884.001-25.077 32.728-25.078-32.729H179.03l50.139 67.733-50.139 65.434h55.343l21.618-29.202 21.617 29.202h55.342z"/></defs><use fill="#FFF" fill-rule="nonzero" xlink:href="#a"/></svg>