<svg viewBox="0 0 58 64" fill="none" xmlns="http://www.w3.org/2000/svg"><g filter="url(#a)"><path fill-rule="evenodd" clip-rule="evenodd" d="M13.213 22.89 31.88 36.945a5.511 5.511 0 0 1 1.867 2.509 5.554 5.554 0 0 1-1.01 5.55 5.473 5.473 0 0 1-2.218 1.544 5.433 5.433 0 0 1-5.172-.746L.714 27.267l.777-3.497A30.138 30.138 0 0 1 9.363 9.24a29.79 29.79 0 0 1 14.31-8.13 29.631 29.631 0 0 1 16.414.731 29.841 29.841 0 0 1 13.542 9.373c3.282 4.032-.373 9.971-5.424 8.832a5.57 5.57 0 0 1-3.087-1.873 18.9 18.9 0 0 0-7.77-5.6 18.764 18.764 0 0 0-9.495-1.054 18.823 18.823 0 0 0-8.794 3.758 19.021 19.021 0 0 0-5.846 7.612ZM24.3 24.272a5.556 5.556 0 0 1-.21-3.123c.199-.898.617-1.73 1.218-2.424a5.477 5.477 0 0 1 2.218-1.543 5.437 5.437 0 0 1 5.174.745l24.587 18.244-.777 3.494a29.922 29.922 0 0 1-6.33 12.828 29.888 29.888 0 0 1-10.295 7.887 29.675 29.675 0 0 1-12.639 2.761 29.679 29.679 0 0 1-12.612-2.88 29.897 29.897 0 0 1-10.221-7.983c-3.309-4.043.373-10.007 5.46-8.875a5.367 5.367 0 0 1 2.975 1.82 18.736 18.736 0 0 0 9.783 6.27c.216.057.435.114.657.166 4.307.962 8.812.378 12.736-1.651a19.006 19.006 0 0 0 8.756-9.465L26.163 26.78a5.514 5.514 0 0 1-1.864-2.506Z" fill="#3D5AF1"/></g><defs><filter id="a" x=".714" y=".286" width="56.571" height="66.857" filterUnits="userSpaceOnUse" color-interpolation-filters="sRGB"><feFlood flood-opacity="0" result="BackgroundImageFix"/><feBlend in="SourceGraphic" in2="BackgroundImageFix" result="shape"/><feColorMatrix in="SourceAlpha" values="0 0 0 0 0 0 0 0 0 0 0 0 0 0 0 0 0 0 127 0" result="hardAlpha"/><feOffset dy="4"/><feGaussianBlur stdDeviation="3"/><feComposite in2="hardAlpha" operator="arithmetic" k2="-1" k3="1"/><feColorMatrix values="0 0 0 0 0.0973958 0 0 0 0 0.192692 0 0 0 0 0.6875 0 0 0 1 0"/><feBlend in2="shape" result="effect1_innerShadow_7_3494"/></filter></defs></svg>