<svg viewBox="0 0 54 54" width="24" color="text" xmlns="http://www.w3.org/2000/svg" class="sc-bdvvtL joPMzH"><path d="M27.635.054C12.85.054 1 12.018 1 26.7c0 11.746 7.61 21.643 18.047 25.232v-20.23l-5.11.11c-.108 0-.217 0-.434-.11-.11 0-.218 0-.327-.108-.108 0-.326-.109-.434-.217-.11 0-.218-.11-.327-.11-.108-.108-.326-.217-.434-.325-.11-.11-.11-.11-.218-.11-.217-.217-.326-.434-.544-.652-.434-.761-.543-1.631-.434-2.501.217-.87.76-1.523 1.413-2.066.435-.218.87-.436 1.305-.436h.434l4.784-.108v-1.74l-3.37-5.873a3.01 3.01 0 0 1-.326-1.414c0-1.523 1.304-2.828 2.827-2.828.87 0 1.739.435 2.283 1.196l.108.218s0 .109.11.109l3.043 5.329.109-9.027a2.816 2.816 0 0 1 1.413-2.175c1.414-.762 3.153-.326 3.914 1.087.326.435.435.98.327 1.632l-.11 9.244 2.284-7.83a2.852 2.852 0 0 1 1.957-1.74c.761-.218 1.522-.11 2.174.326.653.435 1.088.979 1.305 1.74.109.544.109 1.087-.109 1.631l-1.957 6.852 2.284-2.502c.652-.543 1.413-.76 2.174-.543 1.196.217 1.957 1.305 1.957 2.392 0 .218 0 .327-.109.544-.108.435-.326.87-.76 1.197l-3.154 3.371v25.123c9.785-3.915 16.743-13.595 16.743-24.797C54.272 12.018 42.313.054 27.635.054Z"/><path d="M37.203 35.727v-9.353l3.262-3.48c.326-.327.543-.653.652-1.088.109-.544 0-1.197-.217-1.632-.326-.543-.761-.87-1.305-.978a2.07 2.07 0 0 0-2.066.543l-.109.11-3.044 3.153 2.283-8.048c.218-.435.218-.979.11-1.523-.218-.652-.544-1.196-1.197-1.522-.543-.326-1.304-.435-1.957-.326a2.36 2.36 0 0 0-1.74 1.74v.108l-2.717 9.68.108-11.42c0-.543-.108-.978-.326-1.414-.652-1.196-2.283-1.63-3.479-.978-.761.435-1.305 1.196-1.305 2.066v5.112h2.501s.109 0 .109.108c0 .11 0 .11-.109.11h-2.5v1.087h2.5s.109 0 .109.109c0 0 0 .108-.109.108h-2.5v3.48l-3.697-6.307s0-.11-.109-.11l-.109-.108c-.434-.761-1.304-1.196-2.174-1.196-1.413 0-2.5 1.087-2.5 2.501 0 .544.108.979.434 1.414l.109.109 3.262 5.655v1.85h2.174c.109 0 .109.108.109.108 0 .109-.109.109-.109.109l-7.176.108c-.434 0-.87.11-1.304.218-.109.109-.218.109-.435.217-.652.435-1.196 1.088-1.305 1.85-.217.76-.109 1.522.326 2.283.544.87 1.522 1.414 2.501 1.414l5.219-.109v4.242h17.83Zm-13.808-10.44c.544.108.979.325 1.414.543a3.873 3.873 0 0 1 1.957 3.371 3.07 3.07 0 0 1-.435 1.632h-.109v-.11c.979-1.522.326-3.697-1.522-4.784-.435-.218-.87-.435-1.413-.544l.108-.109c-.108 0 0 0 0 0Z" fill="#CAEFFF"/><path d="M27.636 53.454c3.37 0 6.631-.652 9.567-1.74v-15.77h-17.94v16.314a29.945 29.945 0 0 0 8.372 1.196Z" fill="#fff"/><path d="M37.203 35.727h-17.94v.109h17.94v-.11ZM37.203 35.836h-17.94v.108h17.94v-.108ZM13.502 31.812c-.11 0-.218 0-.327-.11.11.11.218.11.327.11ZM19.047 35.727l.108-3.915h-.108V52.04h.108V35.727h-.108Z"/><path d="M40.682 23.111c.326-.326.652-.761.761-1.196 0-.218.109-.326.109-.544 0-1.087-.761-2.175-1.957-2.393-.761-.217-1.63 0-2.175.544l-2.283 2.502 1.957-6.852c.218-.544.218-1.088.109-1.632-.217-.76-.652-1.305-1.305-1.74-.652-.435-1.413-.543-2.174-.326-.87.218-1.63.87-1.957 1.74l-2.283 7.83.108-9.244c0-.543-.108-1.087-.326-1.631-.76-1.414-2.5-1.849-3.914-1.088-.87.435-1.304 1.306-1.413 2.176l-.109 9.027-3.044-5.33s0-.108-.109-.108l-.108-.218a2.836 2.836 0 0 0-2.284-1.196c-1.522 0-2.826 1.305-2.826 2.827 0 .544.108.98.326 1.414l3.37 5.873v1.74l-4.784.11 4.893-.11v-1.849l-3.37-5.764c-.327-.435-.435-.87-.435-1.414a2.692 2.692 0 0 1 2.718-2.719c.978 0 1.74.544 2.283 1.197v.109s0 .108.109.108l3.37 5.873v-2.936s-.109 0-.109-.109 0-.109.109-.109v-1.087s-.109 0-.109-.109 0-.109.109-.109v-5.111c0-.87.544-1.74 1.413-2.284 1.305-.762 2.936-.218 3.697.979.217.434.326.978.326 1.522l-.109 10.332 2.5-8.7c.218-.87.98-1.523 1.85-1.85 1.413-.326 2.935.544 3.26 1.958.11.544.11 1.088-.108 1.523l-2.174 7.395 2.609-2.827c.544-.544 1.413-.87 2.174-.653 1.305.326 2.066 1.523 1.74 2.828-.109.435-.326.87-.652 1.196l-3.262 3.48v9.245h.109v15.878h.108V26.156l3.262-3.045ZM12.088 31.16c-.108-.11-.108-.11-.217-.11 0 0 .109 0 .217.11ZM12.74 31.594c-.108 0-.217-.109-.325-.109.108 0 .217.11.326.11ZM14.263 25.721c-.435 0-.87.109-1.305.218.435-.218.87-.218 1.305-.218Z"/><path d="M24.047 16.803h-.217v.979h.217v-.979Z"/><path d="M24.048 11.583v-.109c0-.87.543-1.631 1.304-2.066 1.196-.653 2.718-.218 3.48.978.217.435.326.87.326 1.414l-.11 11.42 2.719-9.68v-.108c.217-.87.978-1.523 1.74-1.74.652-.218 1.304-.11 1.956.326.544.326.979.87 1.196 1.522.109.544.109.98-.108 1.523l-2.284 8.048 3.045-3.154.108-.109c.544-.543 1.305-.761 2.066-.543.544.108 1.087.434 1.305.978.326.544.434 1.088.217 1.632-.109.435-.326.761-.652 1.087l-3.262 3.48v9.354h.109V26.59l3.261-3.48c.327-.326.544-.652.653-1.196.326-1.305-.435-2.502-1.74-2.828-.87-.218-1.63.109-2.174.652l-2.61 2.828 2.175-7.395c.218-.435.217-.98.109-1.523-.326-1.414-1.849-2.284-3.262-1.957-.978.217-1.63.978-1.848 1.848l-2.5 8.701.108-10.332c0-.544-.109-.979-.326-1.523a2.682 2.682 0 0 0-3.697-.978c-.87.435-1.304 1.305-1.413 2.284v5.111h.109v-5.22ZM14.045 31.594h.109l4.893-.109c.108 0 .108.11.108.11v-.11l-5.11.11ZM19.264 23.437l-3.262-5.655-.108-.109c-.218-.435-.435-.87-.435-1.414 0-1.414 1.087-2.501 2.5-2.501.87 0 1.631.435 2.175 1.196l.108.109s0 .109.11.109l3.696 6.308V18h-.218v2.936l-3.37-5.873s0-.109-.109-.109v-.109c-.435-.76-1.304-1.196-2.283-1.196a2.692 2.692 0 0 0-2.718 2.72c0 .543.109 1.087.435 1.413l3.37 5.764v1.849h.109v-1.958ZM19.264 31.594c0 .109-.109.109-.109.109v3.915h.109v-4.024ZM19.264 52.15l.108-16.314h-.108v16.313ZM37.312 51.714v-15.77h-.109l.108 15.77c-.108 0-.108 0 0 0Z"/><path d="M37.312 51.605c.108 0 .108 0 0 0l.108-15.878h-.108v15.879ZM19.155 35.836l-.108 16.313h.108V35.836ZM19.264 35.727h-.109v.109h.109v-.11ZM37.312 35.727h-.109v.109h.109v-.11Z"/><path d="m19.264 35.836-.109 16.205h.109V35.836ZM37.312 35.836v15.77h.108l-.108-15.77ZM26.657 17.89s-.109-.108 0 0l-2.61-.108v.109h2.61c-.109.109 0 0 0 0ZM23.83 17.782s0 .108 0 0c-.108.108 0 .108 0 .108v-.108ZM24.047 18v-.218h-.217V18h.217ZM26.657 16.694s-.109-.108 0 0l-2.61-.108v.108h2.61c-.109.11 0 0 0 0ZM23.83 16.586s0 .108 0 0c-.108.108 0 .108 0 .108v-.108ZM24.047 16.586h-.217v.217h.217v-.217ZM24.7 25.939c1.74 1.087 2.5 3.262 1.522 4.785v.109h.109a3.07 3.07 0 0 0 .435-1.632c0-1.305-.761-2.61-1.957-3.371-.435-.326-.979-.435-1.414-.544 0 0-.108 0-.108.109 0 0 0 .109.108.109.435 0 .87.217 1.305.435ZM14.045 31.92c-.217 0-.326 0-.543-.109.108 0 .217.11.434.11l5.11-.11-5 .11ZM12.523 31.485c-.109-.108-.326-.217-.435-.326.109.109.218.218.435.326ZM13.175 31.812c-.108 0-.326-.109-.434-.218.108.109.326.109.434.218ZM12.415 25.83c.434-.217.87-.435 1.304-.435-.435.109-.87.218-1.304.435ZM11.87 30.942c-.217-.218-.325-.435-.543-.653.109.326.326.544.544.653ZM21.547 25.395c0-.109-.109-.109-.109-.109h-2.174v.218l-5.11.108 7.176-.108c.217.108.217 0 .217-.11Z"/><path d="m19.155 31.594-4.892.109h-.218c-1.087 0-2.066-.544-2.61-1.523-.869-1.414-.434-3.371.98-4.241.543-.327 1.087-.435 1.739-.435l4.892-.11v-.108l-4.892.109h-.435c-.435 0-.978.217-1.305.435-.76.435-1.304 1.196-1.413 2.066-.217.87-.109 1.74.435 2.502.109.217.326.435.543.652.11.11.11.11.218.11.109.108.326.217.435.325.109 0 .217.11.326.11.109.108.326.108.435.217.109 0 .217 0 .326.108.218 0 .326.11.544.11l4.892-.11h.109v-.326h-.109Z"/><path d="M14.263 25.613c-.544 0-1.196.108-1.74.435-1.413.87-1.957 2.827-.978 4.241.543.979 1.63 1.523 2.609 1.523h.217l4.893-.109v.109c.109 0 .109-.109.109-.109 0-.109-.11-.109-.11-.109l-4.892.109h-.108c-1.088 0-1.957-.544-2.5-1.414-.436-.652-.544-1.414-.327-2.284.217-.761.652-1.414 1.305-1.849.108-.108.217-.108.434-.217.435-.218.87-.218 1.305-.218l5.11-.108v-.218h-.109v.109l-5.218.108Z"/></svg>