<svg width="269" height="387" viewBox="0 0 269 387" fill="none" xmlns="http://www.w3.org/2000/svg">
<path d="M31.7002 276.096C33.1002 255.096 32.7002 233.496 35.2002 211.996C36.6002 200.296 39.1002 188.696 40.1002 176.996C41.4002 160.996 39.8002 144.996 39.4002 128.896C39.3002 124.196 38.8002 119.496 40.0002 114.796C40.6002 112.396 41.5002 109.896 44.0002 109.396C48.3002 108.396 47.1002 105.996 46.2002 103.396C45.2002 100.496 44.3002 97.5959 43.2002 94.7959C37.2002 80.0959 42.3002 66.8959 49.6002 54.4959C55.8002 43.8959 63.9002 34.3959 72.4002 25.4959C81.9002 15.4959 93.7002 10.4959 107.6 10.2959C110.2 10.2959 112.8 10.1959 115.5 9.9959C116.8 9.8959 118.1 9.8959 119.5 9.7959C120.7 9.6959 122 9.7959 123.2 9.5959C123.6 9.4959 124 9.3959 124.4 9.2959C125.1 9.2959 125.8 9.4959 126.4 9.4959C127.9 9.6959 129.3 9.8959 130.8 10.1959C133.7 10.6959 136.6 11.1959 139.5 11.7959C145.3 12.8959 151 14.2959 156.7 15.7959C159.8 16.5959 162.9 17.4959 165.8 18.9959C171.1 21.8959 174.9 26.7959 180 29.9959C183.5 32.1959 187.4 33.4959 190.6 36.0959C194.2 38.9959 196.5 43.0959 198.7 47.1959C201.1 51.5959 203.5 55.9959 205.1 60.7959C205.5 61.9959 205.9 63.2959 206.2 64.4959C207.4 69.5959 208 74.7959 208.6 79.9959C209.2 85.0959 209.9 90.2959 211.6 95.1959C212 96.3959 212.5 97.5959 213 98.7959C213.2 99.2959 213.5 99.7959 213.6 100.296C213.6 100.996 213.5 101.696 213.5 102.396C213.4 117.496 212.1 132.496 211.8 147.596C211.3 171.996 209.6 196.396 206.9 220.696C206.4 224.996 207 229.196 208 233.296C210.9 245.496 211.8 257.696 210 270.296C208.5 280.896 208.5 291.796 207.8 302.596C207.5 307.396 204.9 309.396 200.2 309.496C194.7 309.596 189.7 307.296 184.2 307.196C176.5 306.996 169.1 308.796 161.6 309.596C149 310.796 136.8 308.496 124.4 306.996C122.2 306.796 120.1 305.796 117.9 305.896C115.6 305.896 113.4 305.996 111.1 305.896C110 305.796 108.9 305.796 107.8 305.496C107.1 305.296 106.6 304.996 105.9 304.896C102.9 304.596 99.9002 304.596 96.9002 304.396C93.9002 304.296 90.9002 304.096 87.9002 303.996C81.9002 303.696 75.8002 303.496 69.8002 303.296C63.8002 303.096 57.7002 302.896 51.7002 302.696C50.2002 302.696 48.7002 302.596 47.2002 302.596C45.8002 302.596 44.2002 302.296 42.8002 302.496C42.4002 302.596 42.0002 302.796 41.7002 302.896C40.3002 303.296 38.6002 303.096 37.2002 302.796C32.8002 301.596 31.7002 296.896 31.6002 292.896C31.5002 290.196 31.8002 287.496 31.9002 284.796C31.7002 282.096 31.7002 279.396 31.7002 276.096Z" fill="#6B00FA" stroke="black" stroke-width="0.5" stroke-miterlimit="10"/>
<path d="M216.2 359.997C215.4 365.197 216.1 371.097 214.6 376.697C214 378.897 213.5 380.997 211.1 381.897C208.8 382.697 207.2 381.697 206.1 379.697C205.3 378.297 203.9 378.397 202.5 378.297C191.2 377.597 179.9 376.897 168.7 376.297C130.1 374.297 91.6002 372.297 53.0002 370.297C42.2002 369.797 31.4002 369.497 20.6002 368.897C17.7002 368.697 11.9002 368.897 11.2002 364.997C11.0002 363.797 10.3002 362.797 10.0002 361.597C9.30018 359.097 9.20018 356.397 9.20018 353.797C9.00018 347.797 8.90018 341.697 8.70018 335.697C8.70018 334.697 8.70018 333.697 8.60018 332.697C8.60018 331.997 8.40018 331.597 8.10018 331.097C7.40018 329.597 8.00018 327.897 9.00018 326.697C10.3002 325.097 12.1002 324.397 14.0002 325.197C20.2002 327.497 26.7002 326.997 33.0002 327.397C62.6002 329.097 92.3002 330.397 122 331.797C149 333.097 175.9 334.497 202.9 335.897C212.2 336.397 215.8 340.197 215.8 349.597C215.8 352.897 216 356.197 216.2 359.997Z" fill="#4300BF" stroke="black" stroke-width="0.5" stroke-miterlimit="10"/>
<path d="M130.101 306.496C121.001 306.196 111.801 305.796 102.801 304.496C97.0008 303.596 91.4008 302.296 85.6008 301.496C79.4008 300.696 73.0008 300.596 66.8008 300.496C57.3008 300.296 47.6008 300.196 38.4008 302.496C29.2008 304.796 20.2008 309.896 15.3008 318.096C24.0008 324.496 35.4008 325.296 46.2008 325.896C52.8008 326.296 59.4008 326.596 66.0008 326.996C114.701 329.696 163.401 332.396 212.101 332.496C210.601 327.896 209.101 323.196 207.501 318.596C206.101 314.496 204.101 309.696 199.301 308.696C197.701 308.396 196.101 308.696 194.501 308.796C191.701 308.796 188.801 308.596 186.001 308.496C174.101 308.096 162.101 307.596 150.201 307.196C143.501 306.996 136.801 306.696 130.101 306.496Z" fill="#6B00FA" stroke="black" stroke-width="0.5" stroke-miterlimit="10"/>
<path d="M240.8 298.096C242.3 297.296 244 296.496 244.9 295.096C245.8 293.696 245.9 291.996 246 290.396C246.4 283.796 246.8 277.296 247.2 270.696C247.7 263.296 248.1 255.896 248 248.496C247.9 241.496 247.2 234.496 247.6 227.596C248 221.196 249.3 214.896 250 208.496C252.5 185.896 247.2 163.096 248.2 140.396C248.6 131.996 249.9 123.596 250.4 115.096C251.9 92.1963 247.9 68.8963 238.9 47.7963C238.1 45.9963 237.3 44.1963 235.8 42.9963C233.8 41.3963 231.1 41.1963 228.9 39.8963C225.8 37.9963 224.6 34.1963 222.9 30.8963C218.7 22.6963 210.7 17.0963 202 13.9963C193.3 10.8963 184.1 9.99626 175 9.09626C168.6 8.49626 162.2 7.89626 155.8 7.19626C152.7 6.89626 148.2 7.89626 148.7 10.9963C157.9 17.8963 168.5 22.8963 178.2 29.0963C187.9 35.2963 197.1 43.1963 201.7 53.7963C203.7 58.2963 204.7 63.1963 205.7 68.0963C208.7 82.0963 211.6 96.0963 212.3 110.396C212.8 120.796 212.1 131.296 211.4 141.796C210.5 155.496 209.9 169.296 209.3 182.996C208.7 196.696 208.3 210.496 208.1 224.196C207.8 237.996 207.7 251.696 207.8 265.396C207.8 272.296 207.9 279.196 208 285.996C208 289.396 208.1 292.896 208.2 296.296C208.3 299.496 208 302.996 208.4 306.296C209.1 311.196 214.6 310.496 218 308.996C224.2 306.296 230.2 303.096 236.4 300.096C237.5 299.696 239.7 298.096 240.8 298.096Z" fill="#4300BF" stroke="black" stroke-width="0.5" stroke-miterlimit="10"/>
<path d="M214.7 331.296C215.1 331.996 215.6 332.796 216.4 332.796C216.9 332.796 217.4 332.496 217.8 332.296C222.4 329.196 226.2 324.996 231.2 322.696C234.6 321.096 238.3 320.496 241.8 319.296C246.8 317.596 251.3 314.696 255.8 311.896C257.4 310.896 259.2 309.396 258.9 307.496C258.8 306.796 258.4 306.196 258 305.696C255.5 302.296 252.5 299.396 249.1 296.996C248.4 296.496 247.7 296.096 246.9 295.996C245.9 295.896 244.9 296.396 244 296.796C236.7 300.396 229.5 303.996 222.3 307.696C218.7 309.496 215.1 311.396 211.5 313.196C208.5 314.696 206 315.796 208 319.396C210.3 323.396 212.7 327.296 214.7 331.296Z" fill="#100342" stroke="black" stroke-width="0.5" stroke-miterlimit="10"/>
<path d="M217.899 374.296C217.999 374.996 218.1 375.796 218.5 376.296C219.6 377.496 221.499 376.796 222.899 375.996C234.999 369.196 247.1 362.396 259.2 355.596C260.4 354.896 261.7 354.196 262.5 352.996C263.3 351.696 263.4 350.096 263.5 348.596C263.9 340.496 264.2 332.396 264.6 324.196C264.7 321.896 264.699 319.396 263.399 317.596C261.999 315.596 259.299 314.996 256.899 315.296C254.499 315.596 252.299 316.796 250.199 317.996C240.499 323.396 230.8 328.696 221.1 333.996C217.9 335.796 214 336.996 214.3 341.196C214.6 346.096 215.399 350.996 215.899 355.796C216.199 358.896 216.599 361.896 216.899 364.996C217.199 368.096 217.899 371.296 217.899 374.296Z" fill="#100342" stroke="black" stroke-width="0.5" stroke-miterlimit="10"/>
<path d="M163.1 60.4961C165 62.0961 164.8 65.3961 162.8 66.8961C160.8 68.3961 157.6 67.3961 156.7 65.0961C155.8 62.7961 157.5 59.8961 159.9 59.4961C161 59.3961 162.2 59.6961 163.1 60.4961Z" fill="#4300BF"/>
<path d="M179.3 74.5967C179.2 75.0967 179.1 75.4967 179.1 75.9967C179.2 76.8967 179.8 77.5967 180.6 77.8967C182.7 78.9967 185.8 77.3967 186.1 74.9967C186.3 72.5967 183.7 70.2967 181.4 70.9967C181.2 70.8967 180.9 71.0967 180.8 71.2967C179.9 72.3967 179.7 73.3967 179.3 74.5967Z" fill="#4300BF"/>
<path d="M169.4 88.6964C167.9 88.6964 166.4 88.6964 165 88.6964C164.6 88.6964 164.2 88.6964 163.9 88.9964C163.7 89.1964 163.7 89.4964 163.6 89.7964C163.4 90.9964 163.3 92.0964 163.2 93.2964C163.1 94.6964 163.1 96.4964 164.3 97.1964C165.1 97.5964 166 97.4964 166.8 97.6964C167.5 97.8964 168.1 98.2964 168.8 98.1964C170.2 98.1964 171.1 96.6964 171.4 95.2964C171.7 93.7964 171.8 92.2964 171.1 90.8964C170.4 89.4964 169 88.4964 167.5 88.6964" fill="#4300BF"/>
<path d="M236.899 132.196C235.899 131.196 234.699 131.296 233.399 131.696C232.199 132.096 231.499 133.296 231.599 134.496C231.599 135.496 232.299 136.496 232.999 137.196C234.099 138.296 236.099 137.296 236.899 136.296C237.899 135.296 237.899 133.396 236.899 132.196Z" fill="#6B00FA"/>
<path d="M229.9 148.996C229.8 148.396 229.4 147.396 228.9 146.896C228.3 146.296 227.1 146.596 226.4 146.896C225.8 147.196 225.2 147.596 224.7 148.096C224.5 148.296 224.3 148.396 224.2 148.696C223.9 149.196 223.8 149.696 223.7 150.296C223.7 150.596 223.4 151.996 223.7 152.196C224.9 152.996 226.5 153.196 227.9 152.596C229.1 151.896 230.1 150.396 229.9 148.996Z" fill="#6B00FA"/>
<path d="M57.5999 275.396C55.6999 275.396 53.8999 276.296 52.9999 277.896C52.0999 279.496 52.3999 281.796 53.7999 282.996C55.2999 284.296 60.1999 284.196 61.5999 282.896C62.9999 281.596 61.0999 279.296 60.2999 277.396C59.0999 276.696 57.7999 275.996 56.4999 275.396" fill="#4300BF"/>
<path d="M48.8993 242.296C48.2993 243.896 47.7993 245.496 47.4993 247.196C47.3993 247.496 47.3993 247.896 47.5993 248.196C47.8993 248.696 48.4993 248.796 49.0993 248.896C50.5993 248.996 52.2993 248.996 53.1993 247.896C53.4993 247.596 53.6993 247.096 53.7993 246.696C54.2993 245.096 53.9993 243.196 52.5993 242.296C51.1993 241.396 48.9993 241.896 48.6993 243.496" fill="#4300BF"/>
<path d="M71.1996 258.696C70.9996 258.196 70.5996 257.396 70.0996 257.196C69.7996 257.096 69.2996 257.196 68.8996 257.196C68.4996 257.196 68.1996 257.196 67.7996 257.196C67.4996 257.196 67.1996 257.196 66.9996 257.296C66.5996 257.496 66.1996 258.096 65.8996 258.396C65.6996 258.496 65.5996 258.596 65.4996 258.796C65.1996 259.296 65.0996 259.996 65.0996 260.596C65.0996 260.796 65.0996 262.396 65.2996 262.396C66.2996 262.596 69.7996 262.896 70.7996 263.096C71.3996 263.196 69.6996 263.396 70.1996 262.996C70.3996 262.796 70.5996 262.596 70.7996 262.296C71.2996 261.096 71.5996 259.796 71.1996 258.696Z" fill="#4300BF"/>
<path d="M169.199 366.096C171.099 367.496 174.199 367.096 175.499 365.096C176.499 363.596 176.299 361.696 175.999 359.896C175.899 359.396 175.799 358.896 175.499 358.596C175.199 358.296 174.699 358.196 174.199 358.196C172.799 357.996 171.599 358.096 170.199 358.096C169.999 358.096 169.799 358.096 169.599 358.096C169.099 358.296 168.599 358.696 168.199 359.096C167.199 360.096 166.799 361.296 167.099 362.696C167.399 363.996 168.099 365.296 169.199 366.096Z" fill="#6B00FA"/>
<path d="M156.499 346.596C155.099 347.196 154.399 348.896 154.899 350.296C155.699 350.996 156.699 351.596 157.799 351.696C158.899 351.796 160.099 351.096 160.299 349.996C160.499 349.096 159.999 348.296 159.499 347.496C158.999 346.696 158.399 345.896 157.499 345.596C156.599 345.396 155.399 346.196 155.799 347.096" fill="#6B00FA"/>
<path d="M226.6 277.197C225 276.697 223.2 277.397 222.1 278.597C221 279.897 220.5 281.597 220.4 283.197C220.3 284.097 220.4 284.997 220.9 285.697C221.6 286.597 222.9 286.697 224 286.397C226.2 285.997 228.2 284.397 228.8 282.297C229.4 280.197 228 277.497 225.8 277.197C227.4 276.997 225.5 276.097 226.6 277.197Z" fill="#6B00FA"/>
<path d="M233.7 251.896C231.6 252.296 229.6 253.796 229.4 255.896C229.2 257.996 231.6 259.996 233.5 258.996C235.4 257.196 235.2 253.696 233.2 251.996" fill="#6B00FA"/>
<path d="M168 48.2963C166.8 48.5963 166.3 50.1963 166.8 51.2963C167.3 52.3963 168.6 52.9964 169.9 52.9964C170.5 52.9964 171.2 52.7963 171.5 52.2963C171.6 51.9963 171.7 51.6964 171.7 51.3964C171.7 50.2964 171.7 49.0964 171.4 47.9964C170.3 47.8964 169.2 47.8963 168.1 48.0963" fill="#100342"/>
<path d="M157 65.9961C156.1 66.0961 155.1 66.1961 154.3 66.5961C153.5 66.9961 152.8 67.8961 152.9 68.7961C153 69.9961 154.3 70.7961 155.4 71.2961C156.3 71.6961 157.5 72.0961 158.3 71.3961C159.1 70.6961 158.8 69.4961 159.4 68.5961C159.6 68.2961 159.9 67.9961 160 67.5961C160.1 66.8961 159.3 66.3961 158.6 66.2961C157.9 66.1961 157.1 66.0961 156.8 65.4961" fill="#100342"/>
<path d="M142.101 44.3965C141.201 44.8965 140.201 45.5965 139.701 46.4965C138.701 48.1965 139.501 50.8965 141.401 51.2965C143.301 51.6965 145.001 49.9965 146.001 48.2965C146.101 48.0965 146.201 47.8965 146.201 47.6965C146.201 47.4965 146.001 47.2965 145.801 47.1965C144.701 46.3965 143.601 45.5965 142.501 44.8965C142.201 44.6965 141.701 44.4965 141.501 44.8965" fill="#100342"/>
<path d="M65 61.9967C64.5 63.1967 64.3 64.5967 64.4 65.9967C65.3 66.4967 66.4 66.3967 67.3 65.9967C68.2 65.4967 68.9 64.7967 69.5 63.8967C69.6 63.6967 69.8 63.4967 69.8 63.1967C69.8 62.7967 69.6 62.3967 69.3 62.0967C68.7 61.3967 67.9 60.8967 67 60.7967C66.1 60.6967 65.1 61.3967 65 62.1967" fill="#100342"/>
<path d="M60.5005 78.2963C59.7005 78.6963 59.6005 79.9962 60.1005 80.6962C60.7005 81.3962 61.7005 81.6962 62.6005 81.5962C63.2005 81.4962 63.9005 81.2963 64.1005 80.7963C64.5005 79.9963 63.9005 79.0962 63.3005 78.4962C62.7005 77.7962 61.8005 76.9963 60.8005 77.2963" fill="#100342"/>
<path d="M100.999 26.8962C100.599 27.8962 100.599 29.0962 100.899 30.1962C101.399 30.9962 102.599 31.1962 103.399 30.6962C104.199 30.1962 104.599 29.1962 104.499 28.1962C104.299 27.0962 103.099 25.9962 102.099 26.4962" fill="#100342"/>
<path d="M188.8 124.696C188.1 125.896 188.4 127.696 189.6 128.496C190.8 129.296 192.6 128.896 193.3 127.696C193.7 127.096 193.7 126.196 193.5 125.496C193.1 124.496 192 123.796 190.9 123.796C189.8 123.696 188.7 124.196 187.9 124.896C188.3 124.996 188.6 125.196 189 125.296" fill="#100342"/>
<path d="M182.3 271.597C182.2 273.097 181.5 274.497 181.5 275.997C181.5 277.497 182.5 279.197 184 279.197C185.3 279.197 186.2 277.997 186.8 276.897C187.3 276.197 187.7 275.397 188.1 274.697C188.4 274.297 188.6 273.797 188.4 273.297C188.3 273.097 188.1 272.897 187.9 272.797C186.2 271.697 184.1 271.197 182 271.297" fill="#100342"/>
<path d="M182.3 271.597C182.2 273.097 181.5 274.497 181.5 275.997C181.5 277.497 182.5 279.197 184 279.197C185.3 279.197 186.2 277.997 186.8 276.897C187.3 276.197 187.7 275.397 188.1 274.697C188.4 274.297 188.6 273.797 188.4 273.297C188.3 273.097 188.1 272.897 187.9 272.797C186.2 271.697 184.1 271.197 182 271.297" stroke="black" stroke-width="0.5" stroke-miterlimit="10"/>
<path d="M173.5 254.296C174 255.396 174.8 256.496 175.9 256.796C177.8 257.396 180 255.096 179.2 253.296C178.4 251.496 175.2 251.396 174.4 253.296" fill="#100641"/>
<path d="M132.701 281.096C132.001 282.896 133.5 285.096 135.4 285.396C137.3 285.696 139.201 284.097 139.701 282.197C139.801 281.897 139.801 281.497 139.601 281.197C139.401 280.897 139.101 280.797 138.701 280.697C137.101 280.297 135.401 279.896 133.801 279.396C133.601 279.896 133.401 280.496 133.301 280.996" fill="#100641"/>
<path d="M58.0007 208.896C57.8007 209.796 57.5007 210.696 57.7007 211.596C57.8007 212.496 58.4007 213.396 59.3007 213.596C60.3007 213.896 61.4007 213.096 61.8007 212.096C62.2007 211.096 62.2007 209.996 62.1007 208.996C60.9007 208.796 59.7007 208.596 58.6007 208.396" fill="#100342"/>
<path d="M48.4998 343.597C48.0998 344.897 47.7999 346.597 48.8999 347.497C50.0999 348.497 51.7998 347.597 53.2998 347.897C53.5998 346.697 53.6999 345.397 53.3999 344.197C53.0999 342.997 52.1998 341.797 50.9998 341.597C49.7998 341.297 48.3998 342.297 48.4998 343.597C48.6998 343.597 49.0999 343.597 49.3999 343.597Z" fill="#100641"/>
<path d="M71.3008 352.296C71.3008 353.896 71.3008 355.396 71.4008 356.996C72.5008 357.196 73.7008 357.296 74.9008 357.496C75.2008 357.496 75.6008 357.596 75.9008 357.396C76.2008 357.196 76.3008 356.796 76.4008 356.396C76.8008 354.696 76.8008 352.796 75.6008 351.496C74.4008 350.296 71.8008 350.596 71.6008 352.296" fill="#100641"/>
<path d="M174.601 355.096C173.501 355.996 172.901 357.596 173.501 358.896C174.101 360.196 175.901 360.896 177.101 359.996C177.601 358.896 178.101 357.696 177.901 356.496C177.701 355.296 176.101 354.396 175.101 355.196" fill="#100641"/>
<path d="M229.401 355.296C229.201 356.096 229.101 356.996 229.401 357.796C229.701 358.596 230.801 359.096 231.501 358.596C231.801 358.396 231.901 358.096 232.001 357.796C232.401 356.896 232.601 355.996 232.501 355.096C232.401 354.196 231.701 353.296 230.801 353.196C229.901 353.096 228.901 353.996 229.201 354.796" fill="#100641"/>
<path d="M224.001 234.996C223.801 235.896 223.501 236.796 223.701 237.696C223.901 238.596 224.601 239.496 225.501 239.396C226.901 239.396 227.501 237.696 227.701 236.296C227.901 235.096 227.901 233.496 226.801 232.996C225.601 232.496 224.501 233.796 223.801 234.796" fill="#100641"/>
<path d="M234.101 84.1964C233.901 85.0964 233.801 86.0964 234.201 86.8964C234.601 87.6964 235.701 88.1964 236.501 87.6964C236.901 87.4964 237.101 87.0964 237.301 86.6964C237.601 85.8964 237.901 85.0964 237.701 84.2964C237.501 83.4964 236.901 82.6964 236.101 82.5964C235.301 82.4964 234.401 83.2964 234.601 84.0964" fill="#100342"/>
<path d="M228.6 97.5959C228.6 98.6959 228.6 99.6959 228.7 100.796C230.2 100.996 231.7 99.8959 231.9 98.3959C232.1 96.8959 230.9 95.3959 229.4 95.2959C229.5 95.9959 229.3 96.6959 229 97.2959" fill="#100342"/>
<path d="M241.8 100.096C241.4 101.196 241.1 102.396 241.3 103.596C241.5 104.796 242.7 105.796 243.8 105.596C245.3 105.296 245.6 103.196 245.5 101.596C245.4 100.496 245.3 99.196 244.4 98.596C243.5 97.996 241.8 98.696 242.2 99.696" fill="#100342"/>
<path d="M86.9014 213.896C88.6014 207.896 85.4014 202.496 80.8014 197.096C73.7014 188.796 67.2014 180.096 65.7014 168.496C62.4014 142.296 77.0014 116.696 101.101 107.396C126.401 97.596 154.401 106.396 169.501 128.796C176.201 138.696 179.601 149.596 179.601 161.596C179.601 172.596 176.101 182.096 168.401 189.996C164.701 193.696 161.601 197.996 157.701 201.496C153.601 205.096 152.101 209.196 152.401 214.396C152.601 218.496 152.101 222.596 152.201 226.696C152.201 226.996 152.201 227.296 152.201 227.496C152.201 227.896 152.101 228.196 152.101 228.496C152.101 228.696 152.101 230.596 152.201 230.596C151.501 230.596 150.801 230.596 150.201 230.696C149.401 230.696 148.601 230.796 147.801 230.696C146.301 230.496 144.901 230.496 143.401 230.396C143.101 230.396 142.801 230.396 142.401 230.296C141.801 230.296 141.301 230.196 140.701 230.196C140.501 230.196 140.301 230.096 140.001 230.096C139.701 230.096 139.401 230.096 139.101 230.096C138.001 230.096 136.801 230.096 135.601 230.096C135.601 229.496 135.501 228.896 135.501 228.296C135.401 227.096 135.401 225.896 135.401 224.696C135.401 222.396 135.301 220.096 135.301 217.796C135.301 217.696 135.301 217.596 135.201 217.496C135.101 217.396 135.001 217.396 134.901 217.396C132.501 217.196 130.101 217.396 127.701 217.696C127.701 219.096 127.701 220.496 127.601 221.996C127.601 222.396 127.601 222.796 127.601 223.196C127.601 223.796 127.601 224.296 127.501 224.896C127.501 225.096 127.401 225.196 127.401 225.296C127.301 225.496 127.301 225.796 127.301 225.996C127.201 227.096 127.201 228.296 127.401 229.396C126.701 229.396 126.001 229.396 125.201 229.396C124.301 229.396 123.301 229.396 122.401 229.196C121.301 228.996 120.101 229.096 119.001 228.996C118.601 228.996 118.101 228.996 117.701 228.896C116.601 228.896 115.501 228.696 114.401 228.696C113.801 228.696 113.301 228.696 112.701 228.696C112.601 228.696 111.101 228.796 111.001 228.896C111.001 227.896 111.101 226.796 111.101 225.796C111.101 225.296 111.101 224.796 111.201 224.196C111.201 223.696 111.301 223.196 111.301 222.696C111.301 220.696 111.301 218.696 111.201 216.596C108.601 216.096 105.901 215.896 103.201 215.896C103.101 218.196 103.001 220.496 102.801 222.796C102.701 223.896 102.701 225.096 102.601 226.296C102.601 226.596 102.601 226.896 102.601 227.196C102.601 227.396 102.601 227.596 102.501 227.696C102.401 227.896 101.901 227.896 101.701 227.896C100.301 227.996 98.8014 227.896 97.4014 227.796C96.8014 227.796 96.1014 227.696 95.5014 227.696C93.9014 227.596 92.3014 227.596 90.7014 227.496C90.2014 227.496 89.6014 227.396 89.1014 227.396C88.8014 227.296 88.5014 227.196 88.1014 227.196C88.0014 227.196 86.4014 227.096 86.4014 227.096C86.4014 226.996 86.4014 226.896 86.4014 226.796C86.4014 225.696 86.4014 224.496 86.4014 223.296C86.4014 222.796 86.3014 222.296 86.5014 221.796C86.6014 221.596 86.5014 221.396 86.5014 221.196C86.5014 220.696 86.5014 220.196 86.5014 219.696C86.5014 218.396 86.6014 217.196 86.6014 215.896C86.8014 215.896 86.8014 215.496 86.9014 213.896ZM119.301 195.496C120.201 195.596 121.101 195.596 122.001 195.696C123.401 195.796 124.901 195.896 126.301 196.096C125.801 194.596 125.301 193.096 124.701 191.696C124.501 191.096 124.201 190.596 124.001 190.096C123.801 189.596 123.501 189.196 123.301 188.696C123.201 188.596 123.201 188.396 123.201 188.296C123.101 187.796 122.901 187.396 122.801 186.896C122.301 185.696 121.901 184.396 121.401 183.096C121.201 182.496 121.001 181.996 120.701 181.396C120.701 181.496 120.501 181.796 120.501 181.796C120.401 181.996 120.201 182.196 120.101 182.396C118.801 184.196 117.601 185.996 116.501 187.896C115.901 188.796 115.401 189.796 114.801 190.796C114.501 191.296 114.301 191.796 114.001 192.196C113.901 192.396 113.801 192.596 113.701 192.796C113.601 193.196 113.201 193.596 112.901 193.996C112.501 194.496 112.101 194.996 111.801 195.596C111.801 195.596 112.101 195.596 112.201 195.596C112.301 195.596 112.501 195.596 112.601 195.596C112.901 195.596 113.201 195.596 113.501 195.596C114.101 195.596 114.601 195.596 115.201 195.496C115.401 195.496 115.701 195.396 115.901 195.396C116.201 195.396 116.501 195.396 116.801 195.496C117.401 195.496 117.901 195.596 118.501 195.596C118.801 195.396 119.101 195.396 119.301 195.496Z" fill="#E0E3BD" stroke="black" stroke-width="0.5" stroke-miterlimit="10"/>
<path d="M84.6008 211.096C86.2008 205.196 83.1008 199.896 78.6008 194.596C71.6008 186.396 65.2008 177.896 63.8008 166.596C60.6008 140.896 74.9008 115.896 98.5008 106.796C123.301 97.1961 150.701 105.796 165.601 127.796C172.101 137.496 175.501 148.196 175.601 159.896C175.601 170.696 172.201 179.996 164.601 187.696C161.001 191.396 158.001 195.596 154.101 198.896C150.101 202.396 148.601 206.396 148.901 211.596C149.101 215.596 148.601 219.596 148.701 223.596C148.701 223.896 148.701 224.096 148.701 224.396C148.701 224.696 148.601 225.096 148.601 225.396C148.601 225.596 148.601 227.396 148.701 227.396C148.001 227.396 147.401 227.396 146.701 227.396C145.901 227.396 145.101 227.496 144.301 227.396C142.901 227.196 141.401 227.196 140.001 227.096C139.701 227.096 139.401 227.096 139.101 226.996C138.501 226.996 138.001 226.896 137.401 226.896C137.201 226.896 137.001 226.796 136.801 226.796C136.501 226.796 136.201 226.796 135.901 226.796C134.801 226.796 133.601 226.796 132.501 226.796C132.501 226.196 132.401 225.696 132.401 225.096C132.301 223.896 132.301 222.796 132.301 221.596C132.301 219.296 132.201 217.096 132.201 214.796C132.201 214.696 132.201 214.596 132.101 214.496C132.001 214.396 131.901 214.396 131.801 214.396C129.501 214.196 127.101 214.396 124.801 214.696C124.801 216.096 124.801 217.496 124.701 218.896C124.701 219.296 124.701 219.696 124.701 220.096C124.701 220.596 124.701 221.196 124.601 221.796C124.601 221.996 124.501 222.096 124.501 222.196C124.401 222.396 124.401 222.696 124.401 222.896C124.301 223.996 124.301 225.096 124.501 226.196C123.801 226.196 123.101 226.196 122.401 226.196C121.501 226.196 120.601 226.196 119.701 225.996C118.601 225.796 117.501 225.896 116.301 225.796C115.901 225.796 115.401 225.796 115.001 225.696C113.901 225.696 112.901 225.496 111.801 225.496C111.201 225.496 110.701 225.496 110.101 225.496C110.001 225.496 108.501 225.596 108.501 225.696C108.501 224.696 108.601 223.696 108.601 222.596C108.601 222.096 108.601 221.596 108.701 221.096C108.701 220.596 108.801 220.096 108.801 219.596C108.801 217.596 108.801 215.596 108.701 213.596C106.101 213.196 103.501 212.896 100.901 212.896C100.801 215.196 100.701 217.396 100.601 219.696C100.501 220.796 100.501 221.996 100.401 223.096C100.401 223.396 100.401 223.696 100.401 223.996C100.401 224.196 100.401 224.396 100.301 224.496C100.201 224.696 99.7008 224.696 99.5008 224.696C98.1008 224.796 96.7008 224.696 95.3008 224.596C94.7008 224.596 94.0008 224.496 93.4008 224.496C91.8008 224.396 90.2008 224.396 88.7008 224.296C88.2008 224.296 87.7008 224.196 87.1008 224.196C86.8008 224.196 86.5008 223.996 86.1008 223.996C86.0008 223.996 84.5008 223.896 84.5008 223.896C84.5008 223.796 84.5008 223.696 84.5008 223.596C84.5008 222.496 84.5008 221.296 84.5008 220.196C84.5008 219.696 84.4008 219.196 84.6008 218.796C84.7008 218.596 84.6008 218.396 84.6008 218.196C84.6008 217.696 84.6008 217.196 84.6008 216.696C84.6008 215.496 84.7008 214.196 84.7008 212.996C84.5008 212.996 84.5008 212.696 84.6008 211.096ZM116.401 192.996C117.301 193.096 118.201 193.096 119.001 193.196C120.401 193.296 121.801 193.396 123.201 193.596C122.701 192.196 122.301 190.696 121.701 189.196C121.501 188.596 121.201 188.096 121.001 187.596C120.801 187.096 120.501 186.696 120.301 186.196C120.201 186.096 120.201 185.896 120.201 185.796C120.101 185.296 119.901 184.896 119.801 184.396C119.301 183.196 118.901 181.896 118.401 180.696C118.201 180.096 118.001 179.596 117.701 178.996C117.701 179.096 117.501 179.296 117.501 179.396C117.401 179.596 117.201 179.796 117.101 179.996C115.901 181.796 114.701 183.596 113.601 185.396C113.001 186.296 112.501 187.296 112.001 188.196C111.701 188.696 111.501 189.096 111.201 189.596C111.101 189.796 111.001 189.996 110.901 190.196C110.801 190.596 110.401 190.996 110.101 191.296C109.701 191.796 109.401 192.296 109.001 192.796C109.001 192.796 109.301 192.796 109.401 192.796C109.501 192.796 109.701 192.796 109.801 192.796C110.101 192.796 110.401 192.796 110.701 192.796C111.301 192.796 111.801 192.796 112.401 192.696C112.601 192.696 112.901 192.596 113.101 192.596C113.401 192.596 113.701 192.596 114.001 192.696C114.601 192.696 115.101 192.796 115.701 192.796C115.901 192.996 116.201 192.996 116.401 192.996Z" fill="#E0E3BD" stroke="black" stroke-width="0.5" stroke-miterlimit="10"/>
<path d="M155.101 112.596C136.801 97.9955 116.101 95.5955 94.7006 105.196C60.4006 120.596 51.2006 166.195 71.8006 188.896C74.7006 192.096 76.9006 195.796 79.9006 198.996C82.6006 201.896 83.5006 204.996 83.3006 208.896C83.0006 214.296 82.5006 219.796 83.3006 225.696L100.901 226.496L101.201 213.996L108.001 214.196V214.296C108.001 214.396 108.001 214.496 108.001 214.596C108.001 214.696 108.001 214.896 108.001 214.996C108.001 215.196 108.001 215.396 108.001 215.496C108.001 215.696 108.001 215.896 108.001 216.096C108.001 216.296 108.001 216.596 108.001 216.796C108.001 217.096 108.001 217.296 108.001 217.596C108.001 217.896 108.001 218.196 108.001 218.496C108.001 218.796 108.001 219.096 108.001 219.396C108.001 219.696 108.001 219.996 108.001 220.296C108.001 220.596 108.001 220.896 108.001 221.196C108.001 221.496 108.001 221.796 108.001 222.096C108.001 222.396 108.001 222.596 108.001 222.896C108.001 223.096 108.001 223.396 108.001 223.696C108.001 223.896 108.001 224.196 108.001 224.396C108.001 224.596 108.001 224.796 108.001 224.996C108.001 225.096 108.001 225.296 108.001 225.496C108.001 225.596 108.001 225.696 108.001 225.796C108.001 226.096 107.901 226.396 107.901 226.796C108.001 226.796 108.001 226.796 108.101 226.796H108.201H108.301C108.401 226.796 108.601 226.796 108.701 226.796C109.001 226.796 109.301 226.796 109.601 226.796C110.801 226.796 111.901 226.896 113.101 226.896C114.501 226.996 116.001 226.996 117.501 227.096C118.801 227.196 120.201 227.196 121.501 227.296C122.301 227.296 123.101 227.396 124.001 227.396C124.101 227.396 124.201 227.396 124.301 227.396C124.501 227.396 124.601 227.396 124.801 227.296C124.801 226.996 124.901 226.596 124.901 226.296V226.196C124.901 226.096 124.901 225.896 125.001 225.796C125.001 225.496 125.101 225.196 125.101 224.996C125.101 224.796 125.101 224.596 125.101 224.396C125.101 224.196 125.101 223.996 125.101 223.896C125.101 223.696 125.101 223.596 125.101 223.396C125.101 223.196 125.101 222.996 125.101 222.796C125.101 222.596 125.101 222.296 125.101 221.996C125.101 221.696 125.101 221.396 125.101 221.196C125.101 220.896 125.101 220.596 125.101 220.296C125.101 219.996 125.101 219.696 125.101 219.396C125.101 219.096 125.101 218.796 125.101 218.496C125.101 218.196 125.101 217.896 125.101 217.596C125.101 217.396 125.101 217.096 125.101 216.796C125.101 216.596 125.101 216.396 125.101 216.196C125.101 215.996 125.101 215.896 125.101 215.696C125.101 215.596 125.101 215.496 125.101 215.396V215.296L131.901 215.496L131.601 227.896C132.701 227.896 150.101 228.696 150.101 228.696C150.101 225.096 150.101 221.496 150.101 217.796C150.101 216.096 150.101 214.396 150.101 212.696C150.101 212.196 150.101 211.696 150.001 211.296C150.001 210.096 150.001 208.896 150.201 207.796C150.401 206.596 150.801 205.296 151.601 204.296C151.801 204.096 152.001 203.796 152.201 203.596C152.501 203.296 152.701 203.096 153.001 202.796C153.501 202.296 154.001 201.696 154.501 201.196C155.501 200.096 156.501 199.096 157.501 197.996C158.501 196.896 159.401 195.896 160.401 194.796C161.401 193.696 162.301 192.696 163.201 191.596C164.101 190.496 165.101 189.496 166.001 188.396C166.901 187.296 167.801 186.296 168.701 185.196C169.201 184.696 169.601 184.096 170.101 183.596C173.501 179.396 175.901 174.696 176.701 169.296C180.301 146.196 173.201 126.996 155.101 112.596ZM98.4006 210.696C98.2006 210.696 98.0006 210.696 97.7006 210.696C97.6006 210.696 97.5006 210.696 97.4006 210.696C97.4006 211.196 97.4006 211.696 97.4006 212.196C97.4006 213.196 97.3006 214.296 97.3006 215.296C97.2006 217.396 97.1006 219.596 97.1006 221.696L88.2006 221.296C88.2006 220.396 88.3006 219.496 88.3006 218.596C88.4006 216.596 88.5006 214.596 88.5006 212.496C88.6006 210.396 88.7006 208.196 88.7006 206.096C88.7006 205.296 88.8006 204.496 88.8006 203.696C88.8006 203.296 88.7006 202.896 88.7006 202.596C88.7006 202.196 88.6006 201.796 88.6006 201.396C88.6006 201.196 88.5006 201.096 88.5006 200.896C88.4006 200.796 88.4006 200.596 88.3006 200.496C88.2006 200.196 88.1006 199.896 87.9006 199.596C87.6006 198.996 87.3006 198.396 87.0006 197.796C86.7006 197.196 86.3006 196.696 85.9006 196.096C85.7006 195.796 85.4006 195.396 85.1006 195.096C80.9006 189.996 76.9006 184.696 72.9006 179.396C67.2006 171.595 66.2006 162.496 67.3006 153.296C69.8006 132.596 80.6006 117.596 99.9006 109.896C119.001 102.296 137.101 105.496 152.301 119.196C167.801 133.096 173.501 150.796 168.501 171.496C167.301 176.796 163.901 180.596 160.501 184.396C156.301 189.095 152.001 193.696 147.701 198.296C147.501 198.496 147.301 198.596 147.201 198.796C147.201 198.896 147.201 198.896 147.101 198.996C147.001 199.096 147.001 199.196 146.901 199.296C146.801 199.496 146.601 199.696 146.501 199.896C146.401 199.996 146.401 200.096 146.301 200.196C146.201 200.296 146.201 200.296 146.201 200.396C146.001 200.796 145.801 201.196 145.601 201.596C145.201 202.496 145.001 203.496 144.801 204.496C144.701 204.996 144.701 205.496 144.701 205.996C144.701 206.196 144.701 206.496 144.701 206.696C144.701 206.796 144.701 206.896 144.701 207.096C144.701 207.296 144.701 207.496 144.701 207.696C144.701 207.996 144.701 208.396 144.701 208.696C144.701 209.296 144.701 209.796 144.701 210.396C144.701 211.496 144.701 212.696 144.701 213.796C144.701 214.896 144.701 216.096 144.701 217.196C144.701 218.296 144.701 219.496 144.701 220.596C144.701 221.196 144.701 221.696 144.701 222.296C144.701 222.596 144.701 222.896 144.701 223.196C144.701 223.296 144.701 223.396 144.701 223.496V223.596C144.601 223.696 144.501 223.596 144.501 223.596C144.401 223.596 144.201 223.596 144.101 223.596C143.601 223.596 143.001 223.596 142.501 223.496C140.301 223.396 138.101 223.296 135.901 223.196C136.001 221.296 136.001 219.396 136.101 217.596C136.101 216.996 136.201 216.296 136.201 215.696C136.201 214.896 136.201 214.196 136.201 213.396C136.201 213.096 136.201 212.896 136.201 212.596L134.901 212.396C134.401 212.296 133.901 212.196 133.401 212.196C132.301 212.096 131.301 211.996 130.201 211.896C129.101 211.796 128.001 211.796 126.901 211.796C125.801 211.796 124.701 211.796 123.601 211.796C122.701 211.796 121.701 211.796 120.801 211.796L120.401 223.296L111.501 222.896L111.901 211.596C111.401 211.496 110.801 211.396 110.301 211.296C109.201 211.096 108.201 210.996 107.101 210.896C106.001 210.796 104.901 210.796 103.801 210.696C102.701 210.696 101.601 210.696 100.501 210.596C100.001 210.596 99.4006 210.596 98.9006 210.596" fill="black"/>
<path d="M120.601 177.295C120.501 177.195 120.501 176.995 120.401 176.895C120.201 176.595 120.101 176.195 119.901 175.895C119.801 175.695 119.701 175.495 119.601 175.295C119.501 175.095 119.401 174.995 119.301 174.795C118.901 174.195 118.601 173.495 118.201 172.895C118.001 172.595 117.901 172.295 117.701 171.895C117.701 171.795 117.601 171.695 117.601 171.695C117.601 171.595 117.501 171.495 117.501 171.495C117.401 171.495 117.401 171.495 117.401 171.595C117.401 171.695 117.301 171.695 117.301 171.795C117.301 171.895 117.201 171.995 117.201 172.095C117.101 172.295 117.001 172.495 116.901 172.595C116.501 173.195 116.101 173.895 115.801 174.495C115.401 175.095 115.001 175.795 114.701 176.395C114.201 177.195 113.801 177.995 113.301 178.895C113.101 179.195 113.001 179.495 112.801 179.695C112.601 179.995 112.401 180.295 112.301 180.595C112.101 180.895 111.901 181.195 111.701 181.595C111.501 181.895 111.301 182.295 111.101 182.595C110.901 182.995 110.701 183.295 110.501 183.695C110.301 184.095 110.101 184.395 109.901 184.795C109.701 185.195 109.501 185.595 109.301 185.895C109.101 186.295 108.901 186.695 108.701 186.995C108.501 187.395 108.301 187.695 108.101 188.095C107.901 188.495 107.701 188.795 107.501 189.195C107.301 189.595 107.101 189.895 106.901 190.295C106.701 190.595 106.501 190.995 106.301 191.295C106.101 191.595 105.901 191.895 105.801 192.195C105.601 192.495 105.501 192.795 105.301 193.095C105.201 193.395 105.001 193.595 104.901 193.895C104.801 194.095 104.601 194.295 104.501 194.595C104.401 194.795 104.301 194.995 104.201 195.195C104.101 195.295 104.001 195.495 104.001 195.595C103.901 195.695 103.901 195.795 103.801 195.895L103.701 195.995H103.801C104.401 195.995 104.901 195.995 105.501 196.095C105.601 196.095 105.701 196.095 105.901 196.095C106.001 196.095 106.201 196.095 106.301 196.095C106.401 196.095 106.401 196.095 106.501 196.095C106.601 196.095 106.701 196.095 106.801 196.095C106.901 196.095 107.001 196.095 107.201 196.095C107.301 196.095 107.501 196.095 107.601 196.095C107.801 196.095 108.001 196.095 108.101 196.095C108.301 196.095 108.501 196.095 108.701 196.095C108.901 196.095 109.101 196.095 109.301 196.095C109.501 196.095 109.801 196.095 110.001 196.095C110.201 196.095 110.501 196.095 110.701 196.095C111.001 196.095 111.201 196.095 111.501 196.095C111.801 196.095 112.001 196.095 112.301 196.095C112.601 196.095 112.901 196.095 113.101 196.095C113.401 196.095 113.701 196.095 114.001 196.095C114.301 196.095 114.601 196.095 114.901 196.095C115.201 196.095 115.501 196.095 115.801 196.095C116.101 196.095 116.401 196.095 116.701 196.095C117.001 196.095 117.301 196.095 117.601 196.095C117.901 196.095 118.201 196.095 118.501 196.095C118.801 196.095 119.101 196.095 119.401 196.095C119.701 196.095 120.001 196.095 120.301 196.095C120.601 196.095 120.901 196.095 121.101 196.095C121.401 196.095 121.601 196.095 121.901 196.095C122.201 196.095 122.401 196.095 122.701 196.095C122.901 196.095 123.201 196.095 123.401 196.095C123.601 196.095 123.901 196.095 124.101 196.095C124.301 196.095 124.501 196.095 124.701 196.095C124.901 196.095 125.101 196.095 125.301 196.095C125.501 196.095 125.601 196.095 125.801 196.095L129.401 196.195C129.501 196.195 129.501 196.195 129.501 196.195C129.301 195.595 129.001 195.095 128.801 194.495C128.201 193.095 120.701 177.495 120.601 177.295C120.601 177.395 120.601 177.395 120.601 177.295ZM110.301 192.395C112.701 188.295 114.901 184.595 117.401 180.295C119.101 184.895 120.501 188.495 122.201 192.895C118.101 192.695 114.701 192.495 110.301 192.395Z" fill="black"/>
<path d="M53.5996 115.296C53.5996 115.796 53.6996 116.196 53.6996 116.596L53.5996 115.296ZM53.5996 115.296C53.5996 115.796 53.6996 116.196 53.6996 116.596Z" fill="#E0E3BD"/>
<path d="M53.5996 115.296C53.5996 115.796 53.6996 116.196 53.6996 116.596M53.5996 115.296C53.5996 115.796 53.6996 116.196 53.6996 116.596L53.5996 115.296Z" stroke="black" stroke-width="2" stroke-miterlimit="10"/>
<path d="M265.3 306.296C260.2 302.196 256.4 296.896 251.6 292.296C251.9 287.196 252.5 282.596 252.5 277.996C252.4 265.396 253.2 252.796 252.2 240.196C251.6 232.496 253.7 225.096 255.8 217.696C259.9 203.596 257.6 189.096 255.5 175.196C254 165.296 253.8 155.696 254.5 145.896C255.2 137.296 255.3 128.696 256 120.096C256.9 107.896 258 95.8958 254.9 83.5958C252.2 73.1958 251.6 62.2958 247.4 52.2958C244.1 44.4958 244.1 44.4958 233.9 30.9958C224.8 21.3958 223.4 21.2958 215.6 16.5958C209.6 12.9958 203.7 9.59583 196.4 8.89583C187.1 7.99583 178.5 3.89583 169.3 2.39583C153.3 -0.204172 137.5 1.19583 121.7 3.59583C100.5 6.89583 79.6 10.9958 63.3 27.1958C55.6 34.8958 47.7 42.1958 44.4 52.8958C43.5 55.8958 41.5 58.4958 40 61.1958C33.1 72.8958 34.7 78.1958 33.7 93.3958C34.3 94.4958 32.3 101.096 31.6 102.896C30.7 113.096 30.6 106.596 30.7 110.996C31 124.296 31.1 137.596 31.2 150.796C31.3 162.796 31.8 174.796 29.6 186.596C27.2 199.096 27.4 211.696 27.3 224.296C27.3 227.096 27.4 229.996 26.7 232.696C24.6 242.096 25.1 251.496 25.6 260.896C26.3 273.696 25.7 286.396 27.2 299.496C19.8 305.296 12.5 311.096 5.1 316.696C2.5 318.596 1 320.696 1 324.096C1.2 338.196 1.2 352.296 1.3 366.396C1.3 370.196 3.1 372.296 7 372.596C25.1 373.696 43.1 374.796 61.1 375.996C84.5 377.496 107.8 378.896 131.2 380.396C157.7 382.096 184.2 383.896 210.7 385.596C214.3 385.796 217.6 384.996 220.7 383.096C234.6 374.696 248.6 366.296 262.6 358.096C266 356.096 267.3 353.496 267.3 349.596C267.4 337.296 267.7 324.996 268 312.796C268 310.296 267.5 307.996 265.3 306.296ZM35.2 243.096C36.4 234.696 37.5 226.396 37.3 217.896C37 206.896 38.3 196.096 39.9 185.296C42.1 170.296 41.3 155.196 41 140.096C40.9 134.596 40.8 129.096 40.9 123.696C40.9 122.296 41 120.896 41.1 119.496C41.2 118.696 41.3 117.896 41.3 116.996C41.3 116.596 41.6 116.296 41.9 115.996C42.3 115.496 42.8 114.996 43.2 114.496C43.3 114.396 43.4 114.296 43.6 114.196C43.7 114.196 43.9 114.196 44 114.296C45.8 115.096 48.9 117.996 49 118.196C49 118.296 52.6 120.996 52.6 121.096C52.7 121.196 50.4 126.196 50.4 126.396C54.7 126.396 53.6 124.996 57.1 118.696C57.3 118.296 53.6 115.796 53.6 115.296C53 114.696 52.8 113.896 52.5 113.196C52.2 112.296 51.7 111.496 51.2 110.796C50.9 110.396 50.6 110.096 50.3 109.696C50 109.396 49.7 109.096 49.4 108.796C49.2 108.596 49.1 108.396 49.1 108.096C49 107.696 48.8 107.396 48.7 106.996C48.3 106.096 47.9 105.096 47.6 104.096C46.9 102.196 46.3 100.196 45.7 98.1958C45.1 96.1958 44.5 94.1958 43.8 92.1958C43.4 91.0958 43 90.0958 42.6 88.9958C43.3 79.5958 45.1 70.5958 51.3 62.9958C52.7 61.1958 53.6 58.8958 54.3 56.7958C57.1 47.5958 63.3 40.9958 70.4 35.0958C74.8 31.3958 78.8 26.9958 83.9 24.4958C84 24.3958 84.4 24.6958 84.5 24.6958C84.7 24.7958 84.9 24.8958 85.1 24.9958C85.5 25.2958 85.8 25.5958 86 25.9958C86.4 26.4958 86.5 27.1958 86.8 27.6958C87 28.1958 87.2 28.7958 87.4 29.2958C87.8 30.3958 88.2 31.3958 88.5 32.4958C88.6 32.6958 88.6 32.7958 88.7 32.8958C88.7 32.9958 88.8 33.0958 88.8 33.0958C88.8 33.0958 89 33.1958 89.1 33.1958C89.5 33.2958 89.9 33.4958 90.3 33.5958C90.4 33.5958 89.9 36.2958 89.9 36.4958V36.9958C89.9 37.3958 89.8 37.8958 89.8 38.2958C89.7 39.1958 89.7 40.0958 89.6 40.9958C89.6 41.2958 89.5 41.6958 89.6 41.9958C89.7 42.2958 89.8 42.4958 89.9 42.7958C90.7 44.3958 91.1 50.3958 91.1 50.3958C91.1 50.3958 92.4 46.9958 92.3 46.7958C92.2 46.4958 92.2 46.2958 92.1 45.9958C92 45.4958 91.9 44.8958 91.8 44.3958C91.7 43.6958 91.6 42.9958 91.5 42.1958C91.5 41.8958 91.4 41.6958 91.4 41.3958C91.4 41.1958 91.3 41.0958 91.4 40.8958C91.5 40.5958 91.6 40.2958 91.8 40.0958C91.9 39.7958 92.1 39.4958 92.2 39.1958C92.2 39.1958 92.8 39.2958 92.9 39.3958C93.1 39.4958 93.3 39.5958 93.5 39.5958C94.1 39.6958 94.6 39.8958 95.1 40.1958C95.3 40.2958 95.5 40.3958 95.7 40.5958C95.8 40.7958 95.9 40.9958 96 41.1958C96.5 42.4958 97 43.8958 97.6 45.1958C97.7 45.3958 97.8 45.6958 98 45.8958C98.2 46.0958 98.4 46.1958 98.6 46.2958C99.9 47.0958 101.3 47.8958 102.6 48.6958C102 47.6958 101.1 46.8958 100.3 45.8958C99.1 44.3958 98.3 42.5958 98 40.6958C97.9 40.2958 97.9 39.8958 97.9 39.4958C96.9 38.7958 95.9 38.1958 94.9 37.4958C94.5 37.1958 94 36.9958 93.7 36.6958C93.6 36.5958 93.5 36.3958 93.5 36.1958C93.4 35.8958 93.3 35.6958 93.2 35.3958C92.8 34.2958 92.5 33.1958 92.1 32.1958C92 31.8958 91.9 31.4958 91.6 31.3958C91.5 31.2958 91.3 31.2958 91.1 31.1958C90.8 30.9958 90.7 30.5958 90.6 30.2958C90.5 29.8958 90.4 29.3958 90.3 28.9958C90.2 28.6958 90.1 28.2958 90.1 27.8958V27.4958C90 26.7958 89.8 26.0958 89.8 25.3958C89.7 23.5958 90.1 21.7958 91.1 20.1958C121.6 15.6958 152.4 11.9958 179.2 35.4958V49.4958C179.2 49.8958 179.2 50.3958 179 50.7958C178.9 50.8958 178.9 50.9958 178.8 51.1958C178.7 51.4958 178.6 51.7958 178.4 51.9958C178.1 52.4958 177.8 52.9958 177.4 53.5958C177 54.1958 176.6 54.7958 176.4 55.4958C176.5 55.3958 176.6 55.3958 176.7 55.2958L177 54.9958C177.2 54.7958 177.5 54.5958 177.7 54.4958C178.2 54.1958 178.6 53.7958 179 53.3958C179.2 53.1958 179.3 52.9958 179.5 52.6958C179.7 52.3958 179.9 51.8958 180.1 51.5958C180.4 51.2958 180.6 50.7958 180.7 50.2958C180.8 50.0958 180.9 49.9958 180.9 49.7958C181 49.5958 181 49.3958 181.1 49.0958C181.2 48.5958 181.3 48.1958 181.4 47.6958C181.8 45.6958 181.9 43.6958 182.2 41.6958C182.3 40.8958 182.5 40.1958 182.7 39.3958C191 45.8958 199.6 51.5958 200.8 62.9958C201.8 72.5958 203.5 81.9958 206.2 91.2958C207 93.9958 207.7 96.7958 207.7 99.5958C207.7 118.296 208.6 136.896 205.6 155.496C204 165.396 204.1 175.696 204 185.796C204 196.596 203.4 207.396 202.4 218.096C201.4 228.596 201.4 238.996 204 249.196C205.4 254.596 204.5 259.996 203.9 265.496C202.7 276.196 202.2 286.996 201.5 297.796C201.3 300.396 201.4 303.096 200.3 305.896C145.9 302.896 91.6 299.896 37 296.796C37 296.796 36.8 295.096 36.8 294.996C36.7 294.296 36.6 293.596 36.5 292.896C36.3 291.496 36.2 290.196 36.1 288.796C36 287.396 36.1 286.096 36.2 284.796V284.296C36.2 283.796 36.3 283.196 36.4 282.796C36.5 282.296 36.6 281.696 36.7 281.196C37 279.996 37.3 278.796 37.8 277.596C37.9 277.396 37.9 277.296 38 277.096C38.1 276.996 38.3 276.896 38.5 276.796C41.1 275.796 43.6 274.796 46.2 273.796C46.5 273.696 46.6 273.296 46.8 272.996C47 272.696 47.2 272.396 47.5 272.096C47.7 271.896 48 271.696 48.2 271.496C48.6 271.096 48.8 270.596 49 270.096C49.4 269.296 49.8 268.396 50.1 267.596C50.3 267.196 50.5 266.796 50.6 266.496C50.6 266.396 50.6 266.296 50.7 266.196C51 265.696 51.7 265.296 52.1 264.996C53 264.296 53.8 263.496 54.4 262.596C53.6 262.996 53 263.496 52.2 263.996C51.9 264.196 51.5 264.396 51.1 264.496C51 264.496 50.9 264.496 50.7 264.596C50.6 264.596 50.6 264.696 50.6 264.696C50.4 264.896 50.2 265.196 50 265.496C49.6 266.096 49.2 266.696 48.8 267.296C48.3 267.996 47.8 268.696 47.3 269.496C46.8 270.296 46.5 271.096 45.7 271.496C45.5 271.596 45.2 271.696 44.9 271.796C42.4 272.596 39.8 273.496 37.3 274.296C36.8 274.496 36.3 274.596 35.8 274.996V273.996C35.9 273.496 35.8 272.996 35.9 272.596V270.596C35.9 269.196 35.8 267.896 35.8 266.496C35.7 263.796 35.5 261.096 35.4 258.496C34.6 253.496 34.5 248.296 35.2 243.096ZM33 307.996C34.4 306.896 36.2 307.196 37.8 307.296C69.9 309.096 102 310.796 134.1 312.596C155.1 313.796 176.1 314.996 197.2 316.096C198.2 316.196 199.2 316.396 200.3 316.496C202.3 320.496 203.9 324.596 205.1 329.596C143.8 325.596 83 321.696 21.1 317.696C25.3 313.496 29.3 310.896 33 307.996ZM208.3 374.896C203.8 375.596 199.4 374.996 195.3 374.496C195.1 374.496 194.9 374.296 194.8 374.196C194.6 374.096 194.5 373.996 194.3 373.796C194 373.596 193.7 373.296 193.4 372.996C192.8 372.396 192.4 371.596 191.8 370.996C191.6 370.796 191.3 370.596 191.2 370.396C191 369.996 190.9 369.596 190.8 369.196C190.8 369.096 190.8 368.996 190.7 368.796C190.6 368.696 190.5 368.596 190.5 368.396C190 367.796 189.6 367.196 189.3 366.496C189.2 366.296 189.2 365.996 189.2 365.796C189.3 365.196 189 364.596 188.8 364.096C188.7 363.596 188.6 363.196 188.5 362.696C188.5 362.596 188.4 362.396 188.3 362.296C188.1 361.996 187.8 361.796 187.5 361.596C186.8 360.796 186.1 360.096 185.4 359.396C185.1 359.096 184.8 358.896 184.5 358.696C184.7 358.796 184.8 359.096 185 359.296C185.1 359.496 185.3 359.696 185.5 359.896C185.8 360.296 186.1 360.696 186.3 361.296C186.3 361.496 186.5 361.796 186.6 361.996C186.9 362.596 187.1 363.096 187.2 363.696C187.4 364.496 187.5 365.296 187.5 366.096C187.6 366.796 187.6 367.596 187.7 368.296C187.7 368.296 188.2 368.496 188.3 368.496C188.4 368.596 188.4 368.796 188.4 368.996C188.6 369.496 188.9 369.996 189.2 370.496C189.3 370.696 189.4 370.896 189.5 371.096V372.796C189.5 372.996 189.5 373.296 189.4 373.496C189.2 373.796 188.8 373.996 188.9 374.396C188.5 374.396 187.9 374.496 187.5 374.396C187.4 374.396 187.3 374.396 187.2 374.296C186.5 374.196 185.9 374.196 185.2 374.196C183.9 374.096 182.6 373.996 181.3 373.996C170 373.296 158.7 372.496 147.4 371.796C136.1 371.096 124.8 370.296 113.5 369.596C102.2 368.896 90.9 368.096 79.6 367.396C68.3 366.696 57 365.896 45.7 365.196C40 364.796 34.4 364.496 28.7 364.096C25.9 363.896 23 363.696 20.2 363.596C18.8 363.496 17.4 363.396 16 363.296C15.7 363.296 11.9 363.096 11.9 362.996V353.396L12 353.296C12.1 353.196 12.1 353.196 12.2 353.096C12.3 352.896 12.4 352.796 12.5 352.596C12.8 352.196 13 351.896 13.3 351.496C13.6 351.096 14 350.696 14.3 350.296C14.4 350.096 14.5 349.996 14.6 349.796C14.8 349.596 15.1 349.396 15.3 349.296C15.6 349.096 15.9 348.996 16.2 348.796C16.8 348.496 17.4 348.196 18.1 347.996C18.6 347.796 19.1 347.696 19.6 347.796C20 347.896 20.4 348.096 20.7 348.396C21.8 349.196 23 349.996 24.3 350.296C24.6 350.396 24.7 350.096 24.9 349.996C25.4 349.496 26 349.096 26.5 348.796C26.6 348.696 26.8 348.596 26.9 348.596C27.2 348.396 27.5 348.296 27.8 348.096C29 347.596 30.3 347.496 31.6 347.396C30.7 347.096 29.7 346.896 28.6 346.796C28 346.796 27.4 346.796 26.9 347.096C26.8 347.196 26.7 347.296 26.7 347.296C26.6 347.396 26.4 347.496 26.3 347.596L25.4 348.196C25.3 348.196 25.3 348.296 25.2 348.296C25 348.396 24.8 348.496 24.7 348.696C24.6 348.796 24.3 348.996 24.1 348.996C24 348.996 23.8 348.896 23.6 348.796C23.5 348.696 23.3 348.696 23.2 348.596C22.9 348.396 22.6 348.196 22.4 348.096C21.6 347.496 20.8 346.696 20 345.996C19.9 345.896 19.8 345.896 19.7 345.796H19.3C19 345.896 18.7 345.896 18.4 345.996C18.2 345.996 18.1 346.096 17.9 346.096H17.6C17.3 346.096 17 346.196 16.7 346.196C16.3 346.296 15.8 346.396 15.4 346.496C14.1 346.796 12.9 347.096 11.6 347.496V327.396C77.2 331.596 142.6 335.896 208.3 340.096V374.896ZM189.6 32.3958L186.7 28.2958H185.4C185.2 28.2958 185.1 28.0958 184.9 28.0958L181.9 25.6958C179.9 24.0958 177.8 22.5958 175.7 21.1958C171.5 18.2958 167.1 15.5958 162.4 13.3958C160.3 13.1958 158.6 12.1958 156.2 10.6958C158.8 11.0958 160.6 11.3958 162.4 11.6958C168.6 11.5958 174.4 13.5958 180.3 15.3958C184.9 16.7958 189.5 18.2958 194.3 18.6958C201.6 19.1958 207.3 23.0958 213 26.9958C217.5 30.0958 219 35.1958 220.4 39.9958C221.4 43.6958 217.9 45.2958 215.7 47.3958V47.7958C215.7 47.9958 215.8 48.1958 215.8 48.3958C215.9 48.7958 216.1 49.0958 216.2 49.4958C216.6 50.2958 217 50.9958 217.3 51.7958C217.5 52.1958 217.6 52.5958 217.7 52.9958C217.8 53.3958 217.9 53.8958 217.8 54.2958C217.8 54.4958 217.5 54.6958 217.4 54.7958C216.8 55.5958 216.1 56.3958 215.5 57.0958L219.7 55.6958C220 55.3958 220.2 55.0958 220.5 54.8958C220.8 54.6958 221.1 54.3958 221.4 54.1958C221.1 53.9958 221.1 53.8958 221.1 53.5958C221 53.1958 220.9 52.6958 220.8 52.2958C220.7 51.8958 220.6 51.4958 220.5 51.0958C220.5 50.8958 220.4 50.6958 220.4 50.4958C220.4 50.3958 220.2 49.9958 220.3 49.8958C221.4 47.6958 223.8 47.2958 225 45.8958C232.4 46.3958 236.5 50.2958 238.6 56.9958C241.3 65.4958 242 74.4958 244.5 82.9958C248.8 98.1958 246.1 113.196 245 128.296C244.4 136.996 245.3 145.896 243.6 154.496C242.9 157.796 242.1 160.896 239.5 162.796C238.6 166.496 239.4 169.896 239.2 173.296C238.8 174.296 237.9 175.096 237.1 175.796C236.4 176.496 235.6 177.096 234.8 177.696C234.8 177.696 234.8 177.696 234.7 177.796C234 178.296 233.2 178.796 232.6 179.396C232.3 179.696 232 179.996 231.7 180.296C231.4 180.596 231 180.796 230.6 181.096C229.9 181.496 229.2 181.996 228.5 182.496C228.3 182.696 228 182.796 227.9 183.096L227.5 183.496C227.4 183.596 227.2 183.796 227.1 183.896C227 183.996 226.9 184.096 226.9 184.196C226.9 184.296 227 184.296 227 184.396C227.5 184.996 227.7 185.896 228.1 186.596C228.2 186.796 228.4 186.996 228.5 187.296C228.6 187.396 228.6 187.496 228.6 187.696C228.8 188.096 228.9 188.496 228.9 188.896V189.496C228.8 189.896 229 190.296 228.7 190.596C228.3 190.996 227.8 191.396 227.4 191.796C227.2 191.996 227 192.196 226.8 192.296C226.4 192.696 225.9 192.996 225.5 193.396C225.4 193.496 225.3 193.496 225.3 193.596C225.2 193.696 225.2 193.896 225.3 194.096C225.6 196.296 225.9 198.596 226.2 200.796C226.2 201.096 226.3 201.496 226.3 201.896C226.2 202.196 226.2 202.496 226.2 202.896C226.2 203.796 226.3 204.696 226.4 205.496L228.3 196.196C229.7 193.596 233.2 193.096 234.1 190.496C234.1 188.196 232 187.596 231.3 185.596C235 182.896 238.8 180.096 243 176.996C243.1 174.996 243.3 172.596 243.4 170.096C244.8 170.396 245 171.496 245.1 172.396C245.8 185.896 249.1 199.396 246.2 212.996C245.2 217.896 243.5 222.596 242.9 227.496C241.3 241.296 243.4 254.996 243.1 268.696C242.9 275.596 243.8 282.596 241.5 289.796C231.5 294.996 221.4 299.696 210.5 304.896C211 298.796 211.2 293.396 211.8 287.996C212.7 279.296 212.3 270.396 214.2 261.796C215 258.096 214.7 254.096 213.8 250.396C210.7 238.396 210.8 226.396 212.3 214.296C213.9 201.096 213.5 187.796 213.7 174.496C213.9 161.196 215.9 148.096 216.6 134.796C217.3 120.896 218.5 106.896 216.1 93.1958C214.2 82.2958 211.1 71.5958 209.8 60.4958C208.8 52.2958 204.7 45.4958 198.3 40.1958C195.9 38.1958 193.7 36.0958 191.3 33.9958C190.7 33.4958 190.2 32.9958 189.6 32.3958C189.5 32.2958 189.4 32.2958 189.4 32.1958C189.2 31.9958 189.2 31.7958 189.1 31.4958L189.6 32.3958ZM242.2 305.696C242.2 305.696 242.3 305.796 242.4 305.796C242.5 305.796 242.5 305.796 242.6 305.896C242.8 305.896 242.9 305.996 243 306.096C243.2 306.296 243.3 306.496 243.4 306.696C243.4 306.996 243.5 307.296 243.5 307.696C243.5 308.396 243.6 309.196 243.5 309.896C243.5 310.296 243.5 310.596 243.4 310.996V311.396C243.4 311.596 243.6 311.596 243.8 311.696C244.1 311.796 244.3 312.096 244.4 312.296C244.5 312.496 244.6 312.696 244.5 312.896C244.5 313.096 244.4 313.296 244.3 313.396C244.1 313.796 243.8 313.996 243.4 314.196C242.5 314.596 241.6 315.096 240.8 315.596C232.8 319.796 224.8 324.096 216.4 328.496C214.2 324.396 212.7 320.296 211.2 315.596C222.3 310.396 233.3 305.196 244.4 299.896C248.1 302.196 250.4 305.696 253.1 308.696C251.6 310.396 249.7 310.896 247.8 311.796C247.6 311.696 247.4 311.596 247.2 311.496C247 311.396 246.7 311.196 246.5 311.096C246.3 310.996 246.1 310.796 245.8 310.796C245.5 310.696 245.1 310.496 244.9 310.296C244.8 310.196 244.8 310.096 244.8 309.896C244.7 309.496 244.6 309.196 244.6 308.796C244.5 308.296 244.4 307.896 244.2 307.396C244.1 306.996 243.9 306.496 243.8 306.096L242.2 305.696ZM249 332.796V331.296C249 330.996 249 330.596 249.2 330.296C249.3 330.096 249.3 329.996 249.4 329.896C249.4 329.796 249.5 329.796 249.5 329.696C249.8 329.196 250.1 328.696 250.5 328.196C252.2 326.196 253.2 323.896 253 321.096C254.1 320.296 255.2 319.396 257.1 319.496C257.8 329.296 257.3 339.496 257 349.896C244.4 357.396 231.8 364.896 218.7 372.596V338.696C228.9 333.296 239 327.996 249.2 322.696C249.5 323.096 249.7 323.596 249.8 324.096C249.9 324.396 249.8 324.796 249.8 325.096C249.8 325.296 249.7 325.396 249.6 325.596C249.6 325.696 249.5 325.796 249.4 325.996C249.3 326.096 249.1 326.296 249 326.396C248.8 326.496 248.7 326.696 248.5 326.896C248.3 327.096 248.1 327.396 248 327.596C247.9 327.696 247.8 327.796 247.8 327.996C247.7 328.096 247.6 328.296 247.6 328.496C247.3 328.996 247 329.596 246.6 330.096C246.4 330.296 246.2 330.596 246.2 330.896C246.2 330.996 246.2 331.096 246.3 331.196V335.096C246.3 335.796 246.4 336.396 246.4 337.096C246.4 337.596 246.3 338.296 246 338.696L245.7 338.996C245.7 338.996 245.6 339.096 245.6 339.196C245.6 339.296 245.5 339.296 245.4 339.396C244.7 340.196 243.8 340.796 242.9 341.396C243.5 341.296 244.1 341.196 244.6 340.896C245 340.696 245.4 340.396 245.9 340.196C246 340.196 246.1 339.996 246.3 339.996C246.3 339.996 246.3 339.996 246.4 339.996C246.6 339.696 246.7 339.396 246.9 338.996C247 338.896 247 338.696 247.1 338.496C247.2 338.296 247.2 338.196 247.3 337.996C247.3 337.896 247.4 337.796 247.4 337.696C247.5 337.296 247.6 336.896 247.8 336.496C247.9 336.296 247.9 336.096 248 335.896C248 335.796 248.1 335.696 248.1 335.496C248.1 335.296 248.1 335.096 248.2 334.996C248.2 334.796 248.3 334.596 248.5 334.496C248.6 334.496 248.6 334.496 248.7 334.496L249 332.796Z" fill="#E0E3BD"/>
<path d="M189.6 32.3958L186.7 28.2958H185.4C185.2 28.2958 185.1 28.0958 184.9 28.0958L181.9 25.6958C179.9 24.0958 177.8 22.5958 175.7 21.1958C171.5 18.2958 167.1 15.5958 162.4 13.3958C160.3 13.1958 158.6 12.1958 156.2 10.6958C158.8 11.0958 160.6 11.3958 162.4 11.6958C168.6 11.5958 174.4 13.5958 180.3 15.3958C184.9 16.7958 189.5 18.2958 194.3 18.6958C201.6 19.1958 207.3 23.0958 213 26.9958C217.5 30.0958 219 35.1958 220.4 39.9958C221.4 43.6958 217.9 45.2958 215.7 47.3958V47.7958C215.7 47.9958 215.8 48.1958 215.8 48.3958C215.9 48.7958 216.1 49.0958 216.2 49.4958C216.6 50.2958 217 50.9958 217.3 51.7958C217.5 52.1958 217.6 52.5958 217.7 52.9958C217.8 53.3958 217.9 53.8958 217.8 54.2958C217.8 54.4958 217.5 54.6958 217.4 54.7958C216.8 55.5958 216.1 56.3958 215.5 57.0958L219.7 55.6958C220 55.3958 220.2 55.0958 220.5 54.8958C220.8 54.6958 221.1 54.3958 221.4 54.1958C221.1 53.9958 221.1 53.8958 221.1 53.5958C221 53.1958 220.9 52.6958 220.8 52.2958C220.7 51.8958 220.6 51.4958 220.5 51.0958C220.5 50.8958 220.4 50.6958 220.4 50.4958C220.4 50.3958 220.2 49.9958 220.3 49.8958C221.4 47.6958 223.8 47.2958 225 45.8958C232.4 46.3958 236.5 50.2958 238.6 56.9958C241.3 65.4958 242 74.4958 244.5 82.9958C248.8 98.1958 246.1 113.196 245 128.296C244.4 136.996 245.3 145.896 243.6 154.496C242.9 157.796 242.1 160.896 239.5 162.796C238.6 166.496 239.4 169.896 239.2 173.296C238.8 174.296 237.9 175.096 237.1 175.796C236.4 176.496 235.6 177.096 234.8 177.696C234.8 177.696 234.8 177.696 234.7 177.796C234 178.296 233.2 178.796 232.6 179.396C232.3 179.696 232 179.996 231.7 180.296C231.4 180.596 231 180.796 230.6 181.096C229.9 181.496 229.2 181.996 228.5 182.496C228.3 182.696 228 182.796 227.9 183.096L227.5 183.496C227.4 183.596 227.2 183.796 227.1 183.896C227 183.996 226.9 184.096 226.9 184.196C226.9 184.296 227 184.296 227 184.396C227.5 184.996 227.7 185.896 228.1 186.596C228.2 186.796 228.4 186.996 228.5 187.296C228.6 187.396 228.6 187.496 228.6 187.696C228.8 188.096 228.9 188.496 228.9 188.896V189.496C228.8 189.896 229 190.296 228.7 190.596C228.3 190.996 227.8 191.396 227.4 191.796C227.2 191.996 227 192.196 226.8 192.296C226.4 192.696 225.9 192.996 225.5 193.396C225.4 193.496 225.3 193.496 225.3 193.596C225.2 193.696 225.2 193.896 225.3 194.096C225.6 196.296 225.9 198.596 226.2 200.796C226.2 201.096 226.3 201.496 226.3 201.896C226.2 202.196 226.2 202.496 226.2 202.896C226.2 203.796 226.3 204.696 226.4 205.496L228.3 196.196C229.7 193.596 233.2 193.096 234.1 190.496C234.1 188.196 232 187.596 231.3 185.596C235 182.896 238.8 180.096 243 176.996C243.1 174.996 243.3 172.596 243.4 170.096C244.8 170.396 245 171.496 245.1 172.396C245.8 185.896 249.1 199.396 246.2 212.996C245.2 217.896 243.5 222.596 242.9 227.496C241.3 241.296 243.4 254.996 243.1 268.696C242.9 275.596 243.8 282.596 241.5 289.796C231.5 294.996 221.4 299.696 210.5 304.896C211 298.796 211.2 293.396 211.8 287.996C212.7 279.296 212.3 270.396 214.2 261.796C215 258.096 214.7 254.096 213.8 250.396C210.7 238.396 210.8 226.396 212.3 214.296C213.9 201.096 213.5 187.796 213.7 174.496C213.9 161.196 215.9 148.096 216.6 134.796C217.3 120.896 218.5 106.896 216.1 93.1958C214.2 82.2958 211.1 71.5958 209.8 60.4958C208.8 52.2958 204.7 45.4958 198.3 40.1958C195.9 38.1958 193.7 36.0958 191.3 33.9958C190.7 33.4958 190.2 32.9958 189.6 32.3958ZM189.6 32.3958C189.5 32.2958 189.4 32.2958 189.4 32.1958C189.2 31.9958 189.2 31.7958 189.1 31.4958L189.6 32.3958ZM243.8 306.096C243.9 306.496 244.1 306.996 244.2 307.396C244.4 307.896 244.5 308.296 244.6 308.796C244.6 309.196 244.7 309.496 244.8 309.896C244.8 310.096 244.8 310.196 244.9 310.296C245.1 310.496 245.5 310.696 245.8 310.796C246.1 310.796 246.3 310.996 246.5 311.096C246.7 311.196 247 311.396 247.2 311.496C247.4 311.596 247.6 311.696 247.8 311.796C249.7 310.896 251.6 310.396 253.1 308.696C250.4 305.696 248.1 302.196 244.4 299.896C233.3 305.196 222.3 310.396 211.2 315.596C212.7 320.296 214.2 324.396 216.4 328.496C224.8 324.096 232.8 319.796 240.8 315.596C241.6 315.096 242.5 314.596 243.4 314.196C243.8 313.996 244.1 313.796 244.3 313.396C244.4 313.296 244.5 313.096 244.5 312.896C244.6 312.696 244.5 312.496 244.4 312.296C244.3 312.096 244.1 311.796 243.8 311.696C243.6 311.596 243.4 311.596 243.4 311.396V310.996C243.5 310.596 243.5 310.296 243.5 309.896C243.6 309.196 243.5 308.396 243.5 307.696C243.5 307.296 243.4 306.996 243.4 306.696C243.3 306.496 243.2 306.296 243 306.096C242.9 305.996 242.8 305.896 242.6 305.896C242.5 305.796 242.5 305.796 242.4 305.796C242.3 305.796 242.2 305.696 242.2 305.696L243.8 306.096ZM243.8 306.096L241.7 305.296M265.3 306.296C260.2 302.196 256.4 296.896 251.6 292.296C251.9 287.196 252.5 282.596 252.5 277.996C252.4 265.396 253.2 252.796 252.2 240.196C251.6 232.496 253.7 225.096 255.8 217.696C259.9 203.596 257.6 189.096 255.5 175.196C254 165.296 253.8 155.696 254.5 145.896C255.2 137.296 255.3 128.696 256 120.096C256.9 107.896 258 95.8958 254.9 83.5958C252.2 73.1958 251.6 62.2958 247.4 52.2958C244.1 44.4958 244.1 44.4958 233.9 30.9958C224.8 21.3958 223.4 21.2958 215.6 16.5958C209.6 12.9958 203.7 9.59583 196.4 8.89583C187.1 7.99583 178.5 3.89583 169.3 2.39583C153.3 -0.204172 137.5 1.19583 121.7 3.59583C100.5 6.89583 79.6 10.9958 63.3 27.1958C55.6 34.8958 47.7 42.1958 44.4 52.8958C43.5 55.8958 41.5 58.4958 40 61.1958C33.1 72.8958 34.7 78.1958 33.7 93.3958C34.3 94.4958 32.3 101.096 31.6 102.896C30.7 113.096 30.6 106.596 30.7 110.996C31 124.296 31.1 137.596 31.2 150.796C31.3 162.796 31.8 174.796 29.6 186.596C27.2 199.096 27.4 211.696 27.3 224.296C27.3 227.096 27.4 229.996 26.7 232.696C24.6 242.096 25.1 251.496 25.6 260.896C26.3 273.696 25.7 286.396 27.2 299.496C19.8 305.296 12.5 311.096 5.1 316.696C2.5 318.596 1 320.696 1 324.096C1.2 338.196 1.2 352.296 1.3 366.396C1.3 370.196 3.1 372.296 7 372.596C25.1 373.696 43.1 374.796 61.1 375.996C84.5 377.496 107.8 378.896 131.2 380.396C157.7 382.096 184.2 383.896 210.7 385.596C214.3 385.796 217.6 384.996 220.7 383.096C234.6 374.696 248.6 366.296 262.6 358.096C266 356.096 267.3 353.496 267.3 349.596C267.4 337.296 267.7 324.996 268 312.796C268 310.296 267.5 307.996 265.3 306.296ZM35.2 243.096C36.4 234.696 37.5 226.396 37.3 217.896C37 206.896 38.3 196.096 39.9 185.296C42.1 170.296 41.3 155.196 41 140.096C40.9 134.596 40.8 129.096 40.9 123.696C40.9 122.296 41 120.896 41.1 119.496C41.2 118.696 41.3 117.896 41.3 116.996C41.3 116.596 41.6 116.296 41.9 115.996C42.3 115.496 42.8 114.996 43.2 114.496C43.3 114.396 43.4 114.296 43.6 114.196C43.7 114.196 43.9 114.196 44 114.296C45.8 115.096 48.9 117.996 49 118.196C49 118.296 52.6 120.996 52.6 121.096C52.7 121.196 50.4 126.196 50.4 126.396C54.7 126.396 53.6 124.996 57.1 118.696C57.3 118.296 53.6 115.796 53.6 115.296C53 114.696 52.8 113.896 52.5 113.196C52.2 112.296 51.7 111.496 51.2 110.796C50.9 110.396 50.6 110.096 50.3 109.696C50 109.396 49.7 109.096 49.4 108.796C49.2 108.596 49.1 108.396 49.1 108.096C49 107.696 48.8 107.396 48.7 106.996C48.3 106.096 47.9 105.096 47.6 104.096C46.9 102.196 46.3 100.196 45.7 98.1958C45.1 96.1958 44.5 94.1958 43.8 92.1958C43.4 91.0958 43 90.0958 42.6 88.9958C43.3 79.5958 45.1 70.5958 51.3 62.9958C52.7 61.1958 53.6 58.8958 54.3 56.7958C57.1 47.5958 63.3 40.9958 70.4 35.0958C74.8 31.3958 78.8 26.9958 83.9 24.4958C84 24.3958 84.4 24.6958 84.5 24.6958C84.7 24.7958 84.9 24.8958 85.1 24.9958C85.5 25.2958 85.8 25.5958 86 25.9958C86.4 26.4958 86.5 27.1958 86.8 27.6958C87 28.1958 87.2 28.7958 87.4 29.2958C87.8 30.3958 88.2 31.3958 88.5 32.4958C88.6 32.6958 88.6 32.7958 88.7 32.8958C88.7 32.9958 88.8 33.0958 88.8 33.0958C88.8 33.0958 89 33.1958 89.1 33.1958C89.5 33.2958 89.9 33.4958 90.3 33.5958C90.4 33.5958 89.9 36.2958 89.9 36.4958V36.9958C89.9 37.3958 89.8 37.8958 89.8 38.2958C89.7 39.1958 89.7 40.0958 89.6 40.9958C89.6 41.2958 89.5 41.6958 89.6 41.9958C89.7 42.2958 89.8 42.4958 89.9 42.7958C90.7 44.3958 91.1 50.3958 91.1 50.3958C91.1 50.3958 92.4 46.9958 92.3 46.7958C92.2 46.4958 92.2 46.2958 92.1 45.9958C92 45.4958 91.9 44.8958 91.8 44.3958C91.7 43.6958 91.6 42.9958 91.5 42.1958C91.5 41.8958 91.4 41.6958 91.4 41.3958C91.4 41.1958 91.3 41.0958 91.4 40.8958C91.5 40.5958 91.6 40.2958 91.8 40.0958C91.9 39.7958 92.1 39.4958 92.2 39.1958C92.2 39.1958 92.8 39.2958 92.9 39.3958C93.1 39.4958 93.3 39.5958 93.5 39.5958C94.1 39.6958 94.6 39.8958 95.1 40.1958C95.3 40.2958 95.5 40.3958 95.7 40.5958C95.8 40.7958 95.9 40.9958 96 41.1958C96.5 42.4958 97 43.8958 97.6 45.1958C97.7 45.3958 97.8 45.6958 98 45.8958C98.2 46.0958 98.4 46.1958 98.6 46.2958C99.9 47.0958 101.3 47.8958 102.6 48.6958C102 47.6958 101.1 46.8958 100.3 45.8958C99.1 44.3958 98.3 42.5958 98 40.6958C97.9 40.2958 97.9 39.8958 97.9 39.4958C96.9 38.7958 95.9 38.1958 94.9 37.4958C94.5 37.1958 94 36.9958 93.7 36.6958C93.6 36.5958 93.5 36.3958 93.5 36.1958C93.4 35.8958 93.3 35.6958 93.2 35.3958C92.8 34.2958 92.5 33.1958 92.1 32.1958C92 31.8958 91.9 31.4958 91.6 31.3958C91.5 31.2958 91.3 31.2958 91.1 31.1958C90.8 30.9958 90.7 30.5958 90.6 30.2958C90.5 29.8958 90.4 29.3958 90.3 28.9958C90.2 28.6958 90.1 28.2958 90.1 27.8958V27.4958C90 26.7958 89.8 26.0958 89.8 25.3958C89.7 23.5958 90.1 21.7958 91.1 20.1958C121.6 15.6958 152.4 11.9958 179.2 35.4958V49.4958C179.2 49.8958 179.2 50.3958 179 50.7958C178.9 50.8958 178.9 50.9958 178.8 51.1958C178.7 51.4958 178.6 51.7958 178.4 51.9958C178.1 52.4958 177.8 52.9958 177.4 53.5958C177 54.1958 176.6 54.7958 176.4 55.4958C176.5 55.3958 176.6 55.3958 176.7 55.2958L177 54.9958C177.2 54.7958 177.5 54.5958 177.7 54.4958C178.2 54.1958 178.6 53.7958 179 53.3958C179.2 53.1958 179.3 52.9958 179.5 52.6958C179.7 52.3958 179.9 51.8958 180.1 51.5958C180.4 51.2958 180.6 50.7958 180.7 50.2958C180.8 50.0958 180.9 49.9958 180.9 49.7958C181 49.5958 181 49.3958 181.1 49.0958C181.2 48.5958 181.3 48.1958 181.4 47.6958C181.8 45.6958 181.9 43.6958 182.2 41.6958C182.3 40.8958 182.5 40.1958 182.7 39.3958C191 45.8958 199.6 51.5958 200.8 62.9958C201.8 72.5958 203.5 81.9958 206.2 91.2958C207 93.9958 207.7 96.7958 207.7 99.5958C207.7 118.296 208.6 136.896 205.6 155.496C204 165.396 204.1 175.696 204 185.796C204 196.596 203.4 207.396 202.4 218.096C201.4 228.596 201.4 238.996 204 249.196C205.4 254.596 204.5 259.996 203.9 265.496C202.7 276.196 202.2 286.996 201.5 297.796C201.3 300.396 201.4 303.096 200.3 305.896C145.9 302.896 91.6 299.896 37 296.796C37 296.796 36.8 295.096 36.8 294.996C36.7 294.296 36.6 293.596 36.5 292.896C36.3 291.496 36.2 290.196 36.1 288.796C36 287.396 36.1 286.096 36.2 284.796V284.296C36.2 283.796 36.3 283.196 36.4 282.796C36.5 282.296 36.6 281.696 36.7 281.196C37 279.996 37.3 278.796 37.8 277.596C37.9 277.396 37.9 277.296 38 277.096C38.1 276.996 38.3 276.896 38.5 276.796C41.1 275.796 43.6 274.796 46.2 273.796C46.5 273.696 46.6 273.296 46.8 272.996C47 272.696 47.2 272.396 47.5 272.096C47.7 271.896 48 271.696 48.2 271.496C48.6 271.096 48.8 270.596 49 270.096C49.4 269.296 49.8 268.396 50.1 267.596C50.3 267.196 50.5 266.796 50.6 266.496C50.6 266.396 50.6 266.296 50.7 266.196C51 265.696 51.7 265.296 52.1 264.996C53 264.296 53.8 263.496 54.4 262.596C53.6 262.996 53 263.496 52.2 263.996C51.9 264.196 51.5 264.396 51.1 264.496C51 264.496 50.9 264.496 50.7 264.596C50.6 264.596 50.6 264.696 50.6 264.696C50.4 264.896 50.2 265.196 50 265.496C49.6 266.096 49.2 266.696 48.8 267.296C48.3 267.996 47.8 268.696 47.3 269.496C46.8 270.296 46.5 271.096 45.7 271.496C45.5 271.596 45.2 271.696 44.9 271.796C42.4 272.596 39.8 273.496 37.3 274.296C36.8 274.496 36.3 274.596 35.8 274.996V273.996C35.9 273.496 35.8 272.996 35.9 272.596V270.596C35.9 269.196 35.8 267.896 35.8 266.496C35.7 263.796 35.5 261.096 35.4 258.496C34.6 253.496 34.5 248.296 35.2 243.096ZM33 307.996C34.4 306.896 36.2 307.196 37.8 307.296C69.9 309.096 102 310.796 134.1 312.596C155.1 313.796 176.1 314.996 197.2 316.096C198.2 316.196 199.2 316.396 200.3 316.496C202.3 320.496 203.9 324.596 205.1 329.596C143.8 325.596 83 321.696 21.1 317.696C25.3 313.496 29.3 310.896 33 307.996ZM208.3 374.896C203.8 375.596 199.4 374.996 195.3 374.496C195.1 374.496 194.9 374.296 194.8 374.196C194.6 374.096 194.5 373.996 194.3 373.796C194 373.596 193.7 373.296 193.4 372.996C192.8 372.396 192.4 371.596 191.8 370.996C191.6 370.796 191.3 370.596 191.2 370.396C191 369.996 190.9 369.596 190.8 369.196C190.8 369.096 190.8 368.996 190.7 368.796C190.6 368.696 190.5 368.596 190.5 368.396C190 367.796 189.6 367.196 189.3 366.496C189.2 366.296 189.2 365.996 189.2 365.796C189.3 365.196 189 364.596 188.8 364.096C188.7 363.596 188.6 363.196 188.5 362.696C188.5 362.596 188.4 362.396 188.3 362.296C188.1 361.996 187.8 361.796 187.5 361.596C186.8 360.796 186.1 360.096 185.4 359.396C185.1 359.096 184.8 358.896 184.5 358.696C184.7 358.796 184.8 359.096 185 359.296C185.1 359.496 185.3 359.696 185.5 359.896C185.8 360.296 186.1 360.696 186.3 361.296C186.3 361.496 186.5 361.796 186.6 361.996C186.9 362.596 187.1 363.096 187.2 363.696C187.4 364.496 187.5 365.296 187.5 366.096C187.6 366.796 187.6 367.596 187.7 368.296C187.7 368.296 188.2 368.496 188.3 368.496C188.4 368.596 188.4 368.796 188.4 368.996C188.6 369.496 188.9 369.996 189.2 370.496C189.3 370.696 189.4 370.896 189.5 371.096V372.796C189.5 372.996 189.5 373.296 189.4 373.496C189.2 373.796 188.8 373.996 188.9 374.396C188.5 374.396 187.9 374.496 187.5 374.396C187.4 374.396 187.3 374.396 187.2 374.296C186.5 374.196 185.9 374.196 185.2 374.196C183.9 374.096 182.6 373.996 181.3 373.996C170 373.296 158.7 372.496 147.4 371.796C136.1 371.096 124.8 370.296 113.5 369.596C102.2 368.896 90.9 368.096 79.6 367.396C68.3 366.696 57 365.896 45.7 365.196C40 364.796 34.4 364.496 28.7 364.096C25.9 363.896 23 363.696 20.2 363.596C18.8 363.496 17.4 363.396 16 363.296C15.7 363.296 11.9 363.096 11.9 362.996V353.396L12 353.296C12.1 353.196 12.1 353.196 12.2 353.096C12.3 352.896 12.4 352.796 12.5 352.596C12.8 352.196 13 351.896 13.3 351.496C13.6 351.096 14 350.696 14.3 350.296C14.4 350.096 14.5 349.996 14.6 349.796C14.8 349.596 15.1 349.396 15.3 349.296C15.6 349.096 15.9 348.996 16.2 348.796C16.8 348.496 17.4 348.196 18.1 347.996C18.6 347.796 19.1 347.696 19.6 347.796C20 347.896 20.4 348.096 20.7 348.396C21.8 349.196 23 349.996 24.3 350.296C24.6 350.396 24.7 350.096 24.9 349.996C25.4 349.496 26 349.096 26.5 348.796C26.6 348.696 26.8 348.596 26.9 348.596C27.2 348.396 27.5 348.296 27.8 348.096C29 347.596 30.3 347.496 31.6 347.396C30.7 347.096 29.7 346.896 28.6 346.796C28 346.796 27.4 346.796 26.9 347.096C26.8 347.196 26.7 347.296 26.7 347.296C26.6 347.396 26.4 347.496 26.3 347.596L25.4 348.196C25.3 348.196 25.3 348.296 25.2 348.296C25 348.396 24.8 348.496 24.7 348.696C24.6 348.796 24.3 348.996 24.1 348.996C24 348.996 23.8 348.896 23.6 348.796C23.5 348.696 23.3 348.696 23.2 348.596C22.9 348.396 22.6 348.196 22.4 348.096C21.6 347.496 20.8 346.696 20 345.996C19.9 345.896 19.8 345.896 19.7 345.796H19.3C19 345.896 18.7 345.896 18.4 345.996C18.2 345.996 18.1 346.096 17.9 346.096H17.6C17.3 346.096 17 346.196 16.7 346.196C16.3 346.296 15.8 346.396 15.4 346.496C14.1 346.796 12.9 347.096 11.6 347.496V327.396C77.2 331.596 142.6 335.896 208.3 340.096V374.896ZM249 332.796V331.296C249 330.996 249 330.596 249.2 330.296C249.3 330.096 249.3 329.996 249.4 329.896C249.4 329.796 249.5 329.796 249.5 329.696C249.8 329.196 250.1 328.696 250.5 328.196C252.2 326.196 253.2 323.896 253 321.096C254.1 320.296 255.2 319.396 257.1 319.496C257.8 329.296 257.3 339.496 257 349.896C244.4 357.396 231.8 364.896 218.7 372.596V338.696C228.9 333.296 239 327.996 249.2 322.696C249.5 323.096 249.7 323.596 249.8 324.096C249.9 324.396 249.8 324.796 249.8 325.096C249.8 325.296 249.7 325.396 249.6 325.596C249.6 325.696 249.5 325.796 249.4 325.996C249.3 326.096 249.1 326.296 249 326.396C248.8 326.496 248.7 326.696 248.5 326.896C248.3 327.096 248.1 327.396 248 327.596C247.9 327.696 247.8 327.796 247.8 327.996C247.7 328.096 247.6 328.296 247.6 328.496C247.3 328.996 247 329.596 246.6 330.096C246.4 330.296 246.2 330.596 246.2 330.896C246.2 330.996 246.2 331.096 246.3 331.196V335.096C246.3 335.796 246.4 336.396 246.4 337.096C246.4 337.596 246.3 338.296 246 338.696L245.7 338.996C245.7 338.996 245.6 339.096 245.6 339.196C245.6 339.296 245.5 339.296 245.4 339.396C244.7 340.196 243.8 340.796 242.9 341.396C243.5 341.296 244.1 341.196 244.6 340.896C245 340.696 245.4 340.396 245.9 340.196C246 340.196 246.1 339.996 246.3 339.996C246.3 339.996 246.3 339.996 246.4 339.996C246.6 339.696 246.7 339.396 246.9 338.996C247 338.896 247 338.696 247.1 338.496C247.2 338.296 247.2 338.196 247.3 337.996C247.3 337.896 247.4 337.796 247.4 337.696C247.5 337.296 247.6 336.896 247.8 336.496C247.9 336.296 247.9 336.096 248 335.896C248 335.796 248.1 335.696 248.1 335.496C248.1 335.296 248.1 335.096 248.2 334.996C248.2 334.796 248.3 334.596 248.5 334.496C248.6 334.496 248.6 334.496 248.7 334.496L249 332.796Z" stroke="black" stroke-width="2" stroke-miterlimit="10"/>
<path d="M134.8 158.095C132.4 161.695 132.2 166.595 133.9 170.595C134.4 171.795 135.1 172.895 136.2 173.595C138.4 174.895 141.2 173.695 143.5 172.495C146.5 170.895 149.6 168.995 150.8 165.795C151.7 163.495 151.3 160.795 150.2 158.595C149.6 157.195 148.7 155.995 147.7 154.895C147 154.195 146.4 153.295 145.3 153.195C142.8 152.795 140.1 153.595 138 154.895C136.7 155.795 135.6 156.895 134.8 158.095Z" fill="#6B00FA" stroke="black" stroke-width="0.5" stroke-miterlimit="10"/>
<path d="M89.2998 158.795C88.4998 160.195 87.8998 161.695 87.7998 163.295C87.5998 165.995 88.8998 168.495 90.0998 170.895C90.2998 171.395 90.5998 171.895 90.9998 172.195C91.3998 172.495 91.8998 172.595 92.3998 172.695C97.3998 173.395 102.6 171.395 105.8 167.495C106.4 166.695 106.9 165.895 107.2 164.995C107.6 163.595 107.6 162.195 107.5 160.795C107.4 158.795 107.2 156.495 105.7 155.095C105 154.395 104.1 153.895 103.2 153.495C102.1 152.895 100.8 152.195 99.5998 151.795C98.6998 151.595 97.5998 151.895 96.7998 152.195C94.6998 152.895 92.8998 154.295 91.3998 155.895C90.9998 156.395 90.5998 156.795 90.1998 157.295C89.9998 157.595 89.7998 157.795 89.6998 158.095C89.5998 158.195 89.4998 158.595 89.2998 158.795Z" fill="#6B00FA" stroke="black" stroke-width="0.5" stroke-miterlimit="10"/>
<path d="M95.7004 175.496C88.1004 175.496 81.9004 169.296 81.9004 161.696C81.9004 154.096 88.1004 147.896 95.7004 147.896C103.3 147.896 109.5 154.096 109.5 161.696C109.5 169.296 103.3 175.496 95.7004 175.496ZM95.7004 151.896C90.3004 151.896 85.9004 156.296 85.9004 161.696C85.9004 167.096 90.3004 171.496 95.7004 171.496C101.1 171.496 105.5 167.096 105.5 161.696C105.5 156.296 101.1 151.896 95.7004 151.896Z" fill="black"/>
<path d="M140.101 176.496C132.501 176.496 126.301 170.296 126.301 162.696C126.301 155.096 132.501 148.896 140.101 148.896C147.701 148.896 153.901 155.096 153.901 162.696C153.901 170.296 147.701 176.496 140.101 176.496ZM140.101 152.896C134.701 152.896 130.301 157.296 130.301 162.696C130.301 168.096 134.701 172.496 140.101 172.496C145.501 172.496 149.901 168.096 149.901 162.696C149.901 157.296 145.501 152.896 140.101 152.896Z" fill="black"/>
<path d="M89.3012 170.596C87.9012 168.496 84.5 166.096 84.5 163.696C84.5 156.596 87.9 150.896 95 150.896C95.1 150.896 100.301 150.896 100.401 150.896C101.201 151.696 102.001 152.396 102.601 153.196C101.701 152.996 100.901 152.896 100.001 152.896C94.1012 152.896 89.2012 157.696 89.2012 163.696C89.2012 166.596 90.3012 169.196 92.2012 171.196L89.3012 170.596Z" fill="black"/>
<path d="M136.9 172.396C135.9 172.296 130.499 170.2 129.499 170C128.099 167.9 129.499 160.1 129.499 157.5C129.499 150.7 137.7 151.4 144.4 151L146.4 153.996C145.8 153.896 145.1 153.796 144.4 153.796C138.5 153.796 133.6 158.596 133.6 164.596C133.7 167.696 134.9 170.396 136.9 172.396Z" fill="black"/>
</svg>
