<svg id="wallet-solid" xmlns="http://www.w3.org/2000/svg" width="20.984" height="18.99" viewBox="0 0 20.984 18.99">
  <path id="Path_3" data-name="Path 3" d="M23.306,10.782H21.99V7.391a.678.678,0,0,0-.678-.678H5.035a.678.678,0,0,1,0-1.356H21.04A.678.678,0,1,0,21.04,4H5.035A1.994,1.994,0,0,0,3,5.953V20.2A2.8,2.8,0,0,0,5.815,22.99h15.5a.678.678,0,0,0,.678-.678V18.921h1.316a.631.631,0,0,0,.678-.617V11.521A.732.732,0,0,0,23.306,10.782Zm-.638,6.782H16.849a2.625,2.625,0,0,1-2.53-2.713,2.625,2.625,0,0,1,2.53-2.713h5.819Z" transform="translate(-3 -3.999)" fill="#443107"/>
  <path id="Path_4" data-name="Path 4" d="M24.575,19.437a1.017,1.017,0,1,1-1.017-1.017,1.017,1.017,0,0,1,1.017,1.017Z" transform="translate(-9.288 -8.64)" fill="#443107"/>
</svg>
