<svg width="82" height="38" viewBox="0 0 82 38" fill="none" xmlns="http://www.w3.org/2000/svg">
<path d="M41.9406 22.9114C40.6114 19.261 37.5617 16.75 34.1252 16.0351C33.6895 15.9457 33.245 15.8832 32.8004 15.8519C33.1027 17.6838 33.2583 19.3638 33.2894 20.9052C33.8585 21.0393 34.4142 21.2716 34.921 21.5933C35.979 22.2591 36.8548 23.3001 37.3305 24.6092C38.4063 27.5626 37.0682 30.784 34.3475 31.7849C33.5917 32.0619 32.8049 32.1423 32.0447 32.0485C31.5423 31.9859 31.0489 31.8474 30.5821 31.6374C29.5329 33.1834 28.2659 34.3495 26.9456 35.2297C27.3768 35.5201 27.8258 35.7838 28.2881 36.0072C29.6574 36.6684 31.1555 37.0214 32.6759 37.0214C33.7962 37.0214 34.9299 36.8293 36.0368 36.4227C41.3004 34.4836 43.95 28.4249 41.9406 22.9114ZM77.0964 15.6732L75.8072 36.9365L80.7107 37.2359L81.9999 15.9725L77.0964 15.6732ZM71.0682 1.46487C69.899 7.34479 68.9654 13.2694 68.2675 19.2074C66.1469 19.6006 64.0175 19.8329 61.9014 19.8955C61.1856 15.6151 60.2965 11.3347 59.234 7.08565L54.4683 8.28754C56.8689 17.8893 58.3627 27.6251 58.9095 37.2269L63.8174 36.9454C63.5862 32.9153 63.195 28.8628 62.6438 24.8103C64.3375 24.7343 66.0402 24.569 67.734 24.3054C67.3339 28.5456 67.0538 32.7812 66.9027 36.9991L71.8106 37.1778C72.2329 25.6235 73.6022 13.9307 75.8872 2.42997L71.0682 1.46487ZM49.4625 18.4166C47.0619 16.2808 45.5949 14.8689 45.6171 12.9119C45.666 8.5869 53.3925 6.79969 53.468 6.78182L52.9568 4.36462L52.45 1.94742C51.9743 2.05019 40.7936 4.50313 40.7003 12.8539C40.6514 17.1655 43.5988 19.7927 46.2039 22.1116C48.7601 24.3903 50.3117 25.9318 50.3117 28.1613C50.3117 30.4311 49.4003 31.1147 49.1025 31.3425C47.6799 32.4104 45.1903 32.2093 43.8611 31.8117L42.4607 36.5478C43.5099 36.8605 44.7902 37.0705 46.1328 37.0705C48.1466 37.0705 50.3072 36.6014 52.0366 35.3012C53.4903 34.211 55.2241 32.0887 55.2241 28.1613C55.2241 23.5503 52.0321 20.7042 49.4625 18.4166Z" fill="#47dba7"/>
<path d="M13.0798 24.1893L13.5732 38C4.59754 37.1913 -1.2351 30.0067 0.223059 18.6803C0.565371 16.0173 1.29445 13.4259 2.30805 11.0668C2.30805 11.0668 7.63833 19.3728 13.0798 24.1893Z" fill="#47dba7"/>
<path d="M24.6116 5.79894C21.5886 11.2678 18.4811 15.8743 15.3292 19.5381C12.1461 16.415 8.74524 12.0274 5.01538 6.23681C7.66496 2.56409 11.1014 0.133486 14.6801 0.00391373C17.7965 -0.107787 21.5219 2.17984 24.6116 5.79894C24.6116 5.79447 24.6116 5.79894 24.6116 5.79894Z" fill="#47dba7"/>
<path d="M18.4813 37.8255L17.9878 23.9657C21.3042 20.3108 24.5628 15.7356 27.7192 10.298C28.9507 12.541 29.9065 15.0162 30.4266 17.5943C32.685 28.7867 27.3725 36.3778 18.4813 37.8255Z" fill="#47dba7"/>
</svg>
