<?xml version="1.0" encoding="utf-8"?>
<!-- Generator: Adobe Illustrator 22.1.0, SVG Export Plug-In . SVG Version: 6.00 Build 0)  -->
<svg version="1.1" id="Слой_1" xmlns="http://www.w3.org/2000/svg" xmlns:xlink="http://www.w3.org/1999/xlink" x="0px" y="0px"
	 viewBox="0 0 360 360" style="enable-background:new 0 0 360 360;" xml:space="preserve">
<style type="text/css">
	.st0{fill:#165366;}
	.st1{fill:url(#SVGID_1_);}
	.st2{fill:#7FD0B3;}
	.st3{fill:url(#SVGID_2_);}
	.st4{fill:url(#SVGID_3_);}
	.st5{fill:#FFFFFF;}
</style>
<g>
	<path class="st0" d="M244.9,37.3H115.1c-43,0-77.8,34.9-77.8,77.8v129.7c0,43,34.9,76,77.8,76h129.7c43,0,77.8-33,77.8-76V115.1
		C322.7,72.1,287.9,37.3,244.9,37.3z"/>
	<linearGradient id="SVGID_1_" gradientUnits="userSpaceOnUse" x1="35.837" y1="263.2325" x2="324.1631" y2="96.7674">
		<stop  offset="0" style="stop-color:#00273C;stop-opacity:0.7"/>
		<stop  offset="0.604" style="stop-color:#165366;stop-opacity:0"/>
	</linearGradient>
	<path class="st1" d="M244.9,37.3H115.1c-43,0-77.8,34.9-77.8,77.8v129.7c0,43,34.9,77.8,77.8,77.8h129.7c43,0,77.8-34.9,77.8-77.8
		V115.1C322.7,72.1,287.9,37.3,244.9,37.3z"/>
	<path class="st2" d="M244.9,37.3L244.9,37.3c-114.6,0-207.6,92.9-207.6,207.6v0c0,43,34.9,77.8,77.8,77.8h129.7
		c43,0,77.8-34.9,77.8-77.8V115.1C322.7,72.1,287.9,37.3,244.9,37.3z"/>
	<linearGradient id="SVGID_2_" gradientUnits="userSpaceOnUse" x1="47.7032" y1="283.7854" x2="336.0292" y2="117.3203">
		<stop  offset="0" style="stop-color:#00897C;stop-opacity:0.5"/>
		<stop  offset="0.4501" style="stop-color:#00897C;stop-opacity:0"/>
	</linearGradient>
	<path class="st3" d="M244.9,37.3L244.9,37.3c-114.6,0-207.6,92.9-207.6,207.6v0c0,43,34.9,77.8,77.8,77.8h129.7
		c43,0,77.8-34.9,77.8-77.8V115.1C322.7,72.1,287.9,37.3,244.9,37.3z"/>
	<linearGradient id="SVGID_3_" gradientUnits="userSpaceOnUse" x1="336.0292" y1="117.3203" x2="47.7032" y2="283.7854">
		<stop  offset="0" style="stop-color:#7FE7DE;stop-opacity:0.7"/>
		<stop  offset="0.5043" style="stop-color:#7FD0B3;stop-opacity:0"/>
	</linearGradient>
	<path class="st4" d="M244.9,37.3L244.9,37.3c-114.6,0-207.6,92.9-207.6,207.6v0c0,43,34.9,77.8,77.8,77.8h129.7
		c43,0,77.8-34.9,77.8-77.8V115.1C322.7,72.1,287.9,37.3,244.9,37.3z"/>
	<circle class="st0" cx="180" cy="180" r="85.6"/>
	<circle class="st5" cx="180" cy="180" r="28.5"/>
</g>
</svg>
